solid OpenSCAD_Model
  facet normal 0 0 -1
    outer loop
      vertex 52 0 0
      vertex 53.0926 10.3956 0
      vertex 53.0926 -10.3956 0
    endloop
  endfacet
  facet normal 0 0 -1
    outer loop
      vertex 53.0926 -10.3956 0
      vertex 53.0926 10.3956 0
      vertex 56.3227 20.3368 0
    endloop
  endfacet
  facet normal 0 0 -1
    outer loop
      vertex 53.0926 -10.3956 0
      vertex 56.3227 20.3368 0
      vertex 61.5492 29.3893 0
    endloop
  endfacet
  facet normal 0 0 -1
    outer loop
      vertex 53.0926 -10.3956 0
      vertex 61.5492 29.3893 0
      vertex 68.5435 37.1572 0
    endloop
  endfacet
  facet normal 0 0 -1
    outer loop
      vertex 53.0926 -10.3956 0
      vertex 68.5435 37.1572 0
      vertex 77 43.3013 0
    endloop
  endfacet
  facet normal 0 0 -1
    outer loop
      vertex 53.0926 -10.3956 0
      vertex 77 43.3013 0
      vertex 86.5491 47.5528 0
    endloop
  endfacet
  facet normal 0 0 -1
    outer loop
      vertex 53.0926 -10.3956 0
      vertex 86.5491 47.5528 0
      vertex 96.7736 49.7261 0
    endloop
  endfacet
  facet normal 0 0 -1
    outer loop
      vertex 53.0926 -10.3956 0
      vertex 96.7736 49.7261 0
      vertex 107.226 49.7261 0
    endloop
  endfacet
  facet normal 0 0 -1
    outer loop
      vertex 53.0926 -10.3956 0
      vertex 107.226 49.7261 0
      vertex 117.451 47.5528 0
    endloop
  endfacet
  facet normal 0 0 -1
    outer loop
      vertex 53.0926 -10.3956 0
      vertex 117.451 47.5528 0
      vertex 127 43.3013 0
    endloop
  endfacet
  facet normal 0 0 -1
    outer loop
      vertex 53.0926 -10.3956 0
      vertex 127 43.3013 0
      vertex 135.457 37.1572 0
    endloop
  endfacet
  facet normal 0 0 -1
    outer loop
      vertex 53.0926 -10.3956 0
      vertex 135.457 37.1572 0
      vertex 142.451 29.3893 0
    endloop
  endfacet
  facet normal 0 0 -1
    outer loop
      vertex 53.0926 -10.3956 0
      vertex 142.451 29.3893 0
      vertex 147.677 20.3368 0
    endloop
  endfacet
  facet normal 0 0 -1
    outer loop
      vertex 102.441 1.35865 0
      vertex 147.677 20.3368 0
      vertex 150.907 10.3956 0
    endloop
  endfacet
  facet normal 0 0 -1
    outer loop
      vertex 53.0926 -10.3956 0
      vertex 152 0 0
      vertex 150.907 -10.3956 0
    endloop
  endfacet
  facet normal 0 0 -1
    outer loop
      vertex 53.0926 -10.3956 0
      vertex 150.907 -10.3956 0
      vertex 147.677 -20.3368 0
    endloop
  endfacet
  facet normal 0 0 -1
    outer loop
      vertex 53.0926 -10.3956 0
      vertex 147.677 -20.3368 0
      vertex 142.451 -29.3893 0
    endloop
  endfacet
  facet normal 0 0 -1
    outer loop
      vertex 53.0926 -10.3956 0
      vertex 142.451 -29.3893 0
      vertex 135.457 -37.1572 0
    endloop
  endfacet
  facet normal 0 0 -1
    outer loop
      vertex 53.0926 -10.3956 0
      vertex 135.457 -37.1572 0
      vertex 127 -43.3013 0
    endloop
  endfacet
  facet normal 0 0 -1
    outer loop
      vertex 53.0926 -10.3956 0
      vertex 127 -43.3013 0
      vertex 117.451 -47.5528 0
    endloop
  endfacet
  facet normal 0 0 -1
    outer loop
      vertex 53.0926 -10.3956 0
      vertex 117.451 -47.5528 0
      vertex 107.226 -49.7261 0
    endloop
  endfacet
  facet normal 0 0 -1
    outer loop
      vertex 53.0926 -10.3956 0
      vertex 107.226 -49.7261 0
      vertex 96.7736 -49.7261 0
    endloop
  endfacet
  facet normal 0 0 -1
    outer loop
      vertex 53.0926 -10.3956 0
      vertex 96.7736 -49.7261 0
      vertex 86.5491 -47.5528 0
    endloop
  endfacet
  facet normal 0 0 -1
    outer loop
      vertex 53.0926 -10.3956 0
      vertex 86.5491 -47.5528 0
      vertex 77 -43.3013 0
    endloop
  endfacet
  facet normal 0 0 -1
    outer loop
      vertex 53.0926 -10.3956 0
      vertex 77 -43.3013 0
      vertex 68.5435 -37.1572 0
    endloop
  endfacet
  facet normal 0 0 -1
    outer loop
      vertex 53.0926 -10.3956 0
      vertex 68.5435 -37.1572 0
      vertex 61.5492 -29.3893 0
    endloop
  endfacet
  facet normal 0 0 -1
    outer loop
      vertex 53.0926 -10.3956 0
      vertex 61.5492 -29.3893 0
      vertex 56.3227 -20.3368 0
    endloop
  endfacet
  facet normal 0 0 -1
    outer loop
      vertex 53.0926 -10.3956 0
      vertex 147.677 20.3368 0
      vertex 100.844 0.839693 0
    endloop
  endfacet
  facet normal 0 0 -1
    outer loop
      vertex 102.441 1.35865 0
      vertex 150.907 10.3956 0
      vertex 103.429 0 0
    endloop
  endfacet
  facet normal 0 0 -1
    outer loop
      vertex 53.0926 -10.3956 0
      vertex 100.844 -0.839693 0
      vertex 102.441 -1.35865 0
    endloop
  endfacet
  facet normal 0 0 -1
    outer loop
      vertex 53.0926 -10.3956 0
      vertex 102.441 -1.35865 0
      vertex 152 0 0
    endloop
  endfacet
  facet normal 0 0 -1
    outer loop
      vertex 103.429 0 0
      vertex 152 0 0
      vertex 102.441 -1.35865 0
    endloop
  endfacet
  facet normal 0 0 -1
    outer loop
      vertex 103.429 0 0
      vertex 150.907 10.3956 0
      vertex 152 0 0
    endloop
  endfacet
  facet normal 0 0 -1
    outer loop
      vertex 100.844 0.839693 0
      vertex 147.677 20.3368 0
      vertex 102.441 1.35865 0
    endloop
  endfacet
  facet normal 0 0 -1
    outer loop
      vertex 100.844 -0.839693 0
      vertex 53.0926 -10.3956 0
      vertex 100.844 0.839693 0
    endloop
  endfacet
  facet normal -0.994522 0.104528 0
    outer loop
      vertex 52 0 0
      vertex 52 0 3
      vertex 53.0926 10.3956 0
    endloop
  endfacet
  facet normal -0.994522 0.104528 0
    outer loop
      vertex 53.0926 10.3956 0
      vertex 52 0 3
      vertex 53.0926 10.3956 3
    endloop
  endfacet
  facet normal -0.994522 -0.104528 0
    outer loop
      vertex 52 0 0
      vertex 53.0926 -10.3956 0
      vertex 52 0 3
    endloop
  endfacet
  facet normal -0.994522 -0.104528 0
    outer loop
      vertex 52 0 3
      vertex 53.0926 -10.3956 0
      vertex 53.0926 -10.3956 3
    endloop
  endfacet
  facet normal -0.951057 -0.309017 0
    outer loop
      vertex 53.0926 -10.3956 0
      vertex 56.3227 -20.3368 0
      vertex 53.0926 -10.3956 3
    endloop
  endfacet
  facet normal -0.951057 -0.309017 0
    outer loop
      vertex 53.0926 -10.3956 3
      vertex 56.3227 -20.3368 0
      vertex 56.3227 -20.3368 3
    endloop
  endfacet
  facet normal -0.866025 -0.5 0
    outer loop
      vertex 56.3227 -20.3368 0
      vertex 61.5492 -29.3893 0
      vertex 56.3227 -20.3368 3
    endloop
  endfacet
  facet normal -0.866025 -0.5 0
    outer loop
      vertex 56.3227 -20.3368 3
      vertex 61.5492 -29.3893 0
      vertex 61.5492 -29.3893 3
    endloop
  endfacet
  facet normal -0.743145 -0.669131 0
    outer loop
      vertex 61.5492 -29.3893 0
      vertex 68.5435 -37.1572 0
      vertex 61.5492 -29.3893 3
    endloop
  endfacet
  facet normal -0.743145 -0.669131 0
    outer loop
      vertex 61.5492 -29.3893 3
      vertex 68.5435 -37.1572 0
      vertex 68.5435 -37.1572 3
    endloop
  endfacet
  facet normal -0.587785 -0.809017 0
    outer loop
      vertex 68.5435 -37.1572 3
      vertex 68.5435 -37.1572 0
      vertex 77 -43.3013 0
    endloop
  endfacet
  facet normal -0.587785 -0.809017 0
    outer loop
      vertex 77 -43.3013 3
      vertex 68.5435 -37.1572 3
      vertex 77 -43.3013 0
    endloop
  endfacet
  facet normal -0.406737 -0.913545 0
    outer loop
      vertex 77 -43.3013 3
      vertex 77 -43.3013 0
      vertex 86.5491 -47.5528 0
    endloop
  endfacet
  facet normal -0.406737 -0.913545 0
    outer loop
      vertex 86.5491 -47.5528 3
      vertex 77 -43.3013 3
      vertex 86.5491 -47.5528 0
    endloop
  endfacet
  facet normal -0.207912 -0.978148 0
    outer loop
      vertex 86.5491 -47.5528 3
      vertex 86.5491 -47.5528 0
      vertex 96.7736 -49.7261 0
    endloop
  endfacet
  facet normal -0.207912 -0.978148 0
    outer loop
      vertex 96.7736 -49.7261 3
      vertex 86.5491 -47.5528 3
      vertex 96.7736 -49.7261 0
    endloop
  endfacet
  facet normal 0 -1 0
    outer loop
      vertex 96.7736 -49.7261 3
      vertex 96.7736 -49.7261 0
      vertex 107.226 -49.7261 0
    endloop
  endfacet
  facet normal 0 -1 0
    outer loop
      vertex 107.226 -49.7261 3
      vertex 96.7736 -49.7261 3
      vertex 107.226 -49.7261 0
    endloop
  endfacet
  facet normal 0.207912 -0.978148 0
    outer loop
      vertex 107.226 -49.7261 3
      vertex 107.226 -49.7261 0
      vertex 117.451 -47.5528 0
    endloop
  endfacet
  facet normal 0.207912 -0.978148 0
    outer loop
      vertex 117.451 -47.5528 3
      vertex 107.226 -49.7261 3
      vertex 117.451 -47.5528 0
    endloop
  endfacet
  facet normal 0.406737 -0.913545 0
    outer loop
      vertex 117.451 -47.5528 3
      vertex 117.451 -47.5528 0
      vertex 127 -43.3013 0
    endloop
  endfacet
  facet normal 0.406737 -0.913545 0
    outer loop
      vertex 127 -43.3013 3
      vertex 117.451 -47.5528 3
      vertex 127 -43.3013 0
    endloop
  endfacet
  facet normal 0.587785 -0.809017 0
    outer loop
      vertex 127 -43.3013 3
      vertex 127 -43.3013 0
      vertex 135.457 -37.1572 0
    endloop
  endfacet
  facet normal 0.587785 -0.809017 0
    outer loop
      vertex 135.457 -37.1572 3
      vertex 127 -43.3013 3
      vertex 135.457 -37.1572 0
    endloop
  endfacet
  facet normal 0.743145 -0.669131 0
    outer loop
      vertex 135.457 -37.1572 3
      vertex 135.457 -37.1572 0
      vertex 142.451 -29.3893 0
    endloop
  endfacet
  facet normal 0.743145 -0.669131 0
    outer loop
      vertex 142.451 -29.3893 3
      vertex 135.457 -37.1572 3
      vertex 142.451 -29.3893 0
    endloop
  endfacet
  facet normal 0.866025 -0.5 0
    outer loop
      vertex 142.451 -29.3893 3
      vertex 142.451 -29.3893 0
      vertex 147.677 -20.3368 0
    endloop
  endfacet
  facet normal 0.866025 -0.5 0
    outer loop
      vertex 147.677 -20.3368 3
      vertex 142.451 -29.3893 3
      vertex 147.677 -20.3368 0
    endloop
  endfacet
  facet normal 0.951057 -0.309017 0
    outer loop
      vertex 147.677 -20.3368 3
      vertex 147.677 -20.3368 0
      vertex 150.907 -10.3956 0
    endloop
  endfacet
  facet normal 0.951057 -0.309017 0
    outer loop
      vertex 150.907 -10.3956 3
      vertex 147.677 -20.3368 3
      vertex 150.907 -10.3956 0
    endloop
  endfacet
  facet normal 0.994522 -0.104528 0
    outer loop
      vertex 150.907 -10.3956 3
      vertex 150.907 -10.3956 0
      vertex 152 0 0
    endloop
  endfacet
  facet normal 0.994522 -0.104528 0
    outer loop
      vertex 152 0 3
      vertex 150.907 -10.3956 3
      vertex 152 0 0
    endloop
  endfacet
  facet normal 0.994522 0.104528 0
    outer loop
      vertex 152 0 0
      vertex 150.907 10.3956 0
      vertex 150.907 10.3956 3
    endloop
  endfacet
  facet normal 0.994522 0.104528 0
    outer loop
      vertex 152 0 3
      vertex 152 0 0
      vertex 150.907 10.3956 3
    endloop
  endfacet
  facet normal 0.951057 0.309017 0
    outer loop
      vertex 150.907 10.3956 0
      vertex 147.677 20.3368 0
      vertex 147.677 20.3368 3
    endloop
  endfacet
  facet normal 0.951057 0.309017 0
    outer loop
      vertex 150.907 10.3956 3
      vertex 150.907 10.3956 0
      vertex 147.677 20.3368 3
    endloop
  endfacet
  facet normal 0.866025 0.5 0
    outer loop
      vertex 147.677 20.3368 0
      vertex 142.451 29.3893 0
      vertex 142.451 29.3893 3
    endloop
  endfacet
  facet normal 0.866025 0.5 0
    outer loop
      vertex 147.677 20.3368 3
      vertex 147.677 20.3368 0
      vertex 142.451 29.3893 3
    endloop
  endfacet
  facet normal 0.743145 0.669131 0
    outer loop
      vertex 142.451 29.3893 0
      vertex 135.457 37.1572 0
      vertex 135.457 37.1572 3
    endloop
  endfacet
  facet normal 0.743145 0.669131 0
    outer loop
      vertex 142.451 29.3893 3
      vertex 142.451 29.3893 0
      vertex 135.457 37.1572 3
    endloop
  endfacet
  facet normal 0.587785 0.809017 0
    outer loop
      vertex 127 43.3013 0
      vertex 127 43.3013 3
      vertex 135.457 37.1572 0
    endloop
  endfacet
  facet normal 0.587785 0.809017 0
    outer loop
      vertex 135.457 37.1572 0
      vertex 127 43.3013 3
      vertex 135.457 37.1572 3
    endloop
  endfacet
  facet normal 0.406737 0.913545 0
    outer loop
      vertex 117.451 47.5528 0
      vertex 117.451 47.5528 3
      vertex 127 43.3013 0
    endloop
  endfacet
  facet normal 0.406737 0.913545 0
    outer loop
      vertex 127 43.3013 0
      vertex 117.451 47.5528 3
      vertex 127 43.3013 3
    endloop
  endfacet
  facet normal 0.207912 0.978148 0
    outer loop
      vertex 107.226 49.7261 0
      vertex 107.226 49.7261 3
      vertex 117.451 47.5528 0
    endloop
  endfacet
  facet normal 0.207912 0.978148 0
    outer loop
      vertex 117.451 47.5528 0
      vertex 107.226 49.7261 3
      vertex 117.451 47.5528 3
    endloop
  endfacet
  facet normal 0 1 0
    outer loop
      vertex 96.7736 49.7261 0
      vertex 96.7736 49.7261 3
      vertex 107.226 49.7261 0
    endloop
  endfacet
  facet normal 0 1 0
    outer loop
      vertex 107.226 49.7261 0
      vertex 96.7736 49.7261 3
      vertex 107.226 49.7261 3
    endloop
  endfacet
  facet normal -0.207912 0.978148 0
    outer loop
      vertex 86.5491 47.5528 0
      vertex 86.5491 47.5528 3
      vertex 96.7736 49.7261 0
    endloop
  endfacet
  facet normal -0.207912 0.978148 0
    outer loop
      vertex 96.7736 49.7261 0
      vertex 86.5491 47.5528 3
      vertex 96.7736 49.7261 3
    endloop
  endfacet
  facet normal -0.406737 0.913545 0
    outer loop
      vertex 77 43.3013 0
      vertex 77 43.3013 3
      vertex 86.5491 47.5528 0
    endloop
  endfacet
  facet normal -0.406737 0.913545 0
    outer loop
      vertex 86.5491 47.5528 0
      vertex 77 43.3013 3
      vertex 86.5491 47.5528 3
    endloop
  endfacet
  facet normal -0.587785 0.809017 0
    outer loop
      vertex 68.5435 37.1572 0
      vertex 68.5435 37.1572 3
      vertex 77 43.3013 0
    endloop
  endfacet
  facet normal -0.587785 0.809017 0
    outer loop
      vertex 77 43.3013 0
      vertex 68.5435 37.1572 3
      vertex 77 43.3013 3
    endloop
  endfacet
  facet normal -0.743145 0.669131 0
    outer loop
      vertex 61.5492 29.3893 0
      vertex 61.5492 29.3893 3
      vertex 68.5435 37.1572 0
    endloop
  endfacet
  facet normal -0.743145 0.669131 0
    outer loop
      vertex 68.5435 37.1572 0
      vertex 61.5492 29.3893 3
      vertex 68.5435 37.1572 3
    endloop
  endfacet
  facet normal -0.866025 0.5 0
    outer loop
      vertex 56.3227 20.3368 0
      vertex 56.3227 20.3368 3
      vertex 61.5492 29.3893 0
    endloop
  endfacet
  facet normal -0.866025 0.5 0
    outer loop
      vertex 61.5492 29.3893 0
      vertex 56.3227 20.3368 3
      vertex 61.5492 29.3893 3
    endloop
  endfacet
  facet normal -0.951057 0.309017 0
    outer loop
      vertex 53.0926 10.3956 0
      vertex 53.0926 10.3956 3
      vertex 56.3227 20.3368 0
    endloop
  endfacet
  facet normal -0.951057 0.309017 0
    outer loop
      vertex 56.3227 20.3368 0
      vertex 53.0926 10.3956 3
      vertex 56.3227 20.3368 3
    endloop
  endfacet
  facet normal 0.309017 -0.951057 0
    outer loop
      vertex 102.441 1.35865 0
      vertex 102.441 1.35865 3
      vertex 100.844 0.839693 3
    endloop
  endfacet
  facet normal 0.309017 -0.951057 0
    outer loop
      vertex 100.844 0.839693 0
      vertex 102.441 1.35865 0
      vertex 100.844 0.839693 3
    endloop
  endfacet
  facet normal 1 0 0
    outer loop
      vertex 100.844 0.839693 0
      vertex 100.844 0.839693 3
      vertex 100.844 -0.839693 3
    endloop
  endfacet
  facet normal 1 0 0
    outer loop
      vertex 100.844 -0.839693 0
      vertex 100.844 0.839693 0
      vertex 100.844 -0.839693 3
    endloop
  endfacet
  facet normal -0.809017 -0.587785 0
    outer loop
      vertex 103.429 0 3
      vertex 102.441 1.35865 3
      vertex 103.429 0 0
    endloop
  endfacet
  facet normal -0.809017 -0.587785 0
    outer loop
      vertex 103.429 0 0
      vertex 102.441 1.35865 3
      vertex 102.441 1.35865 0
    endloop
  endfacet
  facet normal -0.809017 0.587785 0
    outer loop
      vertex 103.429 0 3
      vertex 103.429 0 0
      vertex 102.441 -1.35865 3
    endloop
  endfacet
  facet normal -0.809017 0.587785 0
    outer loop
      vertex 102.441 -1.35865 3
      vertex 103.429 0 0
      vertex 102.441 -1.35865 0
    endloop
  endfacet
  facet normal 0.309017 0.951057 0
    outer loop
      vertex 102.441 -1.35865 3
      vertex 102.441 -1.35865 0
      vertex 100.844 -0.839693 3
    endloop
  endfacet
  facet normal 0.309017 0.951057 0
    outer loop
      vertex 100.844 -0.839693 3
      vertex 102.441 -1.35865 0
      vertex 100.844 -0.839693 0
    endloop
  endfacet
  facet normal 0 0 1
    outer loop
      vertex 53.0926 10.3956 3
      vertex 52 0 3
      vertex 53.0926 -10.3956 3
    endloop
  endfacet
  facet normal 0 0 1
    outer loop
      vertex 61.5492 -29.3893 3
      vertex 53.0926 10.3956 3
      vertex 56.3227 -20.3368 3
    endloop
  endfacet
  facet normal 0 0 1
    outer loop
      vertex 56.3227 -20.3368 3
      vertex 53.0926 10.3956 3
      vertex 53.0926 -10.3956 3
    endloop
  endfacet
  facet normal 0 0 1
    outer loop
      vertex 68.5435 -37.1572 3
      vertex 53.0926 10.3956 3
      vertex 61.5492 -29.3893 3
    endloop
  endfacet
  facet normal 0 0 1
    outer loop
      vertex 77 -43.3013 3
      vertex 53.0926 10.3956 3
      vertex 68.5435 -37.1572 3
    endloop
  endfacet
  facet normal 0 0 1
    outer loop
      vertex 86.5491 -47.5528 3
      vertex 53.0926 10.3956 3
      vertex 77 -43.3013 3
    endloop
  endfacet
  facet normal 0 0 1
    outer loop
      vertex 96.7736 -49.7261 3
      vertex 53.0926 10.3956 3
      vertex 86.5491 -47.5528 3
    endloop
  endfacet
  facet normal 0 0 1
    outer loop
      vertex 107.226 -49.7261 3
      vertex 53.0926 10.3956 3
      vertex 96.7736 -49.7261 3
    endloop
  endfacet
  facet normal 0 0 1
    outer loop
      vertex 117.451 -47.5528 3
      vertex 53.0926 10.3956 3
      vertex 107.226 -49.7261 3
    endloop
  endfacet
  facet normal 0 0 1
    outer loop
      vertex 127 -43.3013 3
      vertex 53.0926 10.3956 3
      vertex 117.451 -47.5528 3
    endloop
  endfacet
  facet normal 0 0 1
    outer loop
      vertex 135.457 -37.1572 3
      vertex 53.0926 10.3956 3
      vertex 127 -43.3013 3
    endloop
  endfacet
  facet normal 0 0 1
    outer loop
      vertex 142.451 -29.3893 3
      vertex 53.0926 10.3956 3
      vertex 135.457 -37.1572 3
    endloop
  endfacet
  facet normal 0 0 1
    outer loop
      vertex 147.677 -20.3368 3
      vertex 53.0926 10.3956 3
      vertex 142.451 -29.3893 3
    endloop
  endfacet
  facet normal 0 0 1
    outer loop
      vertex 100.844 -0.839693 3
      vertex 53.0926 10.3956 3
      vertex 147.677 -20.3368 3
    endloop
  endfacet
  facet normal 0 0 1
    outer loop
      vertex 102.441 1.35865 3
      vertex 150.907 -10.3956 3
      vertex 152 0 3
    endloop
  endfacet
  facet normal 0 0 1
    outer loop
      vertex 150.907 10.3956 3
      vertex 53.0926 10.3956 3
      vertex 152 0 3
    endloop
  endfacet
  facet normal 0 0 1
    outer loop
      vertex 147.677 20.3368 3
      vertex 53.0926 10.3956 3
      vertex 150.907 10.3956 3
    endloop
  endfacet
  facet normal 0 0 1
    outer loop
      vertex 142.451 29.3893 3
      vertex 53.0926 10.3956 3
      vertex 147.677 20.3368 3
    endloop
  endfacet
  facet normal 0 0 1
    outer loop
      vertex 135.457 37.1572 3
      vertex 53.0926 10.3956 3
      vertex 142.451 29.3893 3
    endloop
  endfacet
  facet normal 0 0 1
    outer loop
      vertex 127 43.3013 3
      vertex 53.0926 10.3956 3
      vertex 135.457 37.1572 3
    endloop
  endfacet
  facet normal 0 0 1
    outer loop
      vertex 117.451 47.5528 3
      vertex 53.0926 10.3956 3
      vertex 127 43.3013 3
    endloop
  endfacet
  facet normal 0 0 1
    outer loop
      vertex 107.226 49.7261 3
      vertex 53.0926 10.3956 3
      vertex 117.451 47.5528 3
    endloop
  endfacet
  facet normal 0 0 1
    outer loop
      vertex 96.7736 49.7261 3
      vertex 53.0926 10.3956 3
      vertex 107.226 49.7261 3
    endloop
  endfacet
  facet normal 0 0 1
    outer loop
      vertex 86.5491 47.5528 3
      vertex 53.0926 10.3956 3
      vertex 96.7736 49.7261 3
    endloop
  endfacet
  facet normal 0 0 1
    outer loop
      vertex 77 43.3013 3
      vertex 53.0926 10.3956 3
      vertex 86.5491 47.5528 3
    endloop
  endfacet
  facet normal 0 0 1
    outer loop
      vertex 68.5435 37.1572 3
      vertex 53.0926 10.3956 3
      vertex 77 43.3013 3
    endloop
  endfacet
  facet normal 0 0 1
    outer loop
      vertex 61.5492 29.3893 3
      vertex 53.0926 10.3956 3
      vertex 68.5435 37.1572 3
    endloop
  endfacet
  facet normal 0 0 1
    outer loop
      vertex 56.3227 20.3368 3
      vertex 53.0926 10.3956 3
      vertex 61.5492 29.3893 3
    endloop
  endfacet
  facet normal 0 0 1
    outer loop
      vertex 102.441 -1.35865 3
      vertex 100.844 -0.839693 3
      vertex 147.677 -20.3368 3
    endloop
  endfacet
  facet normal 0 0 1
    outer loop
      vertex 102.441 1.35865 3
      vertex 103.429 0 3
      vertex 150.907 -10.3956 3
    endloop
  endfacet
  facet normal 0 0 1
    outer loop
      vertex 103.429 0 3
      vertex 102.441 -1.35865 3
      vertex 150.907 -10.3956 3
    endloop
  endfacet
  facet normal 0 0 1
    outer loop
      vertex 102.441 1.35865 3
      vertex 53.0926 10.3956 3
      vertex 100.844 0.839693 3
    endloop
  endfacet
  facet normal 0 0 1
    outer loop
      vertex 152 0 3
      vertex 53.0926 10.3956 3
      vertex 102.441 1.35865 3
    endloop
  endfacet
  facet normal 0 0 1
    outer loop
      vertex 150.907 -10.3956 3
      vertex 102.441 -1.35865 3
      vertex 147.677 -20.3368 3
    endloop
  endfacet
  facet normal 0 0 1
    outer loop
      vertex 100.844 -0.839693 3
      vertex 100.844 0.839693 3
      vertex 53.0926 10.3956 3
    endloop
  endfacet
  facet normal 0 0 -1
    outer loop
      vertex -50 0 0
      vertex -48.9074 10.3956 0
      vertex -48.9074 -10.3956 0
    endloop
  endfacet
  facet normal 0 0 -1
    outer loop
      vertex -48.9074 -10.3956 0
      vertex -48.9074 10.3956 0
      vertex -45.6773 20.3368 0
    endloop
  endfacet
  facet normal 0 0 -1
    outer loop
      vertex -48.9074 -10.3956 0
      vertex -45.6773 20.3368 0
      vertex -40.4508 29.3893 0
    endloop
  endfacet
  facet normal 0 0 -1
    outer loop
      vertex -48.9074 -10.3956 0
      vertex -40.4508 29.3893 0
      vertex -33.4565 37.1572 0
    endloop
  endfacet
  facet normal 0 0 -1
    outer loop
      vertex -48.9074 -10.3956 0
      vertex -33.4565 37.1572 0
      vertex -25 43.3013 0
    endloop
  endfacet
  facet normal 0 0 -1
    outer loop
      vertex -48.9074 -10.3956 0
      vertex -25 43.3013 0
      vertex -15.4508 47.5528 0
    endloop
  endfacet
  facet normal 0 0 -1
    outer loop
      vertex -48.9074 -10.3956 0
      vertex -15.4508 47.5528 0
      vertex -5.22642 49.7261 0
    endloop
  endfacet
  facet normal 0 0 -1
    outer loop
      vertex -48.9074 -10.3956 0
      vertex -5.22642 49.7261 0
      vertex 5.22642 49.7261 0
    endloop
  endfacet
  facet normal 0 0 -1
    outer loop
      vertex -48.9074 -10.3956 0
      vertex 5.22642 49.7261 0
      vertex 15.4508 47.5528 0
    endloop
  endfacet
  facet normal 0 0 -1
    outer loop
      vertex -48.9074 -10.3956 0
      vertex 15.4508 47.5528 0
      vertex 25 43.3013 0
    endloop
  endfacet
  facet normal 0 0 -1
    outer loop
      vertex -48.9074 -10.3956 0
      vertex 25 43.3013 0
      vertex 33.4565 37.1572 0
    endloop
  endfacet
  facet normal 0 0 -1
    outer loop
      vertex -48.9074 -10.3956 0
      vertex 33.4565 37.1572 0
      vertex 40.4508 29.3893 0
    endloop
  endfacet
  facet normal 0 0 -1
    outer loop
      vertex -48.9074 -10.3956 0
      vertex 40.4508 29.3893 0
      vertex 45.6773 20.3368 0
    endloop
  endfacet
  facet normal 0 0 -1
    outer loop
      vertex 0.441453 1.35865 0
      vertex 45.6773 20.3368 0
      vertex 48.9074 10.3956 0
    endloop
  endfacet
  facet normal 0 0 -1
    outer loop
      vertex -48.9074 -10.3956 0
      vertex 50 0 0
      vertex 48.9074 -10.3956 0
    endloop
  endfacet
  facet normal 0 0 -1
    outer loop
      vertex -48.9074 -10.3956 0
      vertex 48.9074 -10.3956 0
      vertex 45.6773 -20.3368 0
    endloop
  endfacet
  facet normal 0 0 -1
    outer loop
      vertex -48.9074 -10.3956 0
      vertex 45.6773 -20.3368 0
      vertex 40.4508 -29.3893 0
    endloop
  endfacet
  facet normal 0 0 -1
    outer loop
      vertex -48.9074 -10.3956 0
      vertex 40.4508 -29.3893 0
      vertex 33.4565 -37.1572 0
    endloop
  endfacet
  facet normal 0 0 -1
    outer loop
      vertex -48.9074 -10.3956 0
      vertex 33.4565 -37.1572 0
      vertex 25 -43.3013 0
    endloop
  endfacet
  facet normal 0 0 -1
    outer loop
      vertex -48.9074 -10.3956 0
      vertex 25 -43.3013 0
      vertex 15.4508 -47.5528 0
    endloop
  endfacet
  facet normal 0 0 -1
    outer loop
      vertex -48.9074 -10.3956 0
      vertex 15.4508 -47.5528 0
      vertex 5.22642 -49.7261 0
    endloop
  endfacet
  facet normal 0 0 -1
    outer loop
      vertex -48.9074 -10.3956 0
      vertex 5.22642 -49.7261 0
      vertex -5.22642 -49.7261 0
    endloop
  endfacet
  facet normal 0 0 -1
    outer loop
      vertex -48.9074 -10.3956 0
      vertex -5.22642 -49.7261 0
      vertex -15.4508 -47.5528 0
    endloop
  endfacet
  facet normal 0 0 -1
    outer loop
      vertex -48.9074 -10.3956 0
      vertex -15.4508 -47.5528 0
      vertex -25 -43.3013 0
    endloop
  endfacet
  facet normal 0 0 -1
    outer loop
      vertex -48.9074 -10.3956 0
      vertex -25 -43.3013 0
      vertex -33.4565 -37.1572 0
    endloop
  endfacet
  facet normal 0 0 -1
    outer loop
      vertex -48.9074 -10.3956 0
      vertex -33.4565 -37.1572 0
      vertex -40.4508 -29.3893 0
    endloop
  endfacet
  facet normal 0 0 -1
    outer loop
      vertex -48.9074 -10.3956 0
      vertex -40.4508 -29.3893 0
      vertex -45.6773 -20.3368 0
    endloop
  endfacet
  facet normal 0 0 -1
    outer loop
      vertex -48.9074 -10.3956 0
      vertex 45.6773 20.3368 0
      vertex -1.15574 0.839693 0
    endloop
  endfacet
  facet normal 0 0 -1
    outer loop
      vertex 0.441453 1.35865 0
      vertex 48.9074 10.3956 0
      vertex 1.42857 0 0
    endloop
  endfacet
  facet normal 0 0 -1
    outer loop
      vertex -48.9074 -10.3956 0
      vertex -1.15574 -0.839693 0
      vertex 0.441453 -1.35865 0
    endloop
  endfacet
  facet normal 0 0 -1
    outer loop
      vertex -48.9074 -10.3956 0
      vertex 0.441453 -1.35865 0
      vertex 50 0 0
    endloop
  endfacet
  facet normal 0 0 -1
    outer loop
      vertex 1.42857 0 0
      vertex 50 0 0
      vertex 0.441453 -1.35865 0
    endloop
  endfacet
  facet normal 0 0 -1
    outer loop
      vertex 1.42857 0 0
      vertex 48.9074 10.3956 0
      vertex 50 0 0
    endloop
  endfacet
  facet normal 0 0 -1
    outer loop
      vertex -1.15574 0.839693 0
      vertex 45.6773 20.3368 0
      vertex 0.441453 1.35865 0
    endloop
  endfacet
  facet normal 0 0 -1
    outer loop
      vertex -1.15574 -0.839693 0
      vertex -48.9074 -10.3956 0
      vertex -1.15574 0.839693 0
    endloop
  endfacet
  facet normal -0.994522 0.104528 0
    outer loop
      vertex -50 0 0
      vertex -50 0 3
      vertex -48.9074 10.3956 0
    endloop
  endfacet
  facet normal -0.994522 0.104528 0
    outer loop
      vertex -48.9074 10.3956 0
      vertex -50 0 3
      vertex -48.9074 10.3956 3
    endloop
  endfacet
  facet normal -0.994522 -0.104528 0
    outer loop
      vertex -50 0 0
      vertex -48.9074 -10.3956 0
      vertex -50 0 3
    endloop
  endfacet
  facet normal -0.994522 -0.104528 0
    outer loop
      vertex -50 0 3
      vertex -48.9074 -10.3956 0
      vertex -48.9074 -10.3956 3
    endloop
  endfacet
  facet normal -0.951057 -0.309017 0
    outer loop
      vertex -48.9074 -10.3956 0
      vertex -45.6773 -20.3368 0
      vertex -48.9074 -10.3956 3
    endloop
  endfacet
  facet normal -0.951057 -0.309017 0
    outer loop
      vertex -48.9074 -10.3956 3
      vertex -45.6773 -20.3368 0
      vertex -45.6773 -20.3368 3
    endloop
  endfacet
  facet normal -0.866025 -0.5 0
    outer loop
      vertex -45.6773 -20.3368 0
      vertex -40.4508 -29.3893 0
      vertex -45.6773 -20.3368 3
    endloop
  endfacet
  facet normal -0.866025 -0.5 0
    outer loop
      vertex -45.6773 -20.3368 3
      vertex -40.4508 -29.3893 0
      vertex -40.4508 -29.3893 3
    endloop
  endfacet
  facet normal -0.743145 -0.669131 0
    outer loop
      vertex -40.4508 -29.3893 0
      vertex -33.4565 -37.1572 0
      vertex -40.4508 -29.3893 3
    endloop
  endfacet
  facet normal -0.743145 -0.669131 0
    outer loop
      vertex -40.4508 -29.3893 3
      vertex -33.4565 -37.1572 0
      vertex -33.4565 -37.1572 3
    endloop
  endfacet
  facet normal -0.587785 -0.809017 0
    outer loop
      vertex -33.4565 -37.1572 3
      vertex -33.4565 -37.1572 0
      vertex -25 -43.3013 0
    endloop
  endfacet
  facet normal -0.587785 -0.809017 0
    outer loop
      vertex -25 -43.3013 3
      vertex -33.4565 -37.1572 3
      vertex -25 -43.3013 0
    endloop
  endfacet
  facet normal -0.406737 -0.913545 0
    outer loop
      vertex -25 -43.3013 3
      vertex -25 -43.3013 0
      vertex -15.4508 -47.5528 0
    endloop
  endfacet
  facet normal -0.406737 -0.913545 0
    outer loop
      vertex -15.4508 -47.5528 3
      vertex -25 -43.3013 3
      vertex -15.4508 -47.5528 0
    endloop
  endfacet
  facet normal -0.207912 -0.978148 0
    outer loop
      vertex -15.4508 -47.5528 3
      vertex -15.4508 -47.5528 0
      vertex -5.22642 -49.7261 0
    endloop
  endfacet
  facet normal -0.207912 -0.978148 0
    outer loop
      vertex -5.22642 -49.7261 3
      vertex -15.4508 -47.5528 3
      vertex -5.22642 -49.7261 0
    endloop
  endfacet
  facet normal 0 -1 0
    outer loop
      vertex -5.22642 -49.7261 3
      vertex -5.22642 -49.7261 0
      vertex 5.22642 -49.7261 0
    endloop
  endfacet
  facet normal 0 -1 0
    outer loop
      vertex 5.22642 -49.7261 3
      vertex -5.22642 -49.7261 3
      vertex 5.22642 -49.7261 0
    endloop
  endfacet
  facet normal 0.207912 -0.978148 0
    outer loop
      vertex 5.22642 -49.7261 3
      vertex 5.22642 -49.7261 0
      vertex 15.4508 -47.5528 0
    endloop
  endfacet
  facet normal 0.207912 -0.978148 0
    outer loop
      vertex 15.4508 -47.5528 3
      vertex 5.22642 -49.7261 3
      vertex 15.4508 -47.5528 0
    endloop
  endfacet
  facet normal 0.406737 -0.913545 0
    outer loop
      vertex 15.4508 -47.5528 3
      vertex 15.4508 -47.5528 0
      vertex 25 -43.3013 0
    endloop
  endfacet
  facet normal 0.406737 -0.913545 0
    outer loop
      vertex 25 -43.3013 3
      vertex 15.4508 -47.5528 3
      vertex 25 -43.3013 0
    endloop
  endfacet
  facet normal 0.587785 -0.809017 0
    outer loop
      vertex 25 -43.3013 3
      vertex 25 -43.3013 0
      vertex 33.4565 -37.1572 0
    endloop
  endfacet
  facet normal 0.587785 -0.809017 0
    outer loop
      vertex 33.4565 -37.1572 3
      vertex 25 -43.3013 3
      vertex 33.4565 -37.1572 0
    endloop
  endfacet
  facet normal 0.743145 -0.669131 0
    outer loop
      vertex 33.4565 -37.1572 3
      vertex 33.4565 -37.1572 0
      vertex 40.4508 -29.3893 0
    endloop
  endfacet
  facet normal 0.743145 -0.669131 0
    outer loop
      vertex 40.4508 -29.3893 3
      vertex 33.4565 -37.1572 3
      vertex 40.4508 -29.3893 0
    endloop
  endfacet
  facet normal 0.866025 -0.5 0
    outer loop
      vertex 40.4508 -29.3893 3
      vertex 40.4508 -29.3893 0
      vertex 45.6773 -20.3368 0
    endloop
  endfacet
  facet normal 0.866025 -0.5 0
    outer loop
      vertex 45.6773 -20.3368 3
      vertex 40.4508 -29.3893 3
      vertex 45.6773 -20.3368 0
    endloop
  endfacet
  facet normal 0.951057 -0.309017 0
    outer loop
      vertex 45.6773 -20.3368 3
      vertex 45.6773 -20.3368 0
      vertex 48.9074 -10.3956 0
    endloop
  endfacet
  facet normal 0.951057 -0.309017 0
    outer loop
      vertex 48.9074 -10.3956 3
      vertex 45.6773 -20.3368 3
      vertex 48.9074 -10.3956 0
    endloop
  endfacet
  facet normal 0.994522 -0.104528 0
    outer loop
      vertex 48.9074 -10.3956 3
      vertex 48.9074 -10.3956 0
      vertex 50 0 0
    endloop
  endfacet
  facet normal 0.994522 -0.104528 0
    outer loop
      vertex 50 0 3
      vertex 48.9074 -10.3956 3
      vertex 50 0 0
    endloop
  endfacet
  facet normal 0.994522 0.104528 0
    outer loop
      vertex 50 0 0
      vertex 48.9074 10.3956 0
      vertex 48.9074 10.3956 3
    endloop
  endfacet
  facet normal 0.994522 0.104528 0
    outer loop
      vertex 50 0 3
      vertex 50 0 0
      vertex 48.9074 10.3956 3
    endloop
  endfacet
  facet normal 0.951057 0.309017 0
    outer loop
      vertex 48.9074 10.3956 0
      vertex 45.6773 20.3368 0
      vertex 45.6773 20.3368 3
    endloop
  endfacet
  facet normal 0.951057 0.309017 0
    outer loop
      vertex 48.9074 10.3956 3
      vertex 48.9074 10.3956 0
      vertex 45.6773 20.3368 3
    endloop
  endfacet
  facet normal 0.866025 0.5 0
    outer loop
      vertex 45.6773 20.3368 0
      vertex 40.4508 29.3893 0
      vertex 40.4508 29.3893 3
    endloop
  endfacet
  facet normal 0.866025 0.5 0
    outer loop
      vertex 45.6773 20.3368 3
      vertex 45.6773 20.3368 0
      vertex 40.4508 29.3893 3
    endloop
  endfacet
  facet normal 0.743145 0.669131 0
    outer loop
      vertex 40.4508 29.3893 0
      vertex 33.4565 37.1572 0
      vertex 33.4565 37.1572 3
    endloop
  endfacet
  facet normal 0.743145 0.669131 0
    outer loop
      vertex 40.4508 29.3893 3
      vertex 40.4508 29.3893 0
      vertex 33.4565 37.1572 3
    endloop
  endfacet
  facet normal 0.587785 0.809017 0
    outer loop
      vertex 25 43.3013 0
      vertex 25 43.3013 3
      vertex 33.4565 37.1572 0
    endloop
  endfacet
  facet normal 0.587785 0.809017 0
    outer loop
      vertex 33.4565 37.1572 0
      vertex 25 43.3013 3
      vertex 33.4565 37.1572 3
    endloop
  endfacet
  facet normal 0.406737 0.913545 0
    outer loop
      vertex 15.4508 47.5528 0
      vertex 15.4508 47.5528 3
      vertex 25 43.3013 0
    endloop
  endfacet
  facet normal 0.406737 0.913545 0
    outer loop
      vertex 25 43.3013 0
      vertex 15.4508 47.5528 3
      vertex 25 43.3013 3
    endloop
  endfacet
  facet normal 0.207912 0.978148 0
    outer loop
      vertex 5.22642 49.7261 0
      vertex 5.22642 49.7261 3
      vertex 15.4508 47.5528 0
    endloop
  endfacet
  facet normal 0.207912 0.978148 0
    outer loop
      vertex 15.4508 47.5528 0
      vertex 5.22642 49.7261 3
      vertex 15.4508 47.5528 3
    endloop
  endfacet
  facet normal 0 1 0
    outer loop
      vertex -5.22642 49.7261 0
      vertex -5.22642 49.7261 3
      vertex 5.22642 49.7261 0
    endloop
  endfacet
  facet normal 0 1 0
    outer loop
      vertex 5.22642 49.7261 0
      vertex -5.22642 49.7261 3
      vertex 5.22642 49.7261 3
    endloop
  endfacet
  facet normal -0.207912 0.978148 0
    outer loop
      vertex -15.4508 47.5528 0
      vertex -15.4508 47.5528 3
      vertex -5.22642 49.7261 0
    endloop
  endfacet
  facet normal -0.207912 0.978148 0
    outer loop
      vertex -5.22642 49.7261 0
      vertex -15.4508 47.5528 3
      vertex -5.22642 49.7261 3
    endloop
  endfacet
  facet normal -0.406737 0.913545 0
    outer loop
      vertex -25 43.3013 0
      vertex -25 43.3013 3
      vertex -15.4508 47.5528 0
    endloop
  endfacet
  facet normal -0.406737 0.913545 0
    outer loop
      vertex -15.4508 47.5528 0
      vertex -25 43.3013 3
      vertex -15.4508 47.5528 3
    endloop
  endfacet
  facet normal -0.587785 0.809017 0
    outer loop
      vertex -33.4565 37.1572 0
      vertex -33.4565 37.1572 3
      vertex -25 43.3013 0
    endloop
  endfacet
  facet normal -0.587785 0.809017 0
    outer loop
      vertex -25 43.3013 0
      vertex -33.4565 37.1572 3
      vertex -25 43.3013 3
    endloop
  endfacet
  facet normal -0.743145 0.669131 0
    outer loop
      vertex -40.4508 29.3893 0
      vertex -40.4508 29.3893 3
      vertex -33.4565 37.1572 0
    endloop
  endfacet
  facet normal -0.743145 0.669131 0
    outer loop
      vertex -33.4565 37.1572 0
      vertex -40.4508 29.3893 3
      vertex -33.4565 37.1572 3
    endloop
  endfacet
  facet normal -0.866025 0.5 0
    outer loop
      vertex -45.6773 20.3368 0
      vertex -45.6773 20.3368 3
      vertex -40.4508 29.3893 0
    endloop
  endfacet
  facet normal -0.866025 0.5 0
    outer loop
      vertex -40.4508 29.3893 0
      vertex -45.6773 20.3368 3
      vertex -40.4508 29.3893 3
    endloop
  endfacet
  facet normal -0.951057 0.309017 0
    outer loop
      vertex -48.9074 10.3956 0
      vertex -48.9074 10.3956 3
      vertex -45.6773 20.3368 0
    endloop
  endfacet
  facet normal -0.951057 0.309017 0
    outer loop
      vertex -45.6773 20.3368 0
      vertex -48.9074 10.3956 3
      vertex -45.6773 20.3368 3
    endloop
  endfacet
  facet normal 0.309017 -0.951057 0
    outer loop
      vertex 0.441453 1.35865 0
      vertex 0.441453 1.35865 18
      vertex -1.15574 0.839693 18
    endloop
  endfacet
  facet normal 0.309017 -0.951057 0
    outer loop
      vertex -1.15574 0.839693 0
      vertex 0.441453 1.35865 0
      vertex -1.15574 0.839693 18
    endloop
  endfacet
  facet normal 1 0 0
    outer loop
      vertex -1.15574 0.839693 0
      vertex -1.15574 0.839693 18
      vertex -1.15574 -0.839693 18
    endloop
  endfacet
  facet normal 1 0 0
    outer loop
      vertex -1.15574 -0.839693 0
      vertex -1.15574 0.839693 0
      vertex -1.15574 -0.839693 18
    endloop
  endfacet
  facet normal -0.809017 -0.587785 0
    outer loop
      vertex 1.42857 0 18
      vertex 0.441453 1.35865 18
      vertex 1.42857 0 0
    endloop
  endfacet
  facet normal -0.809017 -0.587785 0
    outer loop
      vertex 1.42857 0 0
      vertex 0.441453 1.35865 18
      vertex 0.441453 1.35865 0
    endloop
  endfacet
  facet normal -0.809017 0.587785 0
    outer loop
      vertex 1.42857 0 18
      vertex 1.42857 0 0
      vertex 0.441453 -1.35865 18
    endloop
  endfacet
  facet normal -0.809017 0.587785 0
    outer loop
      vertex 0.441453 -1.35865 18
      vertex 1.42857 0 0
      vertex 0.441453 -1.35865 0
    endloop
  endfacet
  facet normal 0.309017 0.951057 0
    outer loop
      vertex 0.441453 -1.35865 18
      vertex 0.441453 -1.35865 0
      vertex -1.15574 -0.839693 18
    endloop
  endfacet
  facet normal 0.309017 0.951057 0
    outer loop
      vertex -1.15574 -0.839693 18
      vertex 0.441453 -1.35865 0
      vertex -1.15574 -0.839693 0
    endloop
  endfacet
  facet normal 0 0 1
    outer loop
      vertex -48.9074 10.3956 3
      vertex -50 0 3
      vertex -48.9074 -10.3956 3
    endloop
  endfacet
  facet normal 0 0 1
    outer loop
      vertex -40.4508 -29.3893 3
      vertex -48.9074 10.3956 3
      vertex -45.6773 -20.3368 3
    endloop
  endfacet
  facet normal 0 0 1
    outer loop
      vertex -45.6773 -20.3368 3
      vertex -48.9074 10.3956 3
      vertex -48.9074 -10.3956 3
    endloop
  endfacet
  facet normal 0 0 1
    outer loop
      vertex -33.4565 -37.1572 3
      vertex -48.9074 10.3956 3
      vertex -40.4508 -29.3893 3
    endloop
  endfacet
  facet normal 0 0 1
    outer loop
      vertex -45 -1.5 3
      vertex -48.9074 10.3956 3
      vertex -33.4565 -37.1572 3
    endloop
  endfacet
  facet normal 0 0 1
    outer loop
      vertex -45 1.5 3
      vertex -3.62132 1.5 3
      vertex -48.9074 10.3956 3
    endloop
  endfacet
  facet normal 0 0 1
    outer loop
      vertex 1.5 -3.62132 3
      vertex 1.5 -45 3
      vertex 15.4508 -47.5528 3
    endloop
  endfacet
  facet normal 0 0 1
    outer loop
      vertex 3.62132 -1.5 3
      vertex 32.8805 -30.7591 3
      vertex 40.4508 -29.3893 3
    endloop
  endfacet
  facet normal 0 0 1
    outer loop
      vertex 32.8805 30.7591 3
      vertex 45.6773 20.3368 3
      vertex 40.4508 29.3893 3
    endloop
  endfacet
  facet normal 0 0 1
    outer loop
      vertex 1.5 3.62132 3
      vertex 30.7591 32.8805 3
      vertex 1.5 45 3
    endloop
  endfacet
  facet normal 0 0 1
    outer loop
      vertex 45 1.5 3
      vertex 45 -1.5 3
      vertex 50 0 3
    endloop
  endfacet
  facet normal 0 0 1
    outer loop
      vertex 3.62132 -1.5 3
      vertex 40.4508 -29.3893 3
      vertex 45.6773 -20.3368 3
    endloop
  endfacet
  facet normal 0 0 1
    outer loop
      vertex 1.5 45 3
      vertex 30.7591 32.8805 3
      vertex 33.4565 37.1572 3
    endloop
  endfacet
  facet normal 0 0 1
    outer loop
      vertex -30.7591 32.8805 3
      vertex -5.22642 49.7261 3
      vertex -15.4508 47.5528 3
    endloop
  endfacet
  facet normal 0 0 1
    outer loop
      vertex -33.4565 37.1572 3
      vertex -48.9074 10.3956 3
      vertex -25 43.3013 3
    endloop
  endfacet
  facet normal 0 0 1
    outer loop
      vertex -40.4508 29.3893 3
      vertex -48.9074 10.3956 3
      vertex -33.4565 37.1572 3
    endloop
  endfacet
  facet normal 0 0 1
    outer loop
      vertex -45.6773 20.3368 3
      vertex -48.9074 10.3956 3
      vertex -40.4508 29.3893 3
    endloop
  endfacet
  facet normal 0 0 1
    outer loop
      vertex -32.8805 -30.7591 3
      vertex -45 -1.5 3
      vertex -33.4565 -37.1572 3
    endloop
  endfacet
  facet normal 0 0 1
    outer loop
      vertex -45 1.5 3
      vertex -48.9074 10.3956 3
      vertex -45 -1.5 3
    endloop
  endfacet
  facet normal 0 0 1
    outer loop
      vertex -25 43.3013 3
      vertex -48.9074 10.3956 3
      vertex -32.8805 30.7591 3
    endloop
  endfacet
  facet normal 0 0 1
    outer loop
      vertex -25 43.3013 3
      vertex -30.7591 32.8805 3
      vertex -15.4508 47.5528 3
    endloop
  endfacet
  facet normal 0 0 1
    outer loop
      vertex -25 43.3013 3
      vertex -32.8805 30.7591 3
      vertex -30.7591 32.8805 3
    endloop
  endfacet
  facet normal 0 0 1
    outer loop
      vertex -5.22642 49.7261 3
      vertex -1.5 45 3
      vertex 5.22642 49.7261 3
    endloop
  endfacet
  facet normal 0 0 1
    outer loop
      vertex -30.7591 32.8805 3
      vertex -1.5 45 3
      vertex -5.22642 49.7261 3
    endloop
  endfacet
  facet normal 0 0 1
    outer loop
      vertex 5.22642 49.7261 3
      vertex 1.5 45 3
      vertex 15.4508 47.5528 3
    endloop
  endfacet
  facet normal 0 0 1
    outer loop
      vertex 1.5 45 3
      vertex 33.4565 37.1572 3
      vertex 25 43.3013 3
    endloop
  endfacet
  facet normal 0 0 1
    outer loop
      vertex 33.4565 37.1572 3
      vertex 30.7591 32.8805 3
      vertex 40.4508 29.3893 3
    endloop
  endfacet
  facet normal 0 0 1
    outer loop
      vertex 30.7591 32.8805 3
      vertex 32.8805 30.7591 3
      vertex 40.4508 29.3893 3
    endloop
  endfacet
  facet normal 0 0 1
    outer loop
      vertex 32.8805 30.7591 3
      vertex 45 1.5 3
      vertex 48.9074 10.3956 3
    endloop
  endfacet
  facet normal 0 0 1
    outer loop
      vertex 45 -1.5 3
      vertex 3.62132 -1.5 3
      vertex 48.9074 -10.3956 3
    endloop
  endfacet
  facet normal 0 0 1
    outer loop
      vertex 48.9074 10.3956 3
      vertex 45 1.5 3
      vertex 50 0 3
    endloop
  endfacet
  facet normal 0 0 1
    outer loop
      vertex 50 0 3
      vertex 45 -1.5 3
      vertex 48.9074 -10.3956 3
    endloop
  endfacet
  facet normal 0 0 1
    outer loop
      vertex 48.9074 -10.3956 3
      vertex 3.62132 -1.5 3
      vertex 45.6773 -20.3368 3
    endloop
  endfacet
  facet normal 0 0 1
    outer loop
      vertex 40.4508 -29.3893 3
      vertex 32.8805 -30.7591 3
      vertex 33.4565 -37.1572 3
    endloop
  endfacet
  facet normal 0 0 1
    outer loop
      vertex 32.8805 -30.7591 3
      vertex 30.7591 -32.8805 3
      vertex 33.4565 -37.1572 3
    endloop
  endfacet
  facet normal 0 0 1
    outer loop
      vertex 32.8805 30.7591 3
      vertex 3.62132 1.5 3
      vertex 45 1.5 3
    endloop
  endfacet
  facet normal 0 0 1
    outer loop
      vertex 1.5 -3.62132 3
      vertex 25 -43.3013 3
      vertex 33.4565 -37.1572 3
    endloop
  endfacet
  facet normal 0 0 1
    outer loop
      vertex 15.4508 -47.5528 3
      vertex 1.5 -45 3
      vertex 5.22642 -49.7261 3
    endloop
  endfacet
  facet normal 0 0 1
    outer loop
      vertex 1.5 -3.62132 3
      vertex 15.4508 -47.5528 3
      vertex 25 -43.3013 3
    endloop
  endfacet
  facet normal 0 0 1
    outer loop
      vertex 5.22642 -49.7261 3
      vertex -1.5 -45 3
      vertex -5.22642 -49.7261 3
    endloop
  endfacet
  facet normal 0 0 1
    outer loop
      vertex 32.8805 30.7591 3
      vertex 48.9074 10.3956 3
      vertex 45.6773 20.3368 3
    endloop
  endfacet
  facet normal 0 0 1
    outer loop
      vertex 1.5 -3.62132 3
      vertex 33.4565 -37.1572 3
      vertex 30.7591 -32.8805 3
    endloop
  endfacet
  facet normal 0 0 1
    outer loop
      vertex 1.5 45 3
      vertex 25 43.3013 3
      vertex 15.4508 47.5528 3
    endloop
  endfacet
  facet normal 0 0 1
    outer loop
      vertex -25 -43.3013 3
      vertex -30.7591 -32.8805 3
      vertex -33.4565 -37.1572 3
    endloop
  endfacet
  facet normal 0 0 1
    outer loop
      vertex -30.7591 -32.8805 3
      vertex -32.8805 -30.7591 3
      vertex -33.4565 -37.1572 3
    endloop
  endfacet
  facet normal 0 0 1
    outer loop
      vertex -1.5 45 3
      vertex 1.5 45 3
      vertex 5.22642 49.7261 3
    endloop
  endfacet
  facet normal 0 0 1
    outer loop
      vertex -1.5 3.62132 3
      vertex -1.5 45 3
      vertex -30.7591 32.8805 3
    endloop
  endfacet
  facet normal 0 0 1
    outer loop
      vertex -1.5 -3.62132 3
      vertex -30.7591 -32.8805 3
      vertex -25 -43.3013 3
    endloop
  endfacet
  facet normal 0 0 1
    outer loop
      vertex -1.5 -3.62132 3
      vertex -25 -43.3013 3
      vertex -15.4508 -47.5528 3
    endloop
  endfacet
  facet normal 0 0 1
    outer loop
      vertex -1.5 -3.62132 3
      vertex -15.4508 -47.5528 3
      vertex -5.22642 -49.7261 3
    endloop
  endfacet
  facet normal 0 0 1
    outer loop
      vertex -1.5 -3.62132 3
      vertex -5.22642 -49.7261 3
      vertex -1.5 -45 3
    endloop
  endfacet
  facet normal 0 0 1
    outer loop
      vertex 1.5 -45 3
      vertex -1.5 -45 3
      vertex 5.22642 -49.7261 3
    endloop
  endfacet
  facet normal 0 0 1
    outer loop
      vertex -32.8805 -30.7591 3
      vertex -3.62132 -1.5 3
      vertex -45 -1.5 3
    endloop
  endfacet
  facet normal 0 0 1
    outer loop
      vertex -3.62132 1.5 3
      vertex -32.8805 30.7591 3
      vertex -48.9074 10.3956 3
    endloop
  endfacet
  facet normal 0 0 1
    outer loop
      vertex -1.5 -3.62132 18
      vertex 1.5 -3.62132 18
      vertex -3.62132 -1.5 18
    endloop
  endfacet
  facet normal 0 0 1
    outer loop
      vertex -45 1.5 18
      vertex -45 -1.5 18
      vertex -3.62132 -1.5 18
    endloop
  endfacet
  facet normal 0 0 1
    outer loop
      vertex 0.441453 -1.35865 18
      vertex -45 1.5 18
      vertex -3.62132 -1.5 18
    endloop
  endfacet
  facet normal 0 0 1
    outer loop
      vertex -32.8805 -30.7591 18
      vertex -30.7591 -32.8805 18
      vertex -3.62132 -1.5 18
    endloop
  endfacet
  facet normal 0 0 1
    outer loop
      vertex -30.7591 -32.8805 18
      vertex -1.5 -3.62132 18
      vertex -3.62132 -1.5 18
    endloop
  endfacet
  facet normal 0 0 1
    outer loop
      vertex 1.5 -3.62132 18
      vertex 3.62132 -1.5 18
      vertex -3.62132 -1.5 18
    endloop
  endfacet
  facet normal 0 0 1
    outer loop
      vertex -1.5 -45 18
      vertex 1.5 -45 18
      vertex -1.5 -3.62132 18
    endloop
  endfacet
  facet normal 0 0 1
    outer loop
      vertex 1.5 -45 18
      vertex 1.5 -3.62132 18
      vertex -1.5 -3.62132 18
    endloop
  endfacet
  facet normal 0 0 1
    outer loop
      vertex 30.7591 -32.8805 18
      vertex 32.8805 -30.7591 18
      vertex 1.5 -3.62132 18
    endloop
  endfacet
  facet normal 0 0 1
    outer loop
      vertex 32.8805 -30.7591 18
      vertex 3.62132 -1.5 18
      vertex 1.5 -3.62132 18
    endloop
  endfacet
  facet normal 0 0 1
    outer loop
      vertex 0.441453 1.35865 18
      vertex 1.42857 0 18
      vertex 45 -1.5 18
    endloop
  endfacet
  facet normal 0 0 1
    outer loop
      vertex 0.441453 1.35865 18
      vertex 45 1.5 18
      vertex -45 1.5 18
    endloop
  endfacet
  facet normal 0 0 1
    outer loop
      vertex 45 1.5 18
      vertex 3.62132 1.5 18
      vertex -45 1.5 18
    endloop
  endfacet
  facet normal 0 0 1
    outer loop
      vertex 1.5 3.62132 18
      vertex 1.5 45 18
      vertex -1.5 3.62132 18
    endloop
  endfacet
  facet normal 0 0 1
    outer loop
      vertex 3.62132 1.5 18
      vertex 32.8805 30.7591 18
      vertex 1.5 3.62132 18
    endloop
  endfacet
  facet normal 0 0 1
    outer loop
      vertex -32.8805 30.7591 18
      vertex -1.5 3.62132 18
      vertex -30.7591 32.8805 18
    endloop
  endfacet
  facet normal 0 0 1
    outer loop
      vertex -1.15574 -0.839693 18
      vertex -1.15574 0.839693 18
      vertex -45 1.5 18
    endloop
  endfacet
  facet normal 0 0 1
    outer loop
      vertex 0.441453 -1.35865 18
      vertex -1.15574 -0.839693 18
      vertex -45 1.5 18
    endloop
  endfacet
  facet normal 0 0 1
    outer loop
      vertex 3.62132 1.5 18
      vertex -3.62132 1.5 18
      vertex -45 1.5 18
    endloop
  endfacet
  facet normal 0 0 1
    outer loop
      vertex 3.62132 1.5 18
      vertex 1.5 3.62132 18
      vertex -3.62132 1.5 18
    endloop
  endfacet
  facet normal 0 0 1
    outer loop
      vertex 1.42857 0 18
      vertex 3.62132 -1.5 18
      vertex 45 -1.5 18
    endloop
  endfacet
  facet normal 0 0 1
    outer loop
      vertex -1.15574 0.839693 18
      vertex 0.441453 1.35865 18
      vertex -45 1.5 18
    endloop
  endfacet
  facet normal 0 0 1
    outer loop
      vertex 1.42857 0 18
      vertex 0.441453 -1.35865 18
      vertex 3.62132 -1.5 18
    endloop
  endfacet
  facet normal 0 0 1
    outer loop
      vertex 0.441453 1.35865 18
      vertex 45 -1.5 18
      vertex 45 1.5 18
    endloop
  endfacet
  facet normal 0 0 1
    outer loop
      vertex 3.62132 -1.5 18
      vertex 0.441453 -1.35865 18
      vertex -3.62132 -1.5 18
    endloop
  endfacet
  facet normal 0 0 1
    outer loop
      vertex -1.5 45 18
      vertex -1.5 3.62132 18
      vertex 1.5 45 18
    endloop
  endfacet
  facet normal 0 0 1
    outer loop
      vertex -1.5 3.62132 18
      vertex -3.62132 1.5 18
      vertex 1.5 3.62132 18
    endloop
  endfacet
  facet normal 0 0 1
    outer loop
      vertex 30.7591 32.8805 18
      vertex 1.5 3.62132 18
      vertex 32.8805 30.7591 18
    endloop
  endfacet
  facet normal 0 0 1
    outer loop
      vertex -32.8805 30.7591 18
      vertex -3.62132 1.5 18
      vertex -1.5 3.62132 18
    endloop
  endfacet
  facet normal -1 0 0
    outer loop
      vertex -45 -1.5 3
      vertex -45 -1.5 18
      vertex -45 1.5 3
    endloop
  endfacet
  facet normal -1 0 0
    outer loop
      vertex -45 1.5 3
      vertex -45 -1.5 18
      vertex -45 1.5 18
    endloop
  endfacet
  facet normal 0 -1 0
    outer loop
      vertex -45 -1.5 18
      vertex -45 -1.5 3
      vertex -3.62132 -1.5 3
    endloop
  endfacet
  facet normal 0 -1 0
    outer loop
      vertex -3.62132 -1.5 18
      vertex -45 -1.5 18
      vertex -3.62132 -1.5 3
    endloop
  endfacet
  facet normal -0.707107 0.707107 0
    outer loop
      vertex -32.8805 -30.7591 3
      vertex -32.8805 -30.7591 18
      vertex -3.62132 -1.5 3
    endloop
  endfacet
  facet normal -0.707107 0.707107 0
    outer loop
      vertex -3.62132 -1.5 3
      vertex -32.8805 -30.7591 18
      vertex -3.62132 -1.5 18
    endloop
  endfacet
  facet normal -0.707107 -0.707107 0
    outer loop
      vertex -32.8805 -30.7591 18
      vertex -32.8805 -30.7591 3
      vertex -30.7591 -32.8805 3
    endloop
  endfacet
  facet normal -0.707107 -0.707107 0
    outer loop
      vertex -30.7591 -32.8805 18
      vertex -32.8805 -30.7591 18
      vertex -30.7591 -32.8805 3
    endloop
  endfacet
  facet normal 0.707107 -0.707107 0
    outer loop
      vertex -30.7591 -32.8805 18
      vertex -30.7591 -32.8805 3
      vertex -1.5 -3.62132 3
    endloop
  endfacet
  facet normal 0.707107 -0.707107 0
    outer loop
      vertex -1.5 -3.62132 18
      vertex -30.7591 -32.8805 18
      vertex -1.5 -3.62132 3
    endloop
  endfacet
  facet normal -1 2.22045e-16 0
    outer loop
      vertex -1.5 -45 3
      vertex -1.5 -45 18
      vertex -1.5 -3.62132 3
    endloop
  endfacet
  facet normal -1 2.22045e-16 0
    outer loop
      vertex -1.5 -3.62132 3
      vertex -1.5 -45 18
      vertex -1.5 -3.62132 18
    endloop
  endfacet
  facet normal -2.22045e-16 -1 0
    outer loop
      vertex -1.5 -45 18
      vertex -1.5 -45 3
      vertex 1.5 -45 3
    endloop
  endfacet
  facet normal -2.22045e-16 -1 0
    outer loop
      vertex 1.5 -45 18
      vertex -1.5 -45 18
      vertex 1.5 -45 3
    endloop
  endfacet
  facet normal 1 -2.22045e-16 0
    outer loop
      vertex 1.5 -45 18
      vertex 1.5 -45 3
      vertex 1.5 -3.62132 3
    endloop
  endfacet
  facet normal 1 -2.22045e-16 0
    outer loop
      vertex 1.5 -3.62132 18
      vertex 1.5 -45 18
      vertex 1.5 -3.62132 3
    endloop
  endfacet
  facet normal -0.707107 -0.707107 0
    outer loop
      vertex 1.5 -3.62132 3
      vertex 30.7591 -32.8805 3
      vertex 1.5 -3.62132 18
    endloop
  endfacet
  facet normal -0.707107 -0.707107 0
    outer loop
      vertex 1.5 -3.62132 18
      vertex 30.7591 -32.8805 3
      vertex 30.7591 -32.8805 18
    endloop
  endfacet
  facet normal 0.707107 -0.707107 0
    outer loop
      vertex 30.7591 -32.8805 18
      vertex 30.7591 -32.8805 3
      vertex 32.8805 -30.7591 3
    endloop
  endfacet
  facet normal 0.707107 -0.707107 0
    outer loop
      vertex 32.8805 -30.7591 18
      vertex 30.7591 -32.8805 18
      vertex 32.8805 -30.7591 3
    endloop
  endfacet
  facet normal 0.707107 0.707107 0
    outer loop
      vertex 32.8805 -30.7591 3
      vertex 3.62132 -1.5 3
      vertex 3.62132 -1.5 18
    endloop
  endfacet
  facet normal 0.707107 0.707107 0
    outer loop
      vertex 32.8805 -30.7591 18
      vertex 32.8805 -30.7591 3
      vertex 3.62132 -1.5 18
    endloop
  endfacet
  facet normal -1.22465e-16 -1 0
    outer loop
      vertex 3.62132 -1.5 18
      vertex 3.62132 -1.5 3
      vertex 45 -1.5 3
    endloop
  endfacet
  facet normal -1.22465e-16 -1 0
    outer loop
      vertex 45 -1.5 18
      vertex 3.62132 -1.5 18
      vertex 45 -1.5 3
    endloop
  endfacet
  facet normal 1 -1.22465e-16 0
    outer loop
      vertex 45 -1.5 18
      vertex 45 -1.5 3
      vertex 45 1.5 3
    endloop
  endfacet
  facet normal 1 -1.22465e-16 0
    outer loop
      vertex 45 1.5 18
      vertex 45 -1.5 18
      vertex 45 1.5 3
    endloop
  endfacet
  facet normal 1.22465e-16 1 0
    outer loop
      vertex 3.62132 1.5 3
      vertex 3.62132 1.5 18
      vertex 45 1.5 3
    endloop
  endfacet
  facet normal 1.22465e-16 1 0
    outer loop
      vertex 45 1.5 3
      vertex 3.62132 1.5 18
      vertex 45 1.5 18
    endloop
  endfacet
  facet normal 0.707107 -0.707107 0
    outer loop
      vertex 3.62132 1.5 18
      vertex 3.62132 1.5 3
      vertex 32.8805 30.7591 3
    endloop
  endfacet
  facet normal 0.707107 -0.707107 0
    outer loop
      vertex 32.8805 30.7591 18
      vertex 3.62132 1.5 18
      vertex 32.8805 30.7591 3
    endloop
  endfacet
  facet normal 0.707107 0.707107 0
    outer loop
      vertex 30.7591 32.8805 3
      vertex 30.7591 32.8805 18
      vertex 32.8805 30.7591 3
    endloop
  endfacet
  facet normal 0.707107 0.707107 0
    outer loop
      vertex 32.8805 30.7591 3
      vertex 30.7591 32.8805 18
      vertex 32.8805 30.7591 18
    endloop
  endfacet
  facet normal -0.707107 0.707107 0
    outer loop
      vertex 1.5 3.62132 3
      vertex 1.5 3.62132 18
      vertex 30.7591 32.8805 3
    endloop
  endfacet
  facet normal -0.707107 0.707107 0
    outer loop
      vertex 30.7591 32.8805 3
      vertex 1.5 3.62132 18
      vertex 30.7591 32.8805 18
    endloop
  endfacet
  facet normal 1 -2.22045e-16 0
    outer loop
      vertex 1.5 3.62132 18
      vertex 1.5 3.62132 3
      vertex 1.5 45 3
    endloop
  endfacet
  facet normal 1 -2.22045e-16 0
    outer loop
      vertex 1.5 45 18
      vertex 1.5 3.62132 18
      vertex 1.5 45 3
    endloop
  endfacet
  facet normal 2.22045e-16 1 0
    outer loop
      vertex -1.5 45 3
      vertex -1.5 45 18
      vertex 1.5 45 3
    endloop
  endfacet
  facet normal 2.22045e-16 1 0
    outer loop
      vertex 1.5 45 3
      vertex -1.5 45 18
      vertex 1.5 45 18
    endloop
  endfacet
  facet normal -1 2.22045e-16 0
    outer loop
      vertex -1.5 3.62132 3
      vertex -1.5 3.62132 18
      vertex -1.5 45 3
    endloop
  endfacet
  facet normal -1 2.22045e-16 0
    outer loop
      vertex -1.5 45 3
      vertex -1.5 3.62132 18
      vertex -1.5 45 18
    endloop
  endfacet
  facet normal 0.707107 0.707107 0
    outer loop
      vertex -1.5 3.62132 3
      vertex -30.7591 32.8805 3
      vertex -30.7591 32.8805 18
    endloop
  endfacet
  facet normal 0.707107 0.707107 0
    outer loop
      vertex -1.5 3.62132 18
      vertex -1.5 3.62132 3
      vertex -30.7591 32.8805 18
    endloop
  endfacet
  facet normal -0.707107 0.707107 0
    outer loop
      vertex -32.8805 30.7591 3
      vertex -32.8805 30.7591 18
      vertex -30.7591 32.8805 3
    endloop
  endfacet
  facet normal -0.707107 0.707107 0
    outer loop
      vertex -30.7591 32.8805 3
      vertex -32.8805 30.7591 18
      vertex -30.7591 32.8805 18
    endloop
  endfacet
  facet normal -0.707107 -0.707107 0
    outer loop
      vertex -32.8805 30.7591 3
      vertex -3.62132 1.5 3
      vertex -32.8805 30.7591 18
    endloop
  endfacet
  facet normal -0.707107 -0.707107 0
    outer loop
      vertex -32.8805 30.7591 18
      vertex -3.62132 1.5 3
      vertex -3.62132 1.5 18
    endloop
  endfacet
  facet normal 0 1 0
    outer loop
      vertex -45 1.5 3
      vertex -45 1.5 18
      vertex -3.62132 1.5 3
    endloop
  endfacet
  facet normal 0 1 0
    outer loop
      vertex -3.62132 1.5 3
      vertex -45 1.5 18
      vertex -3.62132 1.5 18
    endloop
  endfacet
endsolid OpenSCAD_Model
