solid OpenSCAD_Model
  facet normal 0 0 -1
    outer loop
      vertex -50 0 0
      vertex -48.9074 10.3956 0
      vertex -48.9074 -10.3956 0
    endloop
  endfacet
  facet normal 0 0 -1
    outer loop
      vertex -48.9074 -10.3956 0
      vertex -48.9074 10.3956 0
      vertex -45.6773 20.3368 0
    endloop
  endfacet
  facet normal 0 0 -1
    outer loop
      vertex -48.9074 -10.3956 0
      vertex -45.6773 20.3368 0
      vertex -40.4508 29.3893 0
    endloop
  endfacet
  facet normal 0 0 -1
    outer loop
      vertex -48.9074 -10.3956 0
      vertex -40.4508 29.3893 0
      vertex -33.4565 37.1572 0
    endloop
  endfacet
  facet normal 0 0 -1
    outer loop
      vertex -48.9074 -10.3956 0
      vertex -33.4565 37.1572 0
      vertex -25 43.3013 0
    endloop
  endfacet
  facet normal 0 0 -1
    outer loop
      vertex -48.9074 -10.3956 0
      vertex -25 43.3013 0
      vertex -15.4508 47.5528 0
    endloop
  endfacet
  facet normal 0 0 -1
    outer loop
      vertex -48.9074 -10.3956 0
      vertex -15.4508 47.5528 0
      vertex -5.22642 49.7261 0
    endloop
  endfacet
  facet normal 0 0 -1
    outer loop
      vertex -48.9074 -10.3956 0
      vertex -5.22642 49.7261 0
      vertex 5.22642 49.7261 0
    endloop
  endfacet
  facet normal 0 0 -1
    outer loop
      vertex -48.9074 -10.3956 0
      vertex 5.22642 49.7261 0
      vertex 15.4508 47.5528 0
    endloop
  endfacet
  facet normal 0 0 -1
    outer loop
      vertex -48.9074 -10.3956 0
      vertex 15.4508 47.5528 0
      vertex 25 43.3013 0
    endloop
  endfacet
  facet normal 0 0 -1
    outer loop
      vertex -48.9074 -10.3956 0
      vertex 25 43.3013 0
      vertex 33.4565 37.1572 0
    endloop
  endfacet
  facet normal 0 0 -1
    outer loop
      vertex -48.9074 -10.3956 0
      vertex 33.4565 37.1572 0
      vertex 40.4508 29.3893 0
    endloop
  endfacet
  facet normal 0 0 -1
    outer loop
      vertex -48.9074 -10.3956 0
      vertex 40.4508 29.3893 0
      vertex 45.6773 20.3368 0
    endloop
  endfacet
  facet normal 0 0 -1
    outer loop
      vertex -48.9074 -10.3956 0
      vertex 45.6773 20.3368 0
      vertex 48.9074 10.3956 0
    endloop
  endfacet
  facet normal 0 0 -1
    outer loop
      vertex -48.9074 -10.3956 0
      vertex 48.9074 10.3956 0
      vertex 50 0 0
    endloop
  endfacet
  facet normal 0 0 -1
    outer loop
      vertex -48.9074 -10.3956 0
      vertex 50 0 0
      vertex 48.9074 -10.3956 0
    endloop
  endfacet
  facet normal 0 0 -1
    outer loop
      vertex -48.9074 -10.3956 0
      vertex 48.9074 -10.3956 0
      vertex 45.6773 -20.3368 0
    endloop
  endfacet
  facet normal 0 0 -1
    outer loop
      vertex -48.9074 -10.3956 0
      vertex 45.6773 -20.3368 0
      vertex 40.4508 -29.3893 0
    endloop
  endfacet
  facet normal 0 0 -1
    outer loop
      vertex -48.9074 -10.3956 0
      vertex 40.4508 -29.3893 0
      vertex 33.4565 -37.1572 0
    endloop
  endfacet
  facet normal 0 0 -1
    outer loop
      vertex -48.9074 -10.3956 0
      vertex 33.4565 -37.1572 0
      vertex 25 -43.3013 0
    endloop
  endfacet
  facet normal 0 0 -1
    outer loop
      vertex -48.9074 -10.3956 0
      vertex 25 -43.3013 0
      vertex 15.4508 -47.5528 0
    endloop
  endfacet
  facet normal 0 0 -1
    outer loop
      vertex -48.9074 -10.3956 0
      vertex 15.4508 -47.5528 0
      vertex 5.22642 -49.7261 0
    endloop
  endfacet
  facet normal 0 0 -1
    outer loop
      vertex -48.9074 -10.3956 0
      vertex 5.22642 -49.7261 0
      vertex -5.22642 -49.7261 0
    endloop
  endfacet
  facet normal 0 0 -1
    outer loop
      vertex -48.9074 -10.3956 0
      vertex -5.22642 -49.7261 0
      vertex -15.4508 -47.5528 0
    endloop
  endfacet
  facet normal 0 0 -1
    outer loop
      vertex -48.9074 -10.3956 0
      vertex -15.4508 -47.5528 0
      vertex -25 -43.3013 0
    endloop
  endfacet
  facet normal 0 0 -1
    outer loop
      vertex -48.9074 -10.3956 0
      vertex -25 -43.3013 0
      vertex -33.4565 -37.1572 0
    endloop
  endfacet
  facet normal 0 0 -1
    outer loop
      vertex -48.9074 -10.3956 0
      vertex -33.4565 -37.1572 0
      vertex -40.4508 -29.3893 0
    endloop
  endfacet
  facet normal 0 0 -1
    outer loop
      vertex -48.9074 -10.3956 0
      vertex -40.4508 -29.3893 0
      vertex -45.6773 -20.3368 0
    endloop
  endfacet
  facet normal -0.994522 0.104528 0
    outer loop
      vertex -50 0 0
      vertex -50 0 3
      vertex -48.9074 10.3956 0
    endloop
  endfacet
  facet normal -0.994522 0.104528 0
    outer loop
      vertex -48.9074 10.3956 0
      vertex -50 0 3
      vertex -48.9074 10.3956 3
    endloop
  endfacet
  facet normal -0.994522 -0.104528 0
    outer loop
      vertex -50 0 0
      vertex -48.9074 -10.3956 0
      vertex -50 0 3
    endloop
  endfacet
  facet normal -0.994522 -0.104528 0
    outer loop
      vertex -50 0 3
      vertex -48.9074 -10.3956 0
      vertex -48.9074 -10.3956 3
    endloop
  endfacet
  facet normal -0.951057 -0.309017 0
    outer loop
      vertex -48.9074 -10.3956 0
      vertex -45.6773 -20.3368 0
      vertex -48.9074 -10.3956 3
    endloop
  endfacet
  facet normal -0.951057 -0.309017 0
    outer loop
      vertex -48.9074 -10.3956 3
      vertex -45.6773 -20.3368 0
      vertex -45.6773 -20.3368 3
    endloop
  endfacet
  facet normal -0.866025 -0.5 0
    outer loop
      vertex -45.6773 -20.3368 0
      vertex -40.4508 -29.3893 0
      vertex -45.6773 -20.3368 3
    endloop
  endfacet
  facet normal -0.866025 -0.5 0
    outer loop
      vertex -45.6773 -20.3368 3
      vertex -40.4508 -29.3893 0
      vertex -40.4508 -29.3893 3
    endloop
  endfacet
  facet normal -0.743145 -0.669131 0
    outer loop
      vertex -40.4508 -29.3893 0
      vertex -33.4565 -37.1572 0
      vertex -40.4508 -29.3893 3
    endloop
  endfacet
  facet normal -0.743145 -0.669131 0
    outer loop
      vertex -40.4508 -29.3893 3
      vertex -33.4565 -37.1572 0
      vertex -33.4565 -37.1572 3
    endloop
  endfacet
  facet normal -0.587785 -0.809017 0
    outer loop
      vertex -33.4565 -37.1572 3
      vertex -33.4565 -37.1572 0
      vertex -25 -43.3013 0
    endloop
  endfacet
  facet normal -0.587785 -0.809017 0
    outer loop
      vertex -25 -43.3013 3
      vertex -33.4565 -37.1572 3
      vertex -25 -43.3013 0
    endloop
  endfacet
  facet normal -0.406737 -0.913545 0
    outer loop
      vertex -25 -43.3013 3
      vertex -25 -43.3013 0
      vertex -15.4508 -47.5528 0
    endloop
  endfacet
  facet normal -0.406737 -0.913545 0
    outer loop
      vertex -15.4508 -47.5528 3
      vertex -25 -43.3013 3
      vertex -15.4508 -47.5528 0
    endloop
  endfacet
  facet normal -0.207912 -0.978148 0
    outer loop
      vertex -15.4508 -47.5528 3
      vertex -15.4508 -47.5528 0
      vertex -5.22642 -49.7261 0
    endloop
  endfacet
  facet normal -0.207912 -0.978148 0
    outer loop
      vertex -5.22642 -49.7261 3
      vertex -15.4508 -47.5528 3
      vertex -5.22642 -49.7261 0
    endloop
  endfacet
  facet normal 0 -1 0
    outer loop
      vertex -5.22642 -49.7261 3
      vertex -5.22642 -49.7261 0
      vertex 5.22642 -49.7261 0
    endloop
  endfacet
  facet normal 0 -1 0
    outer loop
      vertex 5.22642 -49.7261 3
      vertex -5.22642 -49.7261 3
      vertex 5.22642 -49.7261 0
    endloop
  endfacet
  facet normal 0.207912 -0.978148 0
    outer loop
      vertex 5.22642 -49.7261 3
      vertex 5.22642 -49.7261 0
      vertex 15.4508 -47.5528 0
    endloop
  endfacet
  facet normal 0.207912 -0.978148 0
    outer loop
      vertex 15.4508 -47.5528 3
      vertex 5.22642 -49.7261 3
      vertex 15.4508 -47.5528 0
    endloop
  endfacet
  facet normal 0.406737 -0.913545 0
    outer loop
      vertex 15.4508 -47.5528 3
      vertex 15.4508 -47.5528 0
      vertex 25 -43.3013 0
    endloop
  endfacet
  facet normal 0.406737 -0.913545 0
    outer loop
      vertex 25 -43.3013 3
      vertex 15.4508 -47.5528 3
      vertex 25 -43.3013 0
    endloop
  endfacet
  facet normal 0.587785 -0.809017 0
    outer loop
      vertex 25 -43.3013 3
      vertex 25 -43.3013 0
      vertex 33.4565 -37.1572 0
    endloop
  endfacet
  facet normal 0.587785 -0.809017 0
    outer loop
      vertex 33.4565 -37.1572 3
      vertex 25 -43.3013 3
      vertex 33.4565 -37.1572 0
    endloop
  endfacet
  facet normal 0.743145 -0.669131 0
    outer loop
      vertex 33.4565 -37.1572 3
      vertex 33.4565 -37.1572 0
      vertex 40.4508 -29.3893 0
    endloop
  endfacet
  facet normal 0.743145 -0.669131 0
    outer loop
      vertex 40.4508 -29.3893 3
      vertex 33.4565 -37.1572 3
      vertex 40.4508 -29.3893 0
    endloop
  endfacet
  facet normal 0.866025 -0.5 0
    outer loop
      vertex 40.4508 -29.3893 3
      vertex 40.4508 -29.3893 0
      vertex 45.6773 -20.3368 0
    endloop
  endfacet
  facet normal 0.866025 -0.5 0
    outer loop
      vertex 45.6773 -20.3368 3
      vertex 40.4508 -29.3893 3
      vertex 45.6773 -20.3368 0
    endloop
  endfacet
  facet normal 0.951057 -0.309017 0
    outer loop
      vertex 45.6773 -20.3368 3
      vertex 45.6773 -20.3368 0
      vertex 48.9074 -10.3956 0
    endloop
  endfacet
  facet normal 0.951057 -0.309017 0
    outer loop
      vertex 48.9074 -10.3956 3
      vertex 45.6773 -20.3368 3
      vertex 48.9074 -10.3956 0
    endloop
  endfacet
  facet normal 0.994522 -0.104528 0
    outer loop
      vertex 48.9074 -10.3956 3
      vertex 48.9074 -10.3956 0
      vertex 50 0 0
    endloop
  endfacet
  facet normal 0.994522 -0.104528 0
    outer loop
      vertex 50 0 3
      vertex 48.9074 -10.3956 3
      vertex 50 0 0
    endloop
  endfacet
  facet normal 0.994522 0.104528 0
    outer loop
      vertex 50 0 0
      vertex 48.9074 10.3956 0
      vertex 48.9074 10.3956 3
    endloop
  endfacet
  facet normal 0.994522 0.104528 0
    outer loop
      vertex 50 0 3
      vertex 50 0 0
      vertex 48.9074 10.3956 3
    endloop
  endfacet
  facet normal 0.951057 0.309017 0
    outer loop
      vertex 48.9074 10.3956 0
      vertex 45.6773 20.3368 0
      vertex 45.6773 20.3368 3
    endloop
  endfacet
  facet normal 0.951057 0.309017 0
    outer loop
      vertex 48.9074 10.3956 3
      vertex 48.9074 10.3956 0
      vertex 45.6773 20.3368 3
    endloop
  endfacet
  facet normal 0.866025 0.5 0
    outer loop
      vertex 45.6773 20.3368 0
      vertex 40.4508 29.3893 0
      vertex 40.4508 29.3893 3
    endloop
  endfacet
  facet normal 0.866025 0.5 0
    outer loop
      vertex 45.6773 20.3368 3
      vertex 45.6773 20.3368 0
      vertex 40.4508 29.3893 3
    endloop
  endfacet
  facet normal 0.743145 0.669131 0
    outer loop
      vertex 40.4508 29.3893 0
      vertex 33.4565 37.1572 0
      vertex 33.4565 37.1572 3
    endloop
  endfacet
  facet normal 0.743145 0.669131 0
    outer loop
      vertex 40.4508 29.3893 3
      vertex 40.4508 29.3893 0
      vertex 33.4565 37.1572 3
    endloop
  endfacet
  facet normal 0.587785 0.809017 0
    outer loop
      vertex 25 43.3013 0
      vertex 25 43.3013 3
      vertex 33.4565 37.1572 0
    endloop
  endfacet
  facet normal 0.587785 0.809017 0
    outer loop
      vertex 33.4565 37.1572 0
      vertex 25 43.3013 3
      vertex 33.4565 37.1572 3
    endloop
  endfacet
  facet normal 0.406737 0.913545 0
    outer loop
      vertex 15.4508 47.5528 0
      vertex 15.4508 47.5528 3
      vertex 25 43.3013 0
    endloop
  endfacet
  facet normal 0.406737 0.913545 0
    outer loop
      vertex 25 43.3013 0
      vertex 15.4508 47.5528 3
      vertex 25 43.3013 3
    endloop
  endfacet
  facet normal 0.207912 0.978148 0
    outer loop
      vertex 5.22642 49.7261 0
      vertex 5.22642 49.7261 3
      vertex 15.4508 47.5528 0
    endloop
  endfacet
  facet normal 0.207912 0.978148 0
    outer loop
      vertex 15.4508 47.5528 0
      vertex 5.22642 49.7261 3
      vertex 15.4508 47.5528 3
    endloop
  endfacet
  facet normal 0 1 0
    outer loop
      vertex -5.22642 49.7261 0
      vertex -5.22642 49.7261 3
      vertex 5.22642 49.7261 0
    endloop
  endfacet
  facet normal 0 1 0
    outer loop
      vertex 5.22642 49.7261 0
      vertex -5.22642 49.7261 3
      vertex 5.22642 49.7261 3
    endloop
  endfacet
  facet normal -0.207912 0.978148 0
    outer loop
      vertex -15.4508 47.5528 0
      vertex -15.4508 47.5528 3
      vertex -5.22642 49.7261 0
    endloop
  endfacet
  facet normal -0.207912 0.978148 0
    outer loop
      vertex -5.22642 49.7261 0
      vertex -15.4508 47.5528 3
      vertex -5.22642 49.7261 3
    endloop
  endfacet
  facet normal -0.406737 0.913545 0
    outer loop
      vertex -25 43.3013 0
      vertex -25 43.3013 3
      vertex -15.4508 47.5528 0
    endloop
  endfacet
  facet normal -0.406737 0.913545 0
    outer loop
      vertex -15.4508 47.5528 0
      vertex -25 43.3013 3
      vertex -15.4508 47.5528 3
    endloop
  endfacet
  facet normal -0.587785 0.809017 0
    outer loop
      vertex -33.4565 37.1572 0
      vertex -33.4565 37.1572 3
      vertex -25 43.3013 0
    endloop
  endfacet
  facet normal -0.587785 0.809017 0
    outer loop
      vertex -25 43.3013 0
      vertex -33.4565 37.1572 3
      vertex -25 43.3013 3
    endloop
  endfacet
  facet normal -0.743145 0.669131 0
    outer loop
      vertex -40.4508 29.3893 0
      vertex -40.4508 29.3893 3
      vertex -33.4565 37.1572 0
    endloop
  endfacet
  facet normal -0.743145 0.669131 0
    outer loop
      vertex -33.4565 37.1572 0
      vertex -40.4508 29.3893 3
      vertex -33.4565 37.1572 3
    endloop
  endfacet
  facet normal -0.866025 0.5 0
    outer loop
      vertex -45.6773 20.3368 0
      vertex -45.6773 20.3368 3
      vertex -40.4508 29.3893 0
    endloop
  endfacet
  facet normal -0.866025 0.5 0
    outer loop
      vertex -40.4508 29.3893 0
      vertex -45.6773 20.3368 3
      vertex -40.4508 29.3893 3
    endloop
  endfacet
  facet normal -0.951057 0.309017 0
    outer loop
      vertex -48.9074 10.3956 0
      vertex -48.9074 10.3956 3
      vertex -45.6773 20.3368 0
    endloop
  endfacet
  facet normal -0.951057 0.309017 0
    outer loop
      vertex -45.6773 20.3368 0
      vertex -48.9074 10.3956 3
      vertex -45.6773 20.3368 3
    endloop
  endfacet
  facet normal 0 0 1
    outer loop
      vertex -48.9074 10.3956 3
      vertex -50 0 3
      vertex -48.9074 -10.3956 3
    endloop
  endfacet
  facet normal 0 0 1
    outer loop
      vertex -47.5 0 3
      vertex -48.9074 10.3956 3
      vertex -45.6773 -20.3368 3
    endloop
  endfacet
  facet normal 0 0 1
    outer loop
      vertex -45.6773 -20.3368 3
      vertex -48.9074 10.3956 3
      vertex -48.9074 -10.3956 3
    endloop
  endfacet
  facet normal 0 0 1
    outer loop
      vertex -47.5 3 3
      vertex -7.24264 3 3
      vertex -48.9074 10.3956 3
    endloop
  endfacet
  facet normal 0 0 1
    outer loop
      vertex 33.5876 33.5876 3
      vertex 45.6773 20.3368 3
      vertex 40.4508 29.3893 3
    endloop
  endfacet
  facet normal 0 0 1
    outer loop
      vertex -9.42055e-16 -4.24264 3
      vertex -1.05471e-14 -47.5 3
      vertex 5.22642 -49.7261 3
    endloop
  endfacet
  facet normal 0 0 1
    outer loop
      vertex 9.42055e-16 4.24264 3
      vertex 31.4663 35.7089 3
      vertex 1.05471e-14 47.5 3
    endloop
  endfacet
  facet normal 0 0 1
    outer loop
      vertex 1.05471e-14 47.5 3
      vertex 25 43.3013 3
      vertex 15.4508 47.5528 3
    endloop
  endfacet
  facet normal 0 0 1
    outer loop
      vertex 48.9074 -10.3956 3
      vertex 0 0 3
      vertex 45.6773 -20.3368 3
    endloop
  endfacet
  facet normal 0 0 1
    outer loop
      vertex 33.5876 33.5876 3
      vertex 3 3 3
      vertex 47.5 3 3
    endloop
  endfacet
  facet normal 0 0 1
    outer loop
      vertex 33.5876 33.5876 3
      vertex 48.9074 10.3956 3
      vertex 45.6773 20.3368 3
    endloop
  endfacet
  facet normal 0 0 1
    outer loop
      vertex 1.05471e-14 47.5 3
      vertex 31.4663 35.7089 3
      vertex 33.4565 37.1572 3
    endloop
  endfacet
  facet normal 0 0 1
    outer loop
      vertex -33.5876 33.5876 3
      vertex -3 47.5 3
      vertex -5.22642 49.7261 3
    endloop
  endfacet
  facet normal 0 0 1
    outer loop
      vertex -33.5876 33.5876 3
      vertex -5.22642 49.7261 3
      vertex -15.4508 47.5528 3
    endloop
  endfacet
  facet normal 0 0 1
    outer loop
      vertex -40.4508 29.3893 3
      vertex -48.9074 10.3956 3
      vertex -33.4565 37.1572 3
    endloop
  endfacet
  facet normal 0 0 1
    outer loop
      vertex -45.6773 20.3368 3
      vertex -48.9074 10.3956 3
      vertex -40.4508 29.3893 3
    endloop
  endfacet
  facet normal 0 0 1
    outer loop
      vertex -40.4508 -29.3893 3
      vertex -47.5 0 3
      vertex -45.6773 -20.3368 3
    endloop
  endfacet
  facet normal 0 0 1
    outer loop
      vertex -47.5 3 3
      vertex -48.9074 10.3956 3
      vertex -47.5 0 3
    endloop
  endfacet
  facet normal 0 0 1
    outer loop
      vertex -33.4565 37.1572 3
      vertex -35.7089 31.4663 3
      vertex -25 43.3013 3
    endloop
  endfacet
  facet normal 0 0 1
    outer loop
      vertex -33.4565 37.1572 3
      vertex -48.9074 10.3956 3
      vertex -35.7089 31.4663 3
    endloop
  endfacet
  facet normal 0 0 1
    outer loop
      vertex -35.7089 31.4663 3
      vertex -33.5876 33.5876 3
      vertex -25 43.3013 3
    endloop
  endfacet
  facet normal 0 0 1
    outer loop
      vertex 47.5 0 3
      vertex 0 0 3
      vertex 48.9074 -10.3956 3
    endloop
  endfacet
  facet normal 0 0 1
    outer loop
      vertex -5.22642 49.7261 3
      vertex -3 47.5 3
      vertex 5.22642 49.7261 3
    endloop
  endfacet
  facet normal 0 0 1
    outer loop
      vertex 1.05471e-14 47.5 3
      vertex 15.4508 47.5528 3
      vertex 5.22642 49.7261 3
    endloop
  endfacet
  facet normal 0 0 1
    outer loop
      vertex -3 47.5 3
      vertex 1.05471e-14 47.5 3
      vertex 5.22642 49.7261 3
    endloop
  endfacet
  facet normal 0 0 1
    outer loop
      vertex 1.05471e-14 47.5 3
      vertex 33.4565 37.1572 3
      vertex 25 43.3013 3
    endloop
  endfacet
  facet normal 0 0 1
    outer loop
      vertex 33.4565 37.1572 3
      vertex 31.4663 35.7089 3
      vertex 40.4508 29.3893 3
    endloop
  endfacet
  facet normal 0 0 1
    outer loop
      vertex 33.5876 33.5876 3
      vertex 47.5 3 3
      vertex 48.9074 10.3956 3
    endloop
  endfacet
  facet normal 0 0 1
    outer loop
      vertex 31.4663 35.7089 3
      vertex 33.5876 33.5876 3
      vertex 40.4508 29.3893 3
    endloop
  endfacet
  facet normal 0 0 1
    outer loop
      vertex 0 0 3
      vertex 33.5876 -33.5876 3
      vertex 40.4508 -29.3893 3
    endloop
  endfacet
  facet normal 0 0 1
    outer loop
      vertex 0 0 3
      vertex 40.4508 -29.3893 3
      vertex 45.6773 -20.3368 3
    endloop
  endfacet
  facet normal 0 0 1
    outer loop
      vertex 48.9074 10.3956 3
      vertex 47.5 3 3
      vertex 50 0 3
    endloop
  endfacet
  facet normal 0 0 1
    outer loop
      vertex 50 0 3
      vertex 47.5 0 3
      vertex 48.9074 -10.3956 3
    endloop
  endfacet
  facet normal 0 0 1
    outer loop
      vertex -33.5876 33.5876 3
      vertex -15.4508 47.5528 3
      vertex -25 43.3013 3
    endloop
  endfacet
  facet normal 0 0 1
    outer loop
      vertex 40.4508 -29.3893 3
      vertex 33.5876 -33.5876 3
      vertex 33.4565 -37.1572 3
    endloop
  endfacet
  facet normal 0 0 1
    outer loop
      vertex 33.5876 -33.5876 3
      vertex 31.4663 -35.7089 3
      vertex 33.4565 -37.1572 3
    endloop
  endfacet
  facet normal 0 0 1
    outer loop
      vertex -9.42055e-16 -4.24264 3
      vertex 15.4508 -47.5528 3
      vertex 25 -43.3013 3
    endloop
  endfacet
  facet normal 0 0 1
    outer loop
      vertex -7.24264 3 3
      vertex -35.7089 31.4663 3
      vertex -48.9074 10.3956 3
    endloop
  endfacet
  facet normal 0 0 1
    outer loop
      vertex 5.22642 -49.7261 3
      vertex -1.05471e-14 -47.5 3
      vertex -5.22642 -49.7261 3
    endloop
  endfacet
  facet normal 0 0 1
    outer loop
      vertex 47.5 3 3
      vertex 47.5 0 3
      vertex 50 0 3
    endloop
  endfacet
  facet normal 0 0 1
    outer loop
      vertex -1.05471e-14 -47.5 3
      vertex -3 -47.5 3
      vertex -5.22642 -49.7261 3
    endloop
  endfacet
  facet normal 0 0 1
    outer loop
      vertex -9.42055e-16 -4.24264 3
      vertex 5.22642 -49.7261 3
      vertex 15.4508 -47.5528 3
    endloop
  endfacet
  facet normal 0 0 1
    outer loop
      vertex -25 -43.3013 3
      vertex -33.5876 -33.5876 3
      vertex -33.4565 -37.1572 3
    endloop
  endfacet
  facet normal 0 0 1
    outer loop
      vertex -3 3 3
      vertex -3 47.5 3
      vertex -33.5876 33.5876 3
    endloop
  endfacet
  facet normal 0 0 1
    outer loop
      vertex -33.4565 -37.1572 3
      vertex -35.7089 -31.4663 3
      vertex -40.4508 -29.3893 3
    endloop
  endfacet
  facet normal 0 0 1
    outer loop
      vertex -9.42055e-16 -4.24264 3
      vertex 25 -43.3013 3
      vertex 31.4663 -35.7089 3
    endloop
  endfacet
  facet normal 0 0 1
    outer loop
      vertex 31.4663 -35.7089 3
      vertex 25 -43.3013 3
      vertex 33.4565 -37.1572 3
    endloop
  endfacet
  facet normal 0 0 1
    outer loop
      vertex -3 -3 3
      vertex -33.5876 -33.5876 3
      vertex -25 -43.3013 3
    endloop
  endfacet
  facet normal 0 0 1
    outer loop
      vertex -3 -3 3
      vertex -25 -43.3013 3
      vertex -15.4508 -47.5528 3
    endloop
  endfacet
  facet normal 0 0 1
    outer loop
      vertex -3 -3 3
      vertex -15.4508 -47.5528 3
      vertex -5.22642 -49.7261 3
    endloop
  endfacet
  facet normal 0 0 1
    outer loop
      vertex -3 -3 3
      vertex -5.22642 -49.7261 3
      vertex -3 -47.5 3
    endloop
  endfacet
  facet normal 0 0 1
    outer loop
      vertex -35.7089 -31.4663 3
      vertex -4.24264 -7.84419e-32 3
      vertex -4.24264 0 3
    endloop
  endfacet
  facet normal 0 0 1
    outer loop
      vertex -33.5876 -33.5876 3
      vertex -35.7089 -31.4663 3
      vertex -33.4565 -37.1572 3
    endloop
  endfacet
  facet normal 0 0 1
    outer loop
      vertex -4.24264 0 3
      vertex -40.4508 -29.3893 3
      vertex -35.7089 -31.4663 3
    endloop
  endfacet
  facet normal 0 0 1
    outer loop
      vertex -4.24264 0 3
      vertex -47.5 0 3
      vertex -40.4508 -29.3893 3
    endloop
  endfacet
  facet normal -1 0 0
    outer loop
      vertex -47.5 0 3
      vertex -47.5 0 15
      vertex -47.5 3 3
    endloop
  endfacet
  facet normal -1 0 0
    outer loop
      vertex -47.5 3 3
      vertex -47.5 0 15
      vertex -47.5 3 15
    endloop
  endfacet
  facet normal 0 -1 0
    outer loop
      vertex -47.5 0 15
      vertex -47.5 0 3
      vertex -4.24264 0 3
    endloop
  endfacet
  facet normal 0 -1 0
    outer loop
      vertex -4.24264 0 15
      vertex -47.5 0 15
      vertex -4.24264 0 3
    endloop
  endfacet
  facet normal -0.707107 -0.707107 0
    outer loop
      vertex -4.24264 0 3
      vertex -4.24264 -7.84419e-32 3
      vertex -4.24264 0 15
    endloop
  endfacet
  facet normal -0.707107 -0.707107 0
    outer loop
      vertex -4.24264 0 15
      vertex -4.24264 -7.84419e-32 3
      vertex -4.24264 -7.84419e-32 15
    endloop
  endfacet
  facet normal -0.707107 0.707107 0
    outer loop
      vertex -35.7089 -31.4663 3
      vertex -35.7089 -31.4663 15
      vertex -4.24264 -7.84419e-32 3
    endloop
  endfacet
  facet normal -0.707107 0.707107 0
    outer loop
      vertex -4.24264 -7.84419e-32 3
      vertex -35.7089 -31.4663 15
      vertex -4.24264 -7.84419e-32 15
    endloop
  endfacet
  facet normal -0.707107 -0.707107 0
    outer loop
      vertex -35.7089 -31.4663 15
      vertex -35.7089 -31.4663 3
      vertex -33.5876 -33.5876 3
    endloop
  endfacet
  facet normal -0.707107 -0.707107 0
    outer loop
      vertex -33.5876 -33.5876 15
      vertex -35.7089 -31.4663 15
      vertex -33.5876 -33.5876 3
    endloop
  endfacet
  facet normal 0.707107 -0.707107 0
    outer loop
      vertex -33.5876 -33.5876 15
      vertex -33.5876 -33.5876 3
      vertex -3 -3 3
    endloop
  endfacet
  facet normal 0.707107 -0.707107 0
    outer loop
      vertex -3 -3 15
      vertex -33.5876 -33.5876 15
      vertex -3 -3 3
    endloop
  endfacet
  facet normal -1 2.22045e-16 0
    outer loop
      vertex -3 -47.5 3
      vertex -3 -47.5 15
      vertex -3 -3 3
    endloop
  endfacet
  facet normal -1 2.22045e-16 0
    outer loop
      vertex -3 -3 3
      vertex -3 -47.5 15
      vertex -3 -3 15
    endloop
  endfacet
  facet normal -2.22045e-16 -1 0
    outer loop
      vertex -3 -47.5 15
      vertex -3 -47.5 3
      vertex -1.05471e-14 -47.5 3
    endloop
  endfacet
  facet normal -2.22045e-16 -1 0
    outer loop
      vertex -1.05471e-14 -47.5 15
      vertex -3 -47.5 15
      vertex -1.05471e-14 -47.5 3
    endloop
  endfacet
  facet normal 1 -2.22045e-16 0
    outer loop
      vertex -1.05471e-14 -47.5 15
      vertex -1.05471e-14 -47.5 3
      vertex -9.42055e-16 -4.24264 3
    endloop
  endfacet
  facet normal 1 -2.22045e-16 0
    outer loop
      vertex -9.42055e-16 -4.24264 15
      vertex -1.05471e-14 -47.5 15
      vertex -9.42055e-16 -4.24264 3
    endloop
  endfacet
  facet normal -0.707107 -0.707107 0
    outer loop
      vertex -9.42055e-16 -4.24264 3
      vertex 31.4663 -35.7089 3
      vertex -9.42055e-16 -4.24264 15
    endloop
  endfacet
  facet normal -0.707107 -0.707107 0
    outer loop
      vertex -9.42055e-16 -4.24264 15
      vertex 31.4663 -35.7089 3
      vertex 31.4663 -35.7089 15
    endloop
  endfacet
  facet normal 0.707107 -0.707107 0
    outer loop
      vertex 31.4663 -35.7089 15
      vertex 31.4663 -35.7089 3
      vertex 33.5876 -33.5876 3
    endloop
  endfacet
  facet normal 0.707107 -0.707107 0
    outer loop
      vertex 33.5876 -33.5876 15
      vertex 31.4663 -35.7089 15
      vertex 33.5876 -33.5876 3
    endloop
  endfacet
  facet normal 0.707107 0.707107 0
    outer loop
      vertex 33.5876 -33.5876 3
      vertex 0 0 3
      vertex 0 0 15
    endloop
  endfacet
  facet normal 0.707107 0.707107 0
    outer loop
      vertex 33.5876 -33.5876 15
      vertex 33.5876 -33.5876 3
      vertex 0 0 15
    endloop
  endfacet
  facet normal 0 -1 0
    outer loop
      vertex 0 0 15
      vertex 0 0 3
      vertex 47.5 0 3
    endloop
  endfacet
  facet normal 0 -1 0
    outer loop
      vertex 47.5 0 15
      vertex 0 0 15
      vertex 47.5 0 3
    endloop
  endfacet
  facet normal 1 0 0
    outer loop
      vertex 47.5 0 15
      vertex 47.5 0 3
      vertex 47.5 3 3
    endloop
  endfacet
  facet normal 1 0 0
    outer loop
      vertex 47.5 3 15
      vertex 47.5 0 15
      vertex 47.5 3 3
    endloop
  endfacet
  facet normal 0 1 0
    outer loop
      vertex 3 3 3
      vertex 3 3 15
      vertex 47.5 3 3
    endloop
  endfacet
  facet normal 0 1 0
    outer loop
      vertex 47.5 3 3
      vertex 3 3 15
      vertex 47.5 3 15
    endloop
  endfacet
  facet normal 0.707107 -0.707107 0
    outer loop
      vertex 3 3 15
      vertex 3 3 3
      vertex 33.5876 33.5876 3
    endloop
  endfacet
  facet normal 0.707107 -0.707107 0
    outer loop
      vertex 33.5876 33.5876 15
      vertex 3 3 15
      vertex 33.5876 33.5876 3
    endloop
  endfacet
  facet normal 0.707107 0.707107 0
    outer loop
      vertex 31.4663 35.7089 3
      vertex 31.4663 35.7089 15
      vertex 33.5876 33.5876 3
    endloop
  endfacet
  facet normal 0.707107 0.707107 0
    outer loop
      vertex 33.5876 33.5876 3
      vertex 31.4663 35.7089 15
      vertex 33.5876 33.5876 15
    endloop
  endfacet
  facet normal -0.707107 0.707107 0
    outer loop
      vertex 9.42055e-16 4.24264 3
      vertex 9.42055e-16 4.24264 15
      vertex 31.4663 35.7089 3
    endloop
  endfacet
  facet normal -0.707107 0.707107 0
    outer loop
      vertex 31.4663 35.7089 3
      vertex 9.42055e-16 4.24264 15
      vertex 31.4663 35.7089 15
    endloop
  endfacet
  facet normal 1 -2.22045e-16 0
    outer loop
      vertex 9.42055e-16 4.24264 15
      vertex 9.42055e-16 4.24264 3
      vertex 1.05471e-14 47.5 3
    endloop
  endfacet
  facet normal 1 -2.22045e-16 0
    outer loop
      vertex 1.05471e-14 47.5 15
      vertex 9.42055e-16 4.24264 15
      vertex 1.05471e-14 47.5 3
    endloop
  endfacet
  facet normal 2.22045e-16 1 0
    outer loop
      vertex -3 47.5 3
      vertex -3 47.5 15
      vertex 1.05471e-14 47.5 3
    endloop
  endfacet
  facet normal 2.22045e-16 1 0
    outer loop
      vertex 1.05471e-14 47.5 3
      vertex -3 47.5 15
      vertex 1.05471e-14 47.5 15
    endloop
  endfacet
  facet normal -1 2.22045e-16 0
    outer loop
      vertex -3 3 3
      vertex -3 3 15
      vertex -3 47.5 3
    endloop
  endfacet
  facet normal -1 2.22045e-16 0
    outer loop
      vertex -3 47.5 3
      vertex -3 3 15
      vertex -3 47.5 15
    endloop
  endfacet
  facet normal 0.707107 0.707107 0
    outer loop
      vertex -3 3 3
      vertex -33.5876 33.5876 3
      vertex -33.5876 33.5876 15
    endloop
  endfacet
  facet normal 0.707107 0.707107 0
    outer loop
      vertex -3 3 15
      vertex -3 3 3
      vertex -33.5876 33.5876 15
    endloop
  endfacet
  facet normal -0.707107 0.707107 0
    outer loop
      vertex -35.7089 31.4663 3
      vertex -35.7089 31.4663 15
      vertex -33.5876 33.5876 3
    endloop
  endfacet
  facet normal -0.707107 0.707107 0
    outer loop
      vertex -33.5876 33.5876 3
      vertex -35.7089 31.4663 15
      vertex -33.5876 33.5876 15
    endloop
  endfacet
  facet normal -0.707107 -0.707107 0
    outer loop
      vertex -35.7089 31.4663 3
      vertex -7.24264 3 3
      vertex -35.7089 31.4663 15
    endloop
  endfacet
  facet normal -0.707107 -0.707107 0
    outer loop
      vertex -35.7089 31.4663 15
      vertex -7.24264 3 3
      vertex -7.24264 3 15
    endloop
  endfacet
  facet normal 0 1 0
    outer loop
      vertex -47.5 3 3
      vertex -47.5 3 15
      vertex -7.24264 3 3
    endloop
  endfacet
  facet normal 0 1 0
    outer loop
      vertex -7.24264 3 3
      vertex -47.5 3 15
      vertex -7.24264 3 15
    endloop
  endfacet
  facet normal 0 0 -1
    outer loop
      vertex -50 0 15
      vertex -48.9074 10.3956 15
      vertex -48.9074 -10.3956 15
    endloop
  endfacet
  facet normal 0 0 -1
    outer loop
      vertex -47.5 3 15
      vertex -48.9074 10.3956 15
      vertex -45.6773 20.3368 15
    endloop
  endfacet
  facet normal 0 0 -1
    outer loop
      vertex -35.7089 31.4663 15
      vertex -40.4508 29.3893 15
      vertex -33.4565 37.1572 15
    endloop
  endfacet
  facet normal 0 0 -1
    outer loop
      vertex -33.5876 33.5876 15
      vertex -33.4565 37.1572 15
      vertex -25 43.3013 15
    endloop
  endfacet
  facet normal 0 0 -1
    outer loop
      vertex 31.4663 -35.7089 15
      vertex 33.4565 -37.1572 15
      vertex 25 -43.3013 15
    endloop
  endfacet
  facet normal 0 0 -1
    outer loop
      vertex 0 0 15
      vertex 47.5 0 15
      vertex 48.9074 -10.3956 15
    endloop
  endfacet
  facet normal 0 0 -1
    outer loop
      vertex 1.05471e-14 47.5 15
      vertex -5.22642 49.7261 15
      vertex 5.22642 49.7261 15
    endloop
  endfacet
  facet normal 0 0 -1
    outer loop
      vertex -9.42055e-16 -4.24264 15
      vertex 31.4663 -35.7089 15
      vertex 25 -43.3013 15
    endloop
  endfacet
  facet normal 0 0 -1
    outer loop
      vertex -9.42055e-16 -4.24264 15
      vertex 25 -43.3013 15
      vertex 15.4508 -47.5528 15
    endloop
  endfacet
  facet normal 0 0 -1
    outer loop
      vertex -9.42055e-16 -4.24264 15
      vertex 15.4508 -47.5528 15
      vertex 5.22642 -49.7261 15
    endloop
  endfacet
  facet normal 0 0 -1
    outer loop
      vertex 33.5876 33.5876 15
      vertex 33.4565 37.1572 15
      vertex 40.4508 29.3893 15
    endloop
  endfacet
  facet normal 0 0 -1
    outer loop
      vertex 33.5876 33.5876 15
      vertex 45.6773 20.3368 15
      vertex 3 3 15
    endloop
  endfacet
  facet normal 0 0 -1
    outer loop
      vertex 47.5 0 15
      vertex 48.9074 10.3956 15
      vertex 50 0 15
    endloop
  endfacet
  facet normal 0 0 -1
    outer loop
      vertex 31.4663 -35.7089 15
      vertex 40.4508 -29.3893 15
      vertex 33.4565 -37.1572 15
    endloop
  endfacet
  facet normal 0 0 -1
    outer loop
      vertex -3 -47.5 15
      vertex 5.22642 -49.7261 15
      vertex -5.22642 -49.7261 15
    endloop
  endfacet
  facet normal 0 0 -1
    outer loop
      vertex -3 -3 15
      vertex -3 -47.5 15
      vertex -5.22642 -49.7261 15
    endloop
  endfacet
  facet normal 0 0 -1
    outer loop
      vertex -35.7089 -31.4663 15
      vertex -25 -43.3013 15
      vertex -33.4565 -37.1572 15
    endloop
  endfacet
  facet normal 0 0 -1
    outer loop
      vertex -48.9074 -10.3956 15
      vertex -33.4565 -37.1572 15
      vertex -40.4508 -29.3893 15
    endloop
  endfacet
  facet normal 0 0 -1
    outer loop
      vertex -48.9074 -10.3956 15
      vertex -40.4508 -29.3893 15
      vertex -45.6773 -20.3368 15
    endloop
  endfacet
  facet normal 0 0 -1
    outer loop
      vertex -48.9074 -10.3956 15
      vertex -48.9074 10.3956 15
      vertex -47.5 3 15
    endloop
  endfacet
  facet normal 0 0 -1
    outer loop
      vertex -4.24264 0 15
      vertex -48.9074 -10.3956 15
      vertex -47.5 0 15
    endloop
  endfacet
  facet normal 0 0 -1
    outer loop
      vertex -33.5876 33.5876 15
      vertex -25 43.3013 15
      vertex -15.4508 47.5528 15
    endloop
  endfacet
  facet normal 0 0 -1
    outer loop
      vertex 33.5876 33.5876 15
      vertex 40.4508 29.3893 15
      vertex 45.6773 20.3368 15
    endloop
  endfacet
  facet normal 0 0 -1
    outer loop
      vertex -33.5876 33.5876 15
      vertex -15.4508 47.5528 15
      vertex -5.22642 49.7261 15
    endloop
  endfacet
  facet normal 0 0 -1
    outer loop
      vertex -48.9074 -10.3956 15
      vertex -4.24264 0 15
      vertex -4.24264 -7.84419e-32 15
    endloop
  endfacet
  facet normal 0 0 -1
    outer loop
      vertex -33.5876 -33.5876 15
      vertex -25 -43.3013 15
      vertex -35.7089 -31.4663 15
    endloop
  endfacet
  facet normal 0 0 -1
    outer loop
      vertex -48.9074 -10.3956 15
      vertex -35.7089 -31.4663 15
      vertex -33.4565 -37.1572 15
    endloop
  endfacet
  facet normal 0 0 -1
    outer loop
      vertex 0 0 15
      vertex 40.4508 -29.3893 15
      vertex 33.5876 -33.5876 15
    endloop
  endfacet
  facet normal 0 0 -1
    outer loop
      vertex 0 0 15
      vertex 45.6773 -20.3368 15
      vertex 40.4508 -29.3893 15
    endloop
  endfacet
  facet normal 0 0 -1
    outer loop
      vertex 3 3 15
      vertex 45.6773 20.3368 15
      vertex 48.9074 10.3956 15
    endloop
  endfacet
  facet normal 0 0 -1
    outer loop
      vertex -1.05471e-14 -47.5 15
      vertex 5.22642 -49.7261 15
      vertex -3 -47.5 15
    endloop
  endfacet
  facet normal 0 0 -1
    outer loop
      vertex -3 -3 15
      vertex -5.22642 -49.7261 15
      vertex -15.4508 -47.5528 15
    endloop
  endfacet
  facet normal 0 0 -1
    outer loop
      vertex -3 -3 15
      vertex -25 -43.3013 15
      vertex -33.5876 -33.5876 15
    endloop
  endfacet
  facet normal 0 0 -1
    outer loop
      vertex -3 -3 15
      vertex -15.4508 -47.5528 15
      vertex -25 -43.3013 15
    endloop
  endfacet
  facet normal 0 0 -1
    outer loop
      vertex 33.5876 -33.5876 15
      vertex 40.4508 -29.3893 15
      vertex 31.4663 -35.7089 15
    endloop
  endfacet
  facet normal 0 0 -1
    outer loop
      vertex 1.05471e-14 47.5 15
      vertex 5.22642 49.7261 15
      vertex 15.4508 47.5528 15
    endloop
  endfacet
  facet normal 0 0 -1
    outer loop
      vertex 47.5 3 15
      vertex 48.9074 10.3956 15
      vertex 47.5 0 15
    endloop
  endfacet
  facet normal 0 0 -1
    outer loop
      vertex 3 3 15
      vertex 48.9074 10.3956 15
      vertex 47.5 3 15
    endloop
  endfacet
  facet normal 0 0 -1
    outer loop
      vertex 1.05471e-14 47.5 15
      vertex 31.4663 35.7089 15
      vertex 9.42055e-16 4.24264 15
    endloop
  endfacet
  facet normal 0 0 -1
    outer loop
      vertex -35.7089 -31.4663 15
      vertex -48.9074 -10.3956 15
      vertex -4.24264 -7.84419e-32 15
    endloop
  endfacet
  facet normal 0 0 -1
    outer loop
      vertex 31.4663 35.7089 15
      vertex 33.4565 37.1572 15
      vertex 33.5876 33.5876 15
    endloop
  endfacet
  facet normal 0 0 -1
    outer loop
      vertex -9.42055e-16 -4.24264 15
      vertex 5.22642 -49.7261 15
      vertex -1.05471e-14 -47.5 15
    endloop
  endfacet
  facet normal 0 0 -1
    outer loop
      vertex 1.05471e-14 47.5 15
      vertex 33.4565 37.1572 15
      vertex 31.4663 35.7089 15
    endloop
  endfacet
  facet normal 0 0 -1
    outer loop
      vertex -3 47.5 15
      vertex -5.22642 49.7261 15
      vertex 1.05471e-14 47.5 15
    endloop
  endfacet
  facet normal 0 0 -1
    outer loop
      vertex 0 0 15
      vertex 48.9074 -10.3956 15
      vertex 45.6773 -20.3368 15
    endloop
  endfacet
  facet normal 0 0 -1
    outer loop
      vertex -33.5876 33.5876 15
      vertex -5.22642 49.7261 15
      vertex -3 47.5 15
    endloop
  endfacet
  facet normal 0 0 -1
    outer loop
      vertex 47.5 0 15
      vertex 50 0 15
      vertex 48.9074 -10.3956 15
    endloop
  endfacet
  facet normal 0 0 -1
    outer loop
      vertex -47.5 3 15
      vertex -45.6773 20.3368 15
      vertex -40.4508 29.3893 15
    endloop
  endfacet
  facet normal 0 0 -1
    outer loop
      vertex -47.5 3 15
      vertex -40.4508 29.3893 15
      vertex -35.7089 31.4663 15
    endloop
  endfacet
  facet normal 0 0 -1
    outer loop
      vertex -35.7089 31.4663 15
      vertex -33.4565 37.1572 15
      vertex -33.5876 33.5876 15
    endloop
  endfacet
  facet normal 0 0 -1
    outer loop
      vertex -7.24264 3 15
      vertex -47.5 3 15
      vertex -35.7089 31.4663 15
    endloop
  endfacet
  facet normal 0 0 -1
    outer loop
      vertex -33.5876 33.5876 15
      vertex -3 47.5 15
      vertex -3 3 15
    endloop
  endfacet
  facet normal 0 0 -1
    outer loop
      vertex 1.05471e-14 47.5 15
      vertex 15.4508 47.5528 15
      vertex 25 43.3013 15
    endloop
  endfacet
  facet normal 0 0 -1
    outer loop
      vertex 1.05471e-14 47.5 15
      vertex 25 43.3013 15
      vertex 33.4565 37.1572 15
    endloop
  endfacet
  facet normal 0 0 -1
    outer loop
      vertex -47.5 0 15
      vertex -48.9074 -10.3956 15
      vertex -47.5 3 15
    endloop
  endfacet
  facet normal -0.994522 -0.104528 0
    outer loop
      vertex -50 0 15
      vertex -48.9074 -10.3956 15
      vertex -50 0 18
    endloop
  endfacet
  facet normal -0.994522 -0.104528 0
    outer loop
      vertex -50 0 18
      vertex -48.9074 -10.3956 15
      vertex -48.9074 -10.3956 18
    endloop
  endfacet
  facet normal -0.951057 -0.309017 0
    outer loop
      vertex -48.9074 -10.3956 15
      vertex -45.6773 -20.3368 15
      vertex -48.9074 -10.3956 18
    endloop
  endfacet
  facet normal -0.951057 -0.309017 0
    outer loop
      vertex -48.9074 -10.3956 18
      vertex -45.6773 -20.3368 15
      vertex -45.6773 -20.3368 18
    endloop
  endfacet
  facet normal -0.866025 -0.5 0
    outer loop
      vertex -45.6773 -20.3368 15
      vertex -40.4508 -29.3893 15
      vertex -45.6773 -20.3368 18
    endloop
  endfacet
  facet normal -0.866025 -0.5 0
    outer loop
      vertex -45.6773 -20.3368 18
      vertex -40.4508 -29.3893 15
      vertex -40.4508 -29.3893 18
    endloop
  endfacet
  facet normal -0.743145 -0.669131 0
    outer loop
      vertex -40.4508 -29.3893 15
      vertex -33.4565 -37.1572 15
      vertex -40.4508 -29.3893 18
    endloop
  endfacet
  facet normal -0.743145 -0.669131 0
    outer loop
      vertex -40.4508 -29.3893 18
      vertex -33.4565 -37.1572 15
      vertex -33.4565 -37.1572 18
    endloop
  endfacet
  facet normal -0.587785 -0.809017 0
    outer loop
      vertex -33.4565 -37.1572 18
      vertex -33.4565 -37.1572 15
      vertex -25 -43.3013 15
    endloop
  endfacet
  facet normal -0.587785 -0.809017 0
    outer loop
      vertex -25 -43.3013 18
      vertex -33.4565 -37.1572 18
      vertex -25 -43.3013 15
    endloop
  endfacet
  facet normal -0.406737 -0.913545 0
    outer loop
      vertex -25 -43.3013 18
      vertex -25 -43.3013 15
      vertex -15.4508 -47.5528 15
    endloop
  endfacet
  facet normal -0.406737 -0.913545 0
    outer loop
      vertex -15.4508 -47.5528 18
      vertex -25 -43.3013 18
      vertex -15.4508 -47.5528 15
    endloop
  endfacet
  facet normal -0.207912 -0.978148 0
    outer loop
      vertex -15.4508 -47.5528 18
      vertex -15.4508 -47.5528 15
      vertex -5.22642 -49.7261 15
    endloop
  endfacet
  facet normal -0.207912 -0.978148 0
    outer loop
      vertex -5.22642 -49.7261 18
      vertex -15.4508 -47.5528 18
      vertex -5.22642 -49.7261 15
    endloop
  endfacet
  facet normal 0 -1 0
    outer loop
      vertex -5.22642 -49.7261 18
      vertex -5.22642 -49.7261 15
      vertex 5.22642 -49.7261 15
    endloop
  endfacet
  facet normal 0 -1 0
    outer loop
      vertex 5.22642 -49.7261 18
      vertex -5.22642 -49.7261 18
      vertex 5.22642 -49.7261 15
    endloop
  endfacet
  facet normal 0.207912 -0.978148 0
    outer loop
      vertex 5.22642 -49.7261 18
      vertex 5.22642 -49.7261 15
      vertex 15.4508 -47.5528 15
    endloop
  endfacet
  facet normal 0.207912 -0.978148 0
    outer loop
      vertex 15.4508 -47.5528 18
      vertex 5.22642 -49.7261 18
      vertex 15.4508 -47.5528 15
    endloop
  endfacet
  facet normal 0.406737 -0.913545 0
    outer loop
      vertex 15.4508 -47.5528 18
      vertex 15.4508 -47.5528 15
      vertex 25 -43.3013 15
    endloop
  endfacet
  facet normal 0.406737 -0.913545 0
    outer loop
      vertex 25 -43.3013 18
      vertex 15.4508 -47.5528 18
      vertex 25 -43.3013 15
    endloop
  endfacet
  facet normal 0.587785 -0.809017 0
    outer loop
      vertex 25 -43.3013 18
      vertex 25 -43.3013 15
      vertex 33.4565 -37.1572 15
    endloop
  endfacet
  facet normal 0.587785 -0.809017 0
    outer loop
      vertex 33.4565 -37.1572 18
      vertex 25 -43.3013 18
      vertex 33.4565 -37.1572 15
    endloop
  endfacet
  facet normal 0.743145 -0.669131 0
    outer loop
      vertex 33.4565 -37.1572 18
      vertex 33.4565 -37.1572 15
      vertex 40.4508 -29.3893 15
    endloop
  endfacet
  facet normal 0.743145 -0.669131 0
    outer loop
      vertex 40.4508 -29.3893 18
      vertex 33.4565 -37.1572 18
      vertex 40.4508 -29.3893 15
    endloop
  endfacet
  facet normal 0.866025 -0.5 0
    outer loop
      vertex 40.4508 -29.3893 18
      vertex 40.4508 -29.3893 15
      vertex 45.6773 -20.3368 15
    endloop
  endfacet
  facet normal 0.866025 -0.5 0
    outer loop
      vertex 45.6773 -20.3368 18
      vertex 40.4508 -29.3893 18
      vertex 45.6773 -20.3368 15
    endloop
  endfacet
  facet normal 0.951057 -0.309017 0
    outer loop
      vertex 45.6773 -20.3368 18
      vertex 45.6773 -20.3368 15
      vertex 48.9074 -10.3956 15
    endloop
  endfacet
  facet normal 0.951057 -0.309017 0
    outer loop
      vertex 48.9074 -10.3956 18
      vertex 45.6773 -20.3368 18
      vertex 48.9074 -10.3956 15
    endloop
  endfacet
  facet normal 0.994522 -0.104528 0
    outer loop
      vertex 48.9074 -10.3956 18
      vertex 48.9074 -10.3956 15
      vertex 50 0 15
    endloop
  endfacet
  facet normal 0.994522 -0.104528 0
    outer loop
      vertex 50 0 18
      vertex 48.9074 -10.3956 18
      vertex 50 0 15
    endloop
  endfacet
  facet normal 0.994522 0.104528 0
    outer loop
      vertex 50 0 15
      vertex 48.9074 10.3956 15
      vertex 48.9074 10.3956 18
    endloop
  endfacet
  facet normal 0.994522 0.104528 0
    outer loop
      vertex 50 0 18
      vertex 50 0 15
      vertex 48.9074 10.3956 18
    endloop
  endfacet
  facet normal 0.951057 0.309017 0
    outer loop
      vertex 48.9074 10.3956 15
      vertex 45.6773 20.3368 15
      vertex 45.6773 20.3368 18
    endloop
  endfacet
  facet normal 0.951057 0.309017 0
    outer loop
      vertex 48.9074 10.3956 18
      vertex 48.9074 10.3956 15
      vertex 45.6773 20.3368 18
    endloop
  endfacet
  facet normal 0.866025 0.5 0
    outer loop
      vertex 45.6773 20.3368 15
      vertex 40.4508 29.3893 15
      vertex 40.4508 29.3893 18
    endloop
  endfacet
  facet normal 0.866025 0.5 0
    outer loop
      vertex 45.6773 20.3368 18
      vertex 45.6773 20.3368 15
      vertex 40.4508 29.3893 18
    endloop
  endfacet
  facet normal 0.743145 0.669131 0
    outer loop
      vertex 40.4508 29.3893 15
      vertex 33.4565 37.1572 15
      vertex 33.4565 37.1572 18
    endloop
  endfacet
  facet normal 0.743145 0.669131 0
    outer loop
      vertex 40.4508 29.3893 18
      vertex 40.4508 29.3893 15
      vertex 33.4565 37.1572 18
    endloop
  endfacet
  facet normal 0.587785 0.809017 0
    outer loop
      vertex 25 43.3013 15
      vertex 25 43.3013 18
      vertex 33.4565 37.1572 15
    endloop
  endfacet
  facet normal 0.587785 0.809017 0
    outer loop
      vertex 33.4565 37.1572 15
      vertex 25 43.3013 18
      vertex 33.4565 37.1572 18
    endloop
  endfacet
  facet normal 0.406737 0.913545 0
    outer loop
      vertex 15.4508 47.5528 15
      vertex 15.4508 47.5528 18
      vertex 25 43.3013 15
    endloop
  endfacet
  facet normal 0.406737 0.913545 0
    outer loop
      vertex 25 43.3013 15
      vertex 15.4508 47.5528 18
      vertex 25 43.3013 18
    endloop
  endfacet
  facet normal 0.207912 0.978148 0
    outer loop
      vertex 5.22642 49.7261 15
      vertex 5.22642 49.7261 18
      vertex 15.4508 47.5528 15
    endloop
  endfacet
  facet normal 0.207912 0.978148 0
    outer loop
      vertex 15.4508 47.5528 15
      vertex 5.22642 49.7261 18
      vertex 15.4508 47.5528 18
    endloop
  endfacet
  facet normal 0 1 0
    outer loop
      vertex -5.22642 49.7261 15
      vertex -5.22642 49.7261 18
      vertex 5.22642 49.7261 15
    endloop
  endfacet
  facet normal 0 1 0
    outer loop
      vertex 5.22642 49.7261 15
      vertex -5.22642 49.7261 18
      vertex 5.22642 49.7261 18
    endloop
  endfacet
  facet normal -0.207912 0.978148 0
    outer loop
      vertex -15.4508 47.5528 15
      vertex -15.4508 47.5528 18
      vertex -5.22642 49.7261 15
    endloop
  endfacet
  facet normal -0.207912 0.978148 0
    outer loop
      vertex -5.22642 49.7261 15
      vertex -15.4508 47.5528 18
      vertex -5.22642 49.7261 18
    endloop
  endfacet
  facet normal -0.406737 0.913545 0
    outer loop
      vertex -25 43.3013 15
      vertex -25 43.3013 18
      vertex -15.4508 47.5528 15
    endloop
  endfacet
  facet normal -0.406737 0.913545 0
    outer loop
      vertex -15.4508 47.5528 15
      vertex -25 43.3013 18
      vertex -15.4508 47.5528 18
    endloop
  endfacet
  facet normal -0.587785 0.809017 0
    outer loop
      vertex -33.4565 37.1572 15
      vertex -33.4565 37.1572 18
      vertex -25 43.3013 15
    endloop
  endfacet
  facet normal -0.587785 0.809017 0
    outer loop
      vertex -25 43.3013 15
      vertex -33.4565 37.1572 18
      vertex -25 43.3013 18
    endloop
  endfacet
  facet normal -0.743145 0.669131 0
    outer loop
      vertex -40.4508 29.3893 15
      vertex -40.4508 29.3893 18
      vertex -33.4565 37.1572 15
    endloop
  endfacet
  facet normal -0.743145 0.669131 0
    outer loop
      vertex -33.4565 37.1572 15
      vertex -40.4508 29.3893 18
      vertex -33.4565 37.1572 18
    endloop
  endfacet
  facet normal -0.866025 0.5 0
    outer loop
      vertex -45.6773 20.3368 15
      vertex -45.6773 20.3368 18
      vertex -40.4508 29.3893 15
    endloop
  endfacet
  facet normal -0.866025 0.5 0
    outer loop
      vertex -40.4508 29.3893 15
      vertex -45.6773 20.3368 18
      vertex -40.4508 29.3893 18
    endloop
  endfacet
  facet normal -0.951057 0.309017 0
    outer loop
      vertex -48.9074 10.3956 15
      vertex -48.9074 10.3956 18
      vertex -45.6773 20.3368 15
    endloop
  endfacet
  facet normal -0.951057 0.309017 0
    outer loop
      vertex -45.6773 20.3368 15
      vertex -48.9074 10.3956 18
      vertex -45.6773 20.3368 18
    endloop
  endfacet
  facet normal -0.994522 0.104528 0
    outer loop
      vertex -50 0 15
      vertex -50 0 18
      vertex -48.9074 10.3956 15
    endloop
  endfacet
  facet normal -0.994522 0.104528 0
    outer loop
      vertex -48.9074 10.3956 15
      vertex -50 0 18
      vertex -48.9074 10.3956 18
    endloop
  endfacet
  facet normal 0 0 1
    outer loop
      vertex -48.9074 10.3956 18
      vertex -50 0 18
      vertex -48.9074 -10.3956 18
    endloop
  endfacet
  facet normal 0 0 1
    outer loop
      vertex -40.4508 -29.3893 18
      vertex -48.9074 10.3956 18
      vertex -45.6773 -20.3368 18
    endloop
  endfacet
  facet normal 0 0 1
    outer loop
      vertex -45.6773 -20.3368 18
      vertex -48.9074 10.3956 18
      vertex -48.9074 -10.3956 18
    endloop
  endfacet
  facet normal 0 0 1
    outer loop
      vertex -33.4565 -37.1572 18
      vertex -48.9074 10.3956 18
      vertex -40.4508 -29.3893 18
    endloop
  endfacet
  facet normal 0 0 1
    outer loop
      vertex -25 -43.3013 18
      vertex -48.9074 10.3956 18
      vertex -33.4565 -37.1572 18
    endloop
  endfacet
  facet normal 0 0 1
    outer loop
      vertex -15.4508 -47.5528 18
      vertex -48.9074 10.3956 18
      vertex -25 -43.3013 18
    endloop
  endfacet
  facet normal 0 0 1
    outer loop
      vertex -5.22642 -49.7261 18
      vertex -48.9074 10.3956 18
      vertex -15.4508 -47.5528 18
    endloop
  endfacet
  facet normal 0 0 1
    outer loop
      vertex 5.22642 -49.7261 18
      vertex -48.9074 10.3956 18
      vertex -5.22642 -49.7261 18
    endloop
  endfacet
  facet normal 0 0 1
    outer loop
      vertex 15.4508 -47.5528 18
      vertex -48.9074 10.3956 18
      vertex 5.22642 -49.7261 18
    endloop
  endfacet
  facet normal 0 0 1
    outer loop
      vertex 25 -43.3013 18
      vertex -48.9074 10.3956 18
      vertex 15.4508 -47.5528 18
    endloop
  endfacet
  facet normal 0 0 1
    outer loop
      vertex 33.4565 -37.1572 18
      vertex -48.9074 10.3956 18
      vertex 25 -43.3013 18
    endloop
  endfacet
  facet normal 0 0 1
    outer loop
      vertex 40.4508 -29.3893 18
      vertex -48.9074 10.3956 18
      vertex 33.4565 -37.1572 18
    endloop
  endfacet
  facet normal 0 0 1
    outer loop
      vertex 45.6773 -20.3368 18
      vertex -48.9074 10.3956 18
      vertex 40.4508 -29.3893 18
    endloop
  endfacet
  facet normal 0 0 1
    outer loop
      vertex 48.9074 -10.3956 18
      vertex -48.9074 10.3956 18
      vertex 45.6773 -20.3368 18
    endloop
  endfacet
  facet normal 0 0 1
    outer loop
      vertex 50 0 18
      vertex -48.9074 10.3956 18
      vertex 48.9074 -10.3956 18
    endloop
  endfacet
  facet normal 0 0 1
    outer loop
      vertex 48.9074 10.3956 18
      vertex -48.9074 10.3956 18
      vertex 50 0 18
    endloop
  endfacet
  facet normal 0 0 1
    outer loop
      vertex 45.6773 20.3368 18
      vertex -48.9074 10.3956 18
      vertex 48.9074 10.3956 18
    endloop
  endfacet
  facet normal 0 0 1
    outer loop
      vertex 40.4508 29.3893 18
      vertex -48.9074 10.3956 18
      vertex 45.6773 20.3368 18
    endloop
  endfacet
  facet normal 0 0 1
    outer loop
      vertex 33.4565 37.1572 18
      vertex -48.9074 10.3956 18
      vertex 40.4508 29.3893 18
    endloop
  endfacet
  facet normal 0 0 1
    outer loop
      vertex 25 43.3013 18
      vertex -48.9074 10.3956 18
      vertex 33.4565 37.1572 18
    endloop
  endfacet
  facet normal 0 0 1
    outer loop
      vertex 15.4508 47.5528 18
      vertex -48.9074 10.3956 18
      vertex 25 43.3013 18
    endloop
  endfacet
  facet normal 0 0 1
    outer loop
      vertex 5.22642 49.7261 18
      vertex -48.9074 10.3956 18
      vertex 15.4508 47.5528 18
    endloop
  endfacet
  facet normal 0 0 1
    outer loop
      vertex -5.22642 49.7261 18
      vertex -48.9074 10.3956 18
      vertex 5.22642 49.7261 18
    endloop
  endfacet
  facet normal 0 0 1
    outer loop
      vertex -15.4508 47.5528 18
      vertex -48.9074 10.3956 18
      vertex -5.22642 49.7261 18
    endloop
  endfacet
  facet normal 0 0 1
    outer loop
      vertex -25 43.3013 18
      vertex -48.9074 10.3956 18
      vertex -15.4508 47.5528 18
    endloop
  endfacet
  facet normal 0 0 1
    outer loop
      vertex -33.4565 37.1572 18
      vertex -48.9074 10.3956 18
      vertex -25 43.3013 18
    endloop
  endfacet
  facet normal 0 0 1
    outer loop
      vertex -40.4508 29.3893 18
      vertex -48.9074 10.3956 18
      vertex -33.4565 37.1572 18
    endloop
  endfacet
  facet normal 0 0 1
    outer loop
      vertex -45.6773 20.3368 18
      vertex -48.9074 10.3956 18
      vertex -40.4508 29.3893 18
    endloop
  endfacet
endsolid OpenSCAD_Model
