solid OpenSCAD_Model
  facet normal 0 0 -1
    outer loop
      vertex -40 0 0
      vertex -39.1259 8.31647 0
      vertex -39.1259 -8.31647 0
    endloop
  endfacet
  facet normal 0 0 -1
    outer loop
      vertex -39.1259 -8.31647 0
      vertex -39.1259 8.31647 0
      vertex -36.5418 16.2695 0
    endloop
  endfacet
  facet normal 0 0 -1
    outer loop
      vertex -39.1259 -8.31647 0
      vertex -36.5418 16.2695 0
      vertex -32.3607 23.5114 0
    endloop
  endfacet
  facet normal 0 0 -1
    outer loop
      vertex -39.1259 -8.31647 0
      vertex -32.3607 23.5114 0
      vertex -26.7652 29.7258 0
    endloop
  endfacet
  facet normal 0 0 -1
    outer loop
      vertex -39.1259 -8.31647 0
      vertex -26.7652 29.7258 0
      vertex -20 34.641 0
    endloop
  endfacet
  facet normal 0 0 -1
    outer loop
      vertex -39.1259 -8.31647 0
      vertex -20 34.641 0
      vertex -12.3607 38.0423 0
    endloop
  endfacet
  facet normal 0 0 -1
    outer loop
      vertex -39.1259 -8.31647 0
      vertex -12.3607 38.0423 0
      vertex -4.18114 39.7809 0
    endloop
  endfacet
  facet normal 0 0 -1
    outer loop
      vertex -39.1259 -8.31647 0
      vertex -4.18114 39.7809 0
      vertex 4.18114 39.7809 0
    endloop
  endfacet
  facet normal 0 0 -1
    outer loop
      vertex -39.1259 -8.31647 0
      vertex 4.18114 39.7809 0
      vertex 12.3607 38.0423 0
    endloop
  endfacet
  facet normal 0 0 -1
    outer loop
      vertex -39.1259 -8.31647 0
      vertex 12.3607 38.0423 0
      vertex 20 34.641 0
    endloop
  endfacet
  facet normal 0 0 -1
    outer loop
      vertex -39.1259 -8.31647 0
      vertex 20 34.641 0
      vertex 26.7652 29.7258 0
    endloop
  endfacet
  facet normal 0 0 -1
    outer loop
      vertex -39.1259 -8.31647 0
      vertex 26.7652 29.7258 0
      vertex 32.3607 23.5114 0
    endloop
  endfacet
  facet normal 0 0 -1
    outer loop
      vertex -39.1259 -8.31647 0
      vertex 32.3607 23.5114 0
      vertex 36.5418 16.2695 0
    endloop
  endfacet
  facet normal 0 0 -1
    outer loop
      vertex -39.1259 -8.31647 0
      vertex 36.5418 16.2695 0
      vertex 39.1259 8.31647 0
    endloop
  endfacet
  facet normal 0 0 -1
    outer loop
      vertex -39.1259 -8.31647 0
      vertex 39.1259 8.31647 0
      vertex 40 0 0
    endloop
  endfacet
  facet normal 0 0 -1
    outer loop
      vertex -39.1259 -8.31647 0
      vertex 40 0 0
      vertex 39.1259 -8.31647 0
    endloop
  endfacet
  facet normal 0 0 -1
    outer loop
      vertex -39.1259 -8.31647 0
      vertex 39.1259 -8.31647 0
      vertex 36.5418 -16.2695 0
    endloop
  endfacet
  facet normal 0 0 -1
    outer loop
      vertex -39.1259 -8.31647 0
      vertex 36.5418 -16.2695 0
      vertex 32.3607 -23.5114 0
    endloop
  endfacet
  facet normal 0 0 -1
    outer loop
      vertex -39.1259 -8.31647 0
      vertex 32.3607 -23.5114 0
      vertex 26.7652 -29.7258 0
    endloop
  endfacet
  facet normal 0 0 -1
    outer loop
      vertex -39.1259 -8.31647 0
      vertex 26.7652 -29.7258 0
      vertex 20 -34.641 0
    endloop
  endfacet
  facet normal 0 0 -1
    outer loop
      vertex -39.1259 -8.31647 0
      vertex 20 -34.641 0
      vertex 12.3607 -38.0423 0
    endloop
  endfacet
  facet normal 0 0 -1
    outer loop
      vertex -39.1259 -8.31647 0
      vertex 12.3607 -38.0423 0
      vertex 4.18114 -39.7809 0
    endloop
  endfacet
  facet normal 0 0 -1
    outer loop
      vertex -39.1259 -8.31647 0
      vertex 4.18114 -39.7809 0
      vertex -4.18114 -39.7809 0
    endloop
  endfacet
  facet normal 0 0 -1
    outer loop
      vertex -39.1259 -8.31647 0
      vertex -4.18114 -39.7809 0
      vertex -12.3607 -38.0423 0
    endloop
  endfacet
  facet normal 0 0 -1
    outer loop
      vertex -39.1259 -8.31647 0
      vertex -12.3607 -38.0423 0
      vertex -20 -34.641 0
    endloop
  endfacet
  facet normal 0 0 -1
    outer loop
      vertex -39.1259 -8.31647 0
      vertex -20 -34.641 0
      vertex -26.7652 -29.7258 0
    endloop
  endfacet
  facet normal 0 0 -1
    outer loop
      vertex -39.1259 -8.31647 0
      vertex -26.7652 -29.7258 0
      vertex -32.3607 -23.5114 0
    endloop
  endfacet
  facet normal 0 0 -1
    outer loop
      vertex -39.1259 -8.31647 0
      vertex -32.3607 -23.5114 0
      vertex -36.5418 -16.2695 0
    endloop
  endfacet
  facet normal -0.994522 0.104528 0
    outer loop
      vertex -40 0 0
      vertex -40 0 5
      vertex -39.1259 8.31647 0
    endloop
  endfacet
  facet normal -0.994522 0.104528 0
    outer loop
      vertex -39.1259 8.31647 0
      vertex -40 0 5
      vertex -39.1259 8.31647 5
    endloop
  endfacet
  facet normal -0.994522 -0.104528 0
    outer loop
      vertex -40 0 0
      vertex -39.1259 -8.31647 0
      vertex -40 0 5
    endloop
  endfacet
  facet normal -0.994522 -0.104528 0
    outer loop
      vertex -40 0 5
      vertex -39.1259 -8.31647 0
      vertex -39.1259 -8.31647 5
    endloop
  endfacet
  facet normal -0.951057 -0.309017 0
    outer loop
      vertex -39.1259 -8.31647 0
      vertex -36.5418 -16.2695 0
      vertex -39.1259 -8.31647 5
    endloop
  endfacet
  facet normal -0.951057 -0.309017 0
    outer loop
      vertex -39.1259 -8.31647 5
      vertex -36.5418 -16.2695 0
      vertex -36.5418 -16.2695 5
    endloop
  endfacet
  facet normal -0.866025 -0.5 0
    outer loop
      vertex -36.5418 -16.2695 0
      vertex -32.3607 -23.5114 0
      vertex -36.5418 -16.2695 5
    endloop
  endfacet
  facet normal -0.866025 -0.5 0
    outer loop
      vertex -36.5418 -16.2695 5
      vertex -32.3607 -23.5114 0
      vertex -32.3607 -23.5114 5
    endloop
  endfacet
  facet normal -0.743145 -0.669131 0
    outer loop
      vertex -32.3607 -23.5114 0
      vertex -26.7652 -29.7258 0
      vertex -32.3607 -23.5114 5
    endloop
  endfacet
  facet normal -0.743145 -0.669131 0
    outer loop
      vertex -32.3607 -23.5114 5
      vertex -26.7652 -29.7258 0
      vertex -26.7652 -29.7258 5
    endloop
  endfacet
  facet normal -0.587785 -0.809017 0
    outer loop
      vertex -26.7652 -29.7258 5
      vertex -26.7652 -29.7258 0
      vertex -20 -34.641 0
    endloop
  endfacet
  facet normal -0.587785 -0.809017 0
    outer loop
      vertex -20 -34.641 5
      vertex -26.7652 -29.7258 5
      vertex -20 -34.641 0
    endloop
  endfacet
  facet normal -0.406737 -0.913545 0
    outer loop
      vertex -20 -34.641 5
      vertex -20 -34.641 0
      vertex -12.3607 -38.0423 0
    endloop
  endfacet
  facet normal -0.406737 -0.913545 0
    outer loop
      vertex -12.3607 -38.0423 5
      vertex -20 -34.641 5
      vertex -12.3607 -38.0423 0
    endloop
  endfacet
  facet normal -0.207912 -0.978148 0
    outer loop
      vertex -12.3607 -38.0423 5
      vertex -12.3607 -38.0423 0
      vertex -4.18114 -39.7809 0
    endloop
  endfacet
  facet normal -0.207912 -0.978148 0
    outer loop
      vertex -4.18114 -39.7809 5
      vertex -12.3607 -38.0423 5
      vertex -4.18114 -39.7809 0
    endloop
  endfacet
  facet normal 0 -1 0
    outer loop
      vertex -4.18114 -39.7809 5
      vertex -4.18114 -39.7809 0
      vertex 4.18114 -39.7809 0
    endloop
  endfacet
  facet normal 0 -1 0
    outer loop
      vertex 4.18114 -39.7809 5
      vertex -4.18114 -39.7809 5
      vertex 4.18114 -39.7809 0
    endloop
  endfacet
  facet normal 0.207912 -0.978148 0
    outer loop
      vertex 4.18114 -39.7809 5
      vertex 4.18114 -39.7809 0
      vertex 12.3607 -38.0423 0
    endloop
  endfacet
  facet normal 0.207912 -0.978148 0
    outer loop
      vertex 12.3607 -38.0423 5
      vertex 4.18114 -39.7809 5
      vertex 12.3607 -38.0423 0
    endloop
  endfacet
  facet normal 0.406737 -0.913545 0
    outer loop
      vertex 12.3607 -38.0423 5
      vertex 12.3607 -38.0423 0
      vertex 20 -34.641 0
    endloop
  endfacet
  facet normal 0.406737 -0.913545 0
    outer loop
      vertex 20 -34.641 5
      vertex 12.3607 -38.0423 5
      vertex 20 -34.641 0
    endloop
  endfacet
  facet normal 0.587785 -0.809017 0
    outer loop
      vertex 20 -34.641 5
      vertex 20 -34.641 0
      vertex 26.7652 -29.7258 0
    endloop
  endfacet
  facet normal 0.587785 -0.809017 0
    outer loop
      vertex 26.7652 -29.7258 5
      vertex 20 -34.641 5
      vertex 26.7652 -29.7258 0
    endloop
  endfacet
  facet normal 0.743145 -0.669131 0
    outer loop
      vertex 26.7652 -29.7258 5
      vertex 26.7652 -29.7258 0
      vertex 32.3607 -23.5114 0
    endloop
  endfacet
  facet normal 0.743145 -0.669131 0
    outer loop
      vertex 32.3607 -23.5114 5
      vertex 26.7652 -29.7258 5
      vertex 32.3607 -23.5114 0
    endloop
  endfacet
  facet normal 0.866025 -0.5 0
    outer loop
      vertex 32.3607 -23.5114 5
      vertex 32.3607 -23.5114 0
      vertex 36.5418 -16.2695 0
    endloop
  endfacet
  facet normal 0.866025 -0.5 0
    outer loop
      vertex 36.5418 -16.2695 5
      vertex 32.3607 -23.5114 5
      vertex 36.5418 -16.2695 0
    endloop
  endfacet
  facet normal 0.951057 -0.309017 0
    outer loop
      vertex 36.5418 -16.2695 5
      vertex 36.5418 -16.2695 0
      vertex 39.1259 -8.31647 0
    endloop
  endfacet
  facet normal 0.951057 -0.309017 0
    outer loop
      vertex 39.1259 -8.31647 5
      vertex 36.5418 -16.2695 5
      vertex 39.1259 -8.31647 0
    endloop
  endfacet
  facet normal 0.994522 -0.104528 0
    outer loop
      vertex 39.1259 -8.31647 5
      vertex 39.1259 -8.31647 0
      vertex 40 0 0
    endloop
  endfacet
  facet normal 0.994522 -0.104528 0
    outer loop
      vertex 40 0 5
      vertex 39.1259 -8.31647 5
      vertex 40 0 0
    endloop
  endfacet
  facet normal 0.994522 0.104528 0
    outer loop
      vertex 40 0 0
      vertex 39.1259 8.31647 0
      vertex 39.1259 8.31647 5
    endloop
  endfacet
  facet normal 0.994522 0.104528 0
    outer loop
      vertex 40 0 5
      vertex 40 0 0
      vertex 39.1259 8.31647 5
    endloop
  endfacet
  facet normal 0.951057 0.309017 0
    outer loop
      vertex 39.1259 8.31647 0
      vertex 36.5418 16.2695 0
      vertex 36.5418 16.2695 5
    endloop
  endfacet
  facet normal 0.951057 0.309017 0
    outer loop
      vertex 39.1259 8.31647 5
      vertex 39.1259 8.31647 0
      vertex 36.5418 16.2695 5
    endloop
  endfacet
  facet normal 0.866025 0.5 0
    outer loop
      vertex 36.5418 16.2695 0
      vertex 32.3607 23.5114 0
      vertex 32.3607 23.5114 5
    endloop
  endfacet
  facet normal 0.866025 0.5 0
    outer loop
      vertex 36.5418 16.2695 5
      vertex 36.5418 16.2695 0
      vertex 32.3607 23.5114 5
    endloop
  endfacet
  facet normal 0.743145 0.669131 0
    outer loop
      vertex 32.3607 23.5114 0
      vertex 26.7652 29.7258 0
      vertex 26.7652 29.7258 5
    endloop
  endfacet
  facet normal 0.743145 0.669131 0
    outer loop
      vertex 32.3607 23.5114 5
      vertex 32.3607 23.5114 0
      vertex 26.7652 29.7258 5
    endloop
  endfacet
  facet normal 0.587785 0.809017 0
    outer loop
      vertex 20 34.641 0
      vertex 20 34.641 5
      vertex 26.7652 29.7258 0
    endloop
  endfacet
  facet normal 0.587785 0.809017 0
    outer loop
      vertex 26.7652 29.7258 0
      vertex 20 34.641 5
      vertex 26.7652 29.7258 5
    endloop
  endfacet
  facet normal 0.406737 0.913545 0
    outer loop
      vertex 12.3607 38.0423 0
      vertex 12.3607 38.0423 5
      vertex 20 34.641 0
    endloop
  endfacet
  facet normal 0.406737 0.913545 0
    outer loop
      vertex 20 34.641 0
      vertex 12.3607 38.0423 5
      vertex 20 34.641 5
    endloop
  endfacet
  facet normal 0.207912 0.978148 0
    outer loop
      vertex 4.18114 39.7809 0
      vertex 4.18114 39.7809 5
      vertex 12.3607 38.0423 0
    endloop
  endfacet
  facet normal 0.207912 0.978148 0
    outer loop
      vertex 12.3607 38.0423 0
      vertex 4.18114 39.7809 5
      vertex 12.3607 38.0423 5
    endloop
  endfacet
  facet normal 0 1 0
    outer loop
      vertex -4.18114 39.7809 0
      vertex -4.18114 39.7809 5
      vertex 4.18114 39.7809 0
    endloop
  endfacet
  facet normal 0 1 0
    outer loop
      vertex 4.18114 39.7809 0
      vertex -4.18114 39.7809 5
      vertex 4.18114 39.7809 5
    endloop
  endfacet
  facet normal -0.207912 0.978148 0
    outer loop
      vertex -12.3607 38.0423 0
      vertex -12.3607 38.0423 5
      vertex -4.18114 39.7809 0
    endloop
  endfacet
  facet normal -0.207912 0.978148 0
    outer loop
      vertex -4.18114 39.7809 0
      vertex -12.3607 38.0423 5
      vertex -4.18114 39.7809 5
    endloop
  endfacet
  facet normal -0.406737 0.913545 0
    outer loop
      vertex -20 34.641 0
      vertex -20 34.641 5
      vertex -12.3607 38.0423 0
    endloop
  endfacet
  facet normal -0.406737 0.913545 0
    outer loop
      vertex -12.3607 38.0423 0
      vertex -20 34.641 5
      vertex -12.3607 38.0423 5
    endloop
  endfacet
  facet normal -0.587785 0.809017 0
    outer loop
      vertex -26.7652 29.7258 0
      vertex -26.7652 29.7258 5
      vertex -20 34.641 0
    endloop
  endfacet
  facet normal -0.587785 0.809017 0
    outer loop
      vertex -20 34.641 0
      vertex -26.7652 29.7258 5
      vertex -20 34.641 5
    endloop
  endfacet
  facet normal -0.743145 0.669131 0
    outer loop
      vertex -32.3607 23.5114 0
      vertex -32.3607 23.5114 5
      vertex -26.7652 29.7258 0
    endloop
  endfacet
  facet normal -0.743145 0.669131 0
    outer loop
      vertex -26.7652 29.7258 0
      vertex -32.3607 23.5114 5
      vertex -26.7652 29.7258 5
    endloop
  endfacet
  facet normal -0.866025 0.5 0
    outer loop
      vertex -36.5418 16.2695 0
      vertex -36.5418 16.2695 5
      vertex -32.3607 23.5114 0
    endloop
  endfacet
  facet normal -0.866025 0.5 0
    outer loop
      vertex -32.3607 23.5114 0
      vertex -36.5418 16.2695 5
      vertex -32.3607 23.5114 5
    endloop
  endfacet
  facet normal -0.951057 0.309017 0
    outer loop
      vertex -39.1259 8.31647 0
      vertex -39.1259 8.31647 5
      vertex -36.5418 16.2695 0
    endloop
  endfacet
  facet normal -0.951057 0.309017 0
    outer loop
      vertex -36.5418 16.2695 0
      vertex -39.1259 8.31647 5
      vertex -36.5418 16.2695 5
    endloop
  endfacet
  facet normal 0 0 1
    outer loop
      vertex -39.1259 8.31647 5
      vertex -40 0 5
      vertex -39.1259 -8.31647 5
    endloop
  endfacet
  facet normal 0 0 1
    outer loop
      vertex -37.5 0 5
      vertex -39.1259 8.31647 5
      vertex -36.5418 -16.2695 5
    endloop
  endfacet
  facet normal 0 0 1
    outer loop
      vertex -36.5418 -16.2695 5
      vertex -39.1259 8.31647 5
      vertex -39.1259 -8.31647 5
    endloop
  endfacet
  facet normal 0 0 1
    outer loop
      vertex 8.32667e-15 37.5 5
      vertex 12.3607 38.0423 5
      vertex 4.18114 39.7809 5
    endloop
  endfacet
  facet normal 0 0 1
    outer loop
      vertex 37.5 3 5
      vertex 37.5 0 5
      vertex 40 0 5
    endloop
  endfacet
  facet normal 0 0 1
    outer loop
      vertex 9.42055e-16 4.24264 5
      vertex 24.3952 28.6378 5
      vertex 8.32667e-15 37.5 5
    endloop
  endfacet
  facet normal 0 0 1
    outer loop
      vertex 8.32667e-15 37.5 5
      vertex 20 34.641 5
      vertex 12.3607 38.0423 5
    endloop
  endfacet
  facet normal 0 0 1
    outer loop
      vertex 0 0 5
      vertex 20 -34.641 5
      vertex 26.7652 -29.7258 5
    endloop
  endfacet
  facet normal 0 0 1
    outer loop
      vertex -3 3 5
      vertex -26.5165 26.5165 5
      vertex -39.1259 8.31647 5
    endloop
  endfacet
  facet normal 0 0 1
    outer loop
      vertex 26.5165 26.5165 5
      vertex 3 3 5
      vertex 37.5 3 5
    endloop
  endfacet
  facet normal 0 0 1
    outer loop
      vertex 26.5165 26.5165 5
      vertex 39.1259 8.31647 5
      vertex 36.5418 16.2695 5
    endloop
  endfacet
  facet normal 0 0 1
    outer loop
      vertex 8.32667e-15 37.5 5
      vertex 24.3952 28.6378 5
      vertex 26.7652 29.7258 5
    endloop
  endfacet
  facet normal 0 0 1
    outer loop
      vertex -24.3952 28.6378 5
      vertex -3 37.5 5
      vertex -4.18114 39.7809 5
    endloop
  endfacet
  facet normal 0 0 1
    outer loop
      vertex -24.3952 28.6378 5
      vertex -4.18114 39.7809 5
      vertex -12.3607 38.0423 5
    endloop
  endfacet
  facet normal 0 0 1
    outer loop
      vertex -32.3607 23.5114 5
      vertex -39.1259 8.31647 5
      vertex -26.7652 29.7258 5
    endloop
  endfacet
  facet normal 0 0 1
    outer loop
      vertex -36.5418 16.2695 5
      vertex -39.1259 8.31647 5
      vertex -32.3607 23.5114 5
    endloop
  endfacet
  facet normal 0 0 1
    outer loop
      vertex -32.3607 -23.5114 5
      vertex -37.5 0 5
      vertex -36.5418 -16.2695 5
    endloop
  endfacet
  facet normal 0 0 1
    outer loop
      vertex -3 7.24264 5
      vertex -3 37.5 5
      vertex -24.3952 28.6378 5
    endloop
  endfacet
  facet normal 0 0 1
    outer loop
      vertex -26.7652 29.7258 5
      vertex -26.5165 26.5165 5
      vertex -20 34.641 5
    endloop
  endfacet
  facet normal 0 0 1
    outer loop
      vertex -26.7652 29.7258 5
      vertex -39.1259 8.31647 5
      vertex -26.5165 26.5165 5
    endloop
  endfacet
  facet normal 0 0 1
    outer loop
      vertex -26.5165 26.5165 5
      vertex -24.3952 28.6378 5
      vertex -20 34.641 5
    endloop
  endfacet
  facet normal 0 0 1
    outer loop
      vertex 0 0 5
      vertex 4.18114 -39.7809 5
      vertex 12.3607 -38.0423 5
    endloop
  endfacet
  facet normal 0 0 1
    outer loop
      vertex -4.18114 39.7809 5
      vertex -3 37.5 5
      vertex 4.18114 39.7809 5
    endloop
  endfacet
  facet normal 0 0 1
    outer loop
      vertex -3 37.5 5
      vertex 8.32667e-15 37.5 5
      vertex 4.18114 39.7809 5
    endloop
  endfacet
  facet normal 0 0 1
    outer loop
      vertex 8.32667e-15 37.5 5
      vertex 26.7652 29.7258 5
      vertex 20 34.641 5
    endloop
  endfacet
  facet normal 0 0 1
    outer loop
      vertex 26.5165 26.5165 5
      vertex 36.5418 16.2695 5
      vertex 32.3607 23.5114 5
    endloop
  endfacet
  facet normal 0 0 1
    outer loop
      vertex 26.7652 29.7258 5
      vertex 24.3952 28.6378 5
      vertex 32.3607 23.5114 5
    endloop
  endfacet
  facet normal 0 0 1
    outer loop
      vertex 26.5165 26.5165 5
      vertex 37.5 3 5
      vertex 39.1259 8.31647 5
    endloop
  endfacet
  facet normal 0 0 1
    outer loop
      vertex 24.3952 28.6378 5
      vertex 26.5165 26.5165 5
      vertex 32.3607 23.5114 5
    endloop
  endfacet
  facet normal 0 0 1
    outer loop
      vertex 4.24264 0 5
      vertex 36.5418 -16.2695 5
      vertex 39.1259 -8.31647 5
    endloop
  endfacet
  facet normal 0 0 1
    outer loop
      vertex 37.5 0 5
      vertex 4.24264 0 5
      vertex 39.1259 -8.31647 5
    endloop
  endfacet
  facet normal 0 0 1
    outer loop
      vertex 39.1259 8.31647 5
      vertex 37.5 3 5
      vertex 40 0 5
    endloop
  endfacet
  facet normal 0 0 1
    outer loop
      vertex 4.24264 0 5
      vertex 28.6378 -24.3952 5
      vertex 32.3607 -23.5114 5
    endloop
  endfacet
  facet normal 0 0 1
    outer loop
      vertex 40 0 5
      vertex 37.5 0 5
      vertex 39.1259 -8.31647 5
    endloop
  endfacet
  facet normal 0 0 1
    outer loop
      vertex -24.3952 28.6378 5
      vertex -12.3607 38.0423 5
      vertex -20 34.641 5
    endloop
  endfacet
  facet normal 0 0 1
    outer loop
      vertex 32.3607 -23.5114 5
      vertex 28.6378 -24.3952 5
      vertex 26.7652 -29.7258 5
    endloop
  endfacet
  facet normal 0 0 1
    outer loop
      vertex 28.6378 -24.3952 5
      vertex 26.5165 -26.5165 5
      vertex 26.7652 -29.7258 5
    endloop
  endfacet
  facet normal 0 0 1
    outer loop
      vertex 0 0 5
      vertex 12.3607 -38.0423 5
      vertex 20 -34.641 5
    endloop
  endfacet
  facet normal 0 0 1
    outer loop
      vertex 4.18114 -39.7809 5
      vertex -8.32667e-15 -37.5 5
      vertex -4.18114 -39.7809 5
    endloop
  endfacet
  facet normal 0 0 1
    outer loop
      vertex -8.32667e-15 -37.5 5
      vertex -3 -37.5 5
      vertex -4.18114 -39.7809 5
    endloop
  endfacet
  facet normal 0 0 1
    outer loop
      vertex 0 0 5
      vertex 26.7652 -29.7258 5
      vertex 26.5165 -26.5165 5
    endloop
  endfacet
  facet normal 0 0 1
    outer loop
      vertex -20 -34.641 5
      vertex -26.5165 -26.5165 5
      vertex -26.7652 -29.7258 5
    endloop
  endfacet
  facet normal 0 0 1
    outer loop
      vertex 4.24264 0 5
      vertex 32.3607 -23.5114 5
      vertex 36.5418 -16.2695 5
    endloop
  endfacet
  facet normal 0 0 1
    outer loop
      vertex -26.7652 -29.7258 5
      vertex -28.6378 -24.3952 5
      vertex -32.3607 -23.5114 5
    endloop
  endfacet
  facet normal 0 0 1
    outer loop
      vertex -37.5 3 5
      vertex -3 3 5
      vertex -39.1259 8.31647 5
    endloop
  endfacet
  facet normal 0 0 1
    outer loop
      vertex -37.5 0 5
      vertex -37.5 3 5
      vertex -39.1259 8.31647 5
    endloop
  endfacet
  facet normal 0 0 1
    outer loop
      vertex 0 0 5
      vertex -8.32667e-15 -37.5 5
      vertex 4.18114 -39.7809 5
    endloop
  endfacet
  facet normal 0 0 1
    outer loop
      vertex -3 -3 5
      vertex -26.5165 -26.5165 5
      vertex -20 -34.641 5
    endloop
  endfacet
  facet normal 0 0 1
    outer loop
      vertex -3 -3 5
      vertex -20 -34.641 5
      vertex -12.3607 -38.0423 5
    endloop
  endfacet
  facet normal 0 0 1
    outer loop
      vertex -3 -3 5
      vertex -12.3607 -38.0423 5
      vertex -4.18114 -39.7809 5
    endloop
  endfacet
  facet normal 0 0 1
    outer loop
      vertex -3 -3 5
      vertex -4.18114 -39.7809 5
      vertex -3 -37.5 5
    endloop
  endfacet
  facet normal 0 0 1
    outer loop
      vertex -26.5165 -26.5165 5
      vertex -28.6378 -24.3952 5
      vertex -26.7652 -29.7258 5
    endloop
  endfacet
  facet normal 0 0 1
    outer loop
      vertex -4.24264 0 5
      vertex -32.3607 -23.5114 5
      vertex -28.6378 -24.3952 5
    endloop
  endfacet
  facet normal 0 0 1
    outer loop
      vertex -4.24264 0 5
      vertex -37.5 0 5
      vertex -32.3607 -23.5114 5
    endloop
  endfacet
  facet normal -1 0 0
    outer loop
      vertex -37.5 0 5
      vertex -37.5 0 15
      vertex -37.5 3 5
    endloop
  endfacet
  facet normal -1 0 0
    outer loop
      vertex -37.5 3 5
      vertex -37.5 0 15
      vertex -37.5 3 15
    endloop
  endfacet
  facet normal 0 -1 0
    outer loop
      vertex -37.5 0 15
      vertex -37.5 0 5
      vertex -4.24264 0 5
    endloop
  endfacet
  facet normal 0 -1 0
    outer loop
      vertex -4.24264 0 15
      vertex -37.5 0 15
      vertex -4.24264 0 5
    endloop
  endfacet
  facet normal -0.707107 0.707107 0
    outer loop
      vertex -28.6378 -24.3952 5
      vertex -28.6378 -24.3952 15
      vertex -4.24264 0 5
    endloop
  endfacet
  facet normal -0.707107 0.707107 0
    outer loop
      vertex -4.24264 0 5
      vertex -28.6378 -24.3952 15
      vertex -4.24264 0 15
    endloop
  endfacet
  facet normal -0.707107 -0.707107 0
    outer loop
      vertex -28.6378 -24.3952 15
      vertex -28.6378 -24.3952 5
      vertex -26.5165 -26.5165 5
    endloop
  endfacet
  facet normal -0.707107 -0.707107 0
    outer loop
      vertex -26.5165 -26.5165 15
      vertex -28.6378 -24.3952 15
      vertex -26.5165 -26.5165 5
    endloop
  endfacet
  facet normal 0.707107 -0.707107 0
    outer loop
      vertex -26.5165 -26.5165 15
      vertex -26.5165 -26.5165 5
      vertex -3 -3 5
    endloop
  endfacet
  facet normal 0.707107 -0.707107 0
    outer loop
      vertex -3 -3 15
      vertex -26.5165 -26.5165 15
      vertex -3 -3 5
    endloop
  endfacet
  facet normal -1 2.22045e-16 0
    outer loop
      vertex -3 -37.5 5
      vertex -3 -37.5 15
      vertex -3 -3 5
    endloop
  endfacet
  facet normal -1 2.22045e-16 0
    outer loop
      vertex -3 -3 5
      vertex -3 -37.5 15
      vertex -3 -3 15
    endloop
  endfacet
  facet normal -2.22045e-16 -1 0
    outer loop
      vertex -3 -37.5 15
      vertex -3 -37.5 5
      vertex -8.32667e-15 -37.5 5
    endloop
  endfacet
  facet normal -2.22045e-16 -1 0
    outer loop
      vertex -8.32667e-15 -37.5 15
      vertex -3 -37.5 15
      vertex -8.32667e-15 -37.5 5
    endloop
  endfacet
  facet normal 1 -2.22045e-16 0
    outer loop
      vertex -8.32667e-15 -37.5 15
      vertex -8.32667e-15 -37.5 5
      vertex 0 0 5
    endloop
  endfacet
  facet normal 1 -2.22045e-16 0
    outer loop
      vertex 0 0 15
      vertex -8.32667e-15 -37.5 15
      vertex 0 0 5
    endloop
  endfacet
  facet normal -0.707107 -0.707107 0
    outer loop
      vertex 0 0 5
      vertex 26.5165 -26.5165 5
      vertex 0 0 15
    endloop
  endfacet
  facet normal -0.707107 -0.707107 0
    outer loop
      vertex 0 0 15
      vertex 26.5165 -26.5165 5
      vertex 26.5165 -26.5165 15
    endloop
  endfacet
  facet normal 0.707107 -0.707107 0
    outer loop
      vertex 26.5165 -26.5165 15
      vertex 26.5165 -26.5165 5
      vertex 28.6378 -24.3952 5
    endloop
  endfacet
  facet normal 0.707107 -0.707107 0
    outer loop
      vertex 28.6378 -24.3952 15
      vertex 26.5165 -26.5165 15
      vertex 28.6378 -24.3952 5
    endloop
  endfacet
  facet normal 0.707107 0.707107 0
    outer loop
      vertex 28.6378 -24.3952 5
      vertex 4.24264 0 5
      vertex 4.24264 0 15
    endloop
  endfacet
  facet normal 0.707107 0.707107 0
    outer loop
      vertex 28.6378 -24.3952 15
      vertex 28.6378 -24.3952 5
      vertex 4.24264 0 15
    endloop
  endfacet
  facet normal 0 -1 0
    outer loop
      vertex 4.24264 0 15
      vertex 4.24264 0 5
      vertex 37.5 0 5
    endloop
  endfacet
  facet normal 0 -1 0
    outer loop
      vertex 37.5 0 15
      vertex 4.24264 0 15
      vertex 37.5 0 5
    endloop
  endfacet
  facet normal 1 0 0
    outer loop
      vertex 37.5 0 15
      vertex 37.5 0 5
      vertex 37.5 3 5
    endloop
  endfacet
  facet normal 1 0 0
    outer loop
      vertex 37.5 3 15
      vertex 37.5 0 15
      vertex 37.5 3 5
    endloop
  endfacet
  facet normal 0 1 0
    outer loop
      vertex 3 3 5
      vertex 3 3 15
      vertex 37.5 3 5
    endloop
  endfacet
  facet normal 0 1 0
    outer loop
      vertex 37.5 3 5
      vertex 3 3 15
      vertex 37.5 3 15
    endloop
  endfacet
  facet normal 0.707107 -0.707107 0
    outer loop
      vertex 3 3 15
      vertex 3 3 5
      vertex 26.5165 26.5165 5
    endloop
  endfacet
  facet normal 0.707107 -0.707107 0
    outer loop
      vertex 26.5165 26.5165 15
      vertex 3 3 15
      vertex 26.5165 26.5165 5
    endloop
  endfacet
  facet normal 0.707107 0.707107 0
    outer loop
      vertex 24.3952 28.6378 5
      vertex 24.3952 28.6378 15
      vertex 26.5165 26.5165 5
    endloop
  endfacet
  facet normal 0.707107 0.707107 0
    outer loop
      vertex 26.5165 26.5165 5
      vertex 24.3952 28.6378 15
      vertex 26.5165 26.5165 15
    endloop
  endfacet
  facet normal -0.707107 0.707107 0
    outer loop
      vertex 9.42055e-16 4.24264 5
      vertex 9.42055e-16 4.24264 15
      vertex 24.3952 28.6378 5
    endloop
  endfacet
  facet normal -0.707107 0.707107 0
    outer loop
      vertex 24.3952 28.6378 5
      vertex 9.42055e-16 4.24264 15
      vertex 24.3952 28.6378 15
    endloop
  endfacet
  facet normal 1 -2.22045e-16 0
    outer loop
      vertex 9.42055e-16 4.24264 15
      vertex 9.42055e-16 4.24264 5
      vertex 8.32667e-15 37.5 5
    endloop
  endfacet
  facet normal 1 -2.22045e-16 0
    outer loop
      vertex 8.32667e-15 37.5 15
      vertex 9.42055e-16 4.24264 15
      vertex 8.32667e-15 37.5 5
    endloop
  endfacet
  facet normal 2.22045e-16 1 0
    outer loop
      vertex -3 37.5 5
      vertex -3 37.5 15
      vertex 8.32667e-15 37.5 5
    endloop
  endfacet
  facet normal 2.22045e-16 1 0
    outer loop
      vertex 8.32667e-15 37.5 5
      vertex -3 37.5 15
      vertex 8.32667e-15 37.5 15
    endloop
  endfacet
  facet normal -1 2.22045e-16 0
    outer loop
      vertex -3 7.24264 5
      vertex -3 7.24264 15
      vertex -3 37.5 5
    endloop
  endfacet
  facet normal -1 2.22045e-16 0
    outer loop
      vertex -3 37.5 5
      vertex -3 7.24264 15
      vertex -3 37.5 15
    endloop
  endfacet
  facet normal 0.707107 0.707107 0
    outer loop
      vertex -3 7.24264 5
      vertex -24.3952 28.6378 5
      vertex -24.3952 28.6378 15
    endloop
  endfacet
  facet normal 0.707107 0.707107 0
    outer loop
      vertex -3 7.24264 15
      vertex -3 7.24264 5
      vertex -24.3952 28.6378 15
    endloop
  endfacet
  facet normal -0.707107 0.707107 0
    outer loop
      vertex -26.5165 26.5165 5
      vertex -26.5165 26.5165 15
      vertex -24.3952 28.6378 5
    endloop
  endfacet
  facet normal -0.707107 0.707107 0
    outer loop
      vertex -24.3952 28.6378 5
      vertex -26.5165 26.5165 15
      vertex -24.3952 28.6378 15
    endloop
  endfacet
  facet normal -0.707107 -0.707107 0
    outer loop
      vertex -26.5165 26.5165 5
      vertex -3 3 5
      vertex -26.5165 26.5165 15
    endloop
  endfacet
  facet normal -0.707107 -0.707107 0
    outer loop
      vertex -26.5165 26.5165 15
      vertex -3 3 5
      vertex -3 3 15
    endloop
  endfacet
  facet normal 0 1 0
    outer loop
      vertex -37.5 3 5
      vertex -37.5 3 15
      vertex -3 3 5
    endloop
  endfacet
  facet normal 0 1 0
    outer loop
      vertex -3 3 5
      vertex -37.5 3 15
      vertex -3 3 15
    endloop
  endfacet
  facet normal 0 0 -1
    outer loop
      vertex -40 0 15
      vertex -39.1259 8.31647 15
      vertex -39.1259 -8.31647 15
    endloop
  endfacet
  facet normal 0 0 -1
    outer loop
      vertex -39.1259 -8.31647 15
      vertex -39.1259 8.31647 15
      vertex -36.5418 16.2695 15
    endloop
  endfacet
  facet normal 0 0 -1
    outer loop
      vertex -37.5 3 15
      vertex -36.5418 16.2695 15
      vertex -32.3607 23.5114 15
    endloop
  endfacet
  facet normal 0 0 -1
    outer loop
      vertex -24.3952 28.6378 15
      vertex -26.7652 29.7258 15
      vertex -20 34.641 15
    endloop
  endfacet
  facet normal 0 0 -1
    outer loop
      vertex 8.32667e-15 37.5 15
      vertex -4.18114 39.7809 15
      vertex 4.18114 39.7809 15
    endloop
  endfacet
  facet normal 0 0 -1
    outer loop
      vertex 8.32667e-15 37.5 15
      vertex 12.3607 38.0423 15
      vertex 20 34.641 15
    endloop
  endfacet
  facet normal 0 0 -1
    outer loop
      vertex 24.3952 28.6378 15
      vertex 20 34.641 15
      vertex 26.7652 29.7258 15
    endloop
  endfacet
  facet normal 0 0 -1
    outer loop
      vertex 26.5165 26.5165 15
      vertex 26.7652 29.7258 15
      vertex 32.3607 23.5114 15
    endloop
  endfacet
  facet normal 0 0 -1
    outer loop
      vertex 26.5165 26.5165 15
      vertex 36.5418 16.2695 15
      vertex 3 3 15
    endloop
  endfacet
  facet normal 0 0 -1
    outer loop
      vertex 37.5 0 15
      vertex 39.1259 8.31647 15
      vertex 40 0 15
    endloop
  endfacet
  facet normal 0 0 -1
    outer loop
      vertex 0 0 15
      vertex 4.18114 -39.7809 15
      vertex -8.32667e-15 -37.5 15
    endloop
  endfacet
  facet normal 0 0 -1
    outer loop
      vertex 26.5165 -26.5165 15
      vertex 32.3607 -23.5114 15
      vertex 26.7652 -29.7258 15
    endloop
  endfacet
  facet normal 0 0 -1
    outer loop
      vertex 0 0 15
      vertex 26.5165 -26.5165 15
      vertex 26.7652 -29.7258 15
    endloop
  endfacet
  facet normal 0 0 -1
    outer loop
      vertex -3 -37.5 15
      vertex 4.18114 -39.7809 15
      vertex -4.18114 -39.7809 15
    endloop
  endfacet
  facet normal 0 0 -1
    outer loop
      vertex -3 -3 15
      vertex -4.18114 -39.7809 15
      vertex -12.3607 -38.0423 15
    endloop
  endfacet
  facet normal 0 0 -1
    outer loop
      vertex -3 -3 15
      vertex -3 -37.5 15
      vertex -4.18114 -39.7809 15
    endloop
  endfacet
  facet normal 0 0 -1
    outer loop
      vertex -28.6378 -24.3952 15
      vertex -20 -34.641 15
      vertex -26.7652 -29.7258 15
    endloop
  endfacet
  facet normal 0 0 -1
    outer loop
      vertex -39.1259 -8.31647 15
      vertex -26.7652 -29.7258 15
      vertex -32.3607 -23.5114 15
    endloop
  endfacet
  facet normal 0 0 -1
    outer loop
      vertex -39.1259 -8.31647 15
      vertex -32.3607 -23.5114 15
      vertex -36.5418 -16.2695 15
    endloop
  endfacet
  facet normal 0 0 -1
    outer loop
      vertex -39.1259 -8.31647 15
      vertex -36.5418 16.2695 15
      vertex -37.5 3 15
    endloop
  endfacet
  facet normal 0 0 -1
    outer loop
      vertex -4.24264 0 15
      vertex -39.1259 -8.31647 15
      vertex -37.5 0 15
    endloop
  endfacet
  facet normal 0 0 -1
    outer loop
      vertex -39.1259 -8.31647 15
      vertex -37.5 3 15
      vertex -37.5 0 15
    endloop
  endfacet
  facet normal 0 0 -1
    outer loop
      vertex 26.5165 26.5165 15
      vertex 32.3607 23.5114 15
      vertex 36.5418 16.2695 15
    endloop
  endfacet
  facet normal 0 0 -1
    outer loop
      vertex -26.5165 -26.5165 15
      vertex -20 -34.641 15
      vertex -28.6378 -24.3952 15
    endloop
  endfacet
  facet normal 0 0 -1
    outer loop
      vertex -39.1259 -8.31647 15
      vertex -28.6378 -24.3952 15
      vertex -26.7652 -29.7258 15
    endloop
  endfacet
  facet normal 0 0 -1
    outer loop
      vertex 4.24264 0 15
      vertex 36.5418 -16.2695 15
      vertex 32.3607 -23.5114 15
    endloop
  endfacet
  facet normal 0 0 -1
    outer loop
      vertex -8.32667e-15 -37.5 15
      vertex 4.18114 -39.7809 15
      vertex -3 -37.5 15
    endloop
  endfacet
  facet normal 0 0 -1
    outer loop
      vertex -3 -3 15
      vertex -12.3607 -38.0423 15
      vertex -20 -34.641 15
    endloop
  endfacet
  facet normal 0 0 -1
    outer loop
      vertex -3 -3 15
      vertex -20 -34.641 15
      vertex -26.5165 -26.5165 15
    endloop
  endfacet
  facet normal 0 0 -1
    outer loop
      vertex 8.32667e-15 37.5 15
      vertex 4.18114 39.7809 15
      vertex 12.3607 38.0423 15
    endloop
  endfacet
  facet normal 0 0 -1
    outer loop
      vertex 28.6378 -24.3952 15
      vertex 32.3607 -23.5114 15
      vertex 26.5165 -26.5165 15
    endloop
  endfacet
  facet normal 0 0 -1
    outer loop
      vertex 0 0 15
      vertex 26.7652 -29.7258 15
      vertex 20 -34.641 15
    endloop
  endfacet
  facet normal 0 0 -1
    outer loop
      vertex 0 0 15
      vertex 12.3607 -38.0423 15
      vertex 4.18114 -39.7809 15
    endloop
  endfacet
  facet normal 0 0 -1
    outer loop
      vertex 0 0 15
      vertex 20 -34.641 15
      vertex 12.3607 -38.0423 15
    endloop
  endfacet
  facet normal 0 0 -1
    outer loop
      vertex 8.32667e-15 37.5 15
      vertex 20 34.641 15
      vertex 24.3952 28.6378 15
    endloop
  endfacet
  facet normal 0 0 -1
    outer loop
      vertex 4.24264 0 15
      vertex 39.1259 -8.31647 15
      vertex 36.5418 -16.2695 15
    endloop
  endfacet
  facet normal 0 0 -1
    outer loop
      vertex 37.5 3 15
      vertex 39.1259 8.31647 15
      vertex 37.5 0 15
    endloop
  endfacet
  facet normal 0 0 -1
    outer loop
      vertex 4.24264 0 15
      vertex 32.3607 -23.5114 15
      vertex 28.6378 -24.3952 15
    endloop
  endfacet
  facet normal 0 0 -1
    outer loop
      vertex -24.3952 28.6378 15
      vertex -20 34.641 15
      vertex -12.3607 38.0423 15
    endloop
  endfacet
  facet normal 0 0 -1
    outer loop
      vertex -28.6378 -24.3952 15
      vertex -39.1259 -8.31647 15
      vertex -4.24264 0 15
    endloop
  endfacet
  facet normal 0 0 -1
    outer loop
      vertex 3 3 15
      vertex 36.5418 16.2695 15
      vertex 39.1259 8.31647 15
    endloop
  endfacet
  facet normal 0 0 -1
    outer loop
      vertex 3 3 15
      vertex 39.1259 8.31647 15
      vertex 37.5 3 15
    endloop
  endfacet
  facet normal 0 0 -1
    outer loop
      vertex 37.5 0 15
      vertex 40 0 15
      vertex 39.1259 -8.31647 15
    endloop
  endfacet
  facet normal 0 0 -1
    outer loop
      vertex 4.24264 0 15
      vertex 37.5 0 15
      vertex 39.1259 -8.31647 15
    endloop
  endfacet
  facet normal 0 0 -1
    outer loop
      vertex -3 37.5 15
      vertex -4.18114 39.7809 15
      vertex 8.32667e-15 37.5 15
    endloop
  endfacet
  facet normal 0 0 -1
    outer loop
      vertex -26.5165 26.5165 15
      vertex -26.7652 29.7258 15
      vertex -24.3952 28.6378 15
    endloop
  endfacet
  facet normal 0 0 -1
    outer loop
      vertex -37.5 3 15
      vertex -32.3607 23.5114 15
      vertex -26.7652 29.7258 15
    endloop
  endfacet
  facet normal 0 0 -1
    outer loop
      vertex -37.5 3 15
      vertex -26.7652 29.7258 15
      vertex -26.5165 26.5165 15
    endloop
  endfacet
  facet normal 0 0 -1
    outer loop
      vertex -3 3 15
      vertex -37.5 3 15
      vertex -26.5165 26.5165 15
    endloop
  endfacet
  facet normal 0 0 -1
    outer loop
      vertex -24.3952 28.6378 15
      vertex -12.3607 38.0423 15
      vertex -4.18114 39.7809 15
    endloop
  endfacet
  facet normal 0 0 -1
    outer loop
      vertex -24.3952 28.6378 15
      vertex -4.18114 39.7809 15
      vertex -3 37.5 15
    endloop
  endfacet
  facet normal 0 0 -1
    outer loop
      vertex -24.3952 28.6378 15
      vertex -3 37.5 15
      vertex -3 7.24264 15
    endloop
  endfacet
  facet normal 0 0 -1
    outer loop
      vertex 24.3952 28.6378 15
      vertex 26.7652 29.7258 15
      vertex 26.5165 26.5165 15
    endloop
  endfacet
  facet normal 0 0 -1
    outer loop
      vertex 8.32667e-15 37.5 15
      vertex 24.3952 28.6378 15
      vertex 9.42055e-16 4.24264 15
    endloop
  endfacet
  facet normal -0.994522 -0.104528 0
    outer loop
      vertex -40 0 15
      vertex -39.1259 -8.31647 15
      vertex -40 0 20
    endloop
  endfacet
  facet normal -0.994522 -0.104528 0
    outer loop
      vertex -40 0 20
      vertex -39.1259 -8.31647 15
      vertex -39.1259 -8.31647 20
    endloop
  endfacet
  facet normal -0.951057 -0.309017 0
    outer loop
      vertex -39.1259 -8.31647 15
      vertex -36.5418 -16.2695 15
      vertex -39.1259 -8.31647 20
    endloop
  endfacet
  facet normal -0.951057 -0.309017 0
    outer loop
      vertex -39.1259 -8.31647 20
      vertex -36.5418 -16.2695 15
      vertex -36.5418 -16.2695 20
    endloop
  endfacet
  facet normal -0.866025 -0.5 0
    outer loop
      vertex -36.5418 -16.2695 15
      vertex -32.3607 -23.5114 15
      vertex -36.5418 -16.2695 20
    endloop
  endfacet
  facet normal -0.866025 -0.5 0
    outer loop
      vertex -36.5418 -16.2695 20
      vertex -32.3607 -23.5114 15
      vertex -32.3607 -23.5114 20
    endloop
  endfacet
  facet normal -0.743145 -0.669131 0
    outer loop
      vertex -32.3607 -23.5114 15
      vertex -26.7652 -29.7258 15
      vertex -32.3607 -23.5114 20
    endloop
  endfacet
  facet normal -0.743145 -0.669131 0
    outer loop
      vertex -32.3607 -23.5114 20
      vertex -26.7652 -29.7258 15
      vertex -26.7652 -29.7258 20
    endloop
  endfacet
  facet normal -0.587785 -0.809017 0
    outer loop
      vertex -26.7652 -29.7258 20
      vertex -26.7652 -29.7258 15
      vertex -20 -34.641 15
    endloop
  endfacet
  facet normal -0.587785 -0.809017 0
    outer loop
      vertex -20 -34.641 20
      vertex -26.7652 -29.7258 20
      vertex -20 -34.641 15
    endloop
  endfacet
  facet normal -0.406737 -0.913545 0
    outer loop
      vertex -20 -34.641 20
      vertex -20 -34.641 15
      vertex -12.3607 -38.0423 15
    endloop
  endfacet
  facet normal -0.406737 -0.913545 0
    outer loop
      vertex -12.3607 -38.0423 20
      vertex -20 -34.641 20
      vertex -12.3607 -38.0423 15
    endloop
  endfacet
  facet normal -0.207912 -0.978148 0
    outer loop
      vertex -12.3607 -38.0423 20
      vertex -12.3607 -38.0423 15
      vertex -4.18114 -39.7809 15
    endloop
  endfacet
  facet normal -0.207912 -0.978148 0
    outer loop
      vertex -4.18114 -39.7809 20
      vertex -12.3607 -38.0423 20
      vertex -4.18114 -39.7809 15
    endloop
  endfacet
  facet normal 0 -1 0
    outer loop
      vertex -4.18114 -39.7809 20
      vertex -4.18114 -39.7809 15
      vertex 4.18114 -39.7809 15
    endloop
  endfacet
  facet normal 0 -1 0
    outer loop
      vertex 4.18114 -39.7809 20
      vertex -4.18114 -39.7809 20
      vertex 4.18114 -39.7809 15
    endloop
  endfacet
  facet normal 0.207912 -0.978148 0
    outer loop
      vertex 4.18114 -39.7809 20
      vertex 4.18114 -39.7809 15
      vertex 12.3607 -38.0423 15
    endloop
  endfacet
  facet normal 0.207912 -0.978148 0
    outer loop
      vertex 12.3607 -38.0423 20
      vertex 4.18114 -39.7809 20
      vertex 12.3607 -38.0423 15
    endloop
  endfacet
  facet normal 0.406737 -0.913545 0
    outer loop
      vertex 12.3607 -38.0423 20
      vertex 12.3607 -38.0423 15
      vertex 20 -34.641 15
    endloop
  endfacet
  facet normal 0.406737 -0.913545 0
    outer loop
      vertex 20 -34.641 20
      vertex 12.3607 -38.0423 20
      vertex 20 -34.641 15
    endloop
  endfacet
  facet normal 0.587785 -0.809017 0
    outer loop
      vertex 20 -34.641 20
      vertex 20 -34.641 15
      vertex 26.7652 -29.7258 15
    endloop
  endfacet
  facet normal 0.587785 -0.809017 0
    outer loop
      vertex 26.7652 -29.7258 20
      vertex 20 -34.641 20
      vertex 26.7652 -29.7258 15
    endloop
  endfacet
  facet normal 0.743145 -0.669131 0
    outer loop
      vertex 26.7652 -29.7258 20
      vertex 26.7652 -29.7258 15
      vertex 32.3607 -23.5114 15
    endloop
  endfacet
  facet normal 0.743145 -0.669131 0
    outer loop
      vertex 32.3607 -23.5114 20
      vertex 26.7652 -29.7258 20
      vertex 32.3607 -23.5114 15
    endloop
  endfacet
  facet normal 0.866025 -0.5 0
    outer loop
      vertex 32.3607 -23.5114 20
      vertex 32.3607 -23.5114 15
      vertex 36.5418 -16.2695 15
    endloop
  endfacet
  facet normal 0.866025 -0.5 0
    outer loop
      vertex 36.5418 -16.2695 20
      vertex 32.3607 -23.5114 20
      vertex 36.5418 -16.2695 15
    endloop
  endfacet
  facet normal 0.951057 -0.309017 0
    outer loop
      vertex 36.5418 -16.2695 20
      vertex 36.5418 -16.2695 15
      vertex 39.1259 -8.31647 15
    endloop
  endfacet
  facet normal 0.951057 -0.309017 0
    outer loop
      vertex 39.1259 -8.31647 20
      vertex 36.5418 -16.2695 20
      vertex 39.1259 -8.31647 15
    endloop
  endfacet
  facet normal 0.994522 -0.104528 0
    outer loop
      vertex 39.1259 -8.31647 20
      vertex 39.1259 -8.31647 15
      vertex 40 0 15
    endloop
  endfacet
  facet normal 0.994522 -0.104528 0
    outer loop
      vertex 40 0 20
      vertex 39.1259 -8.31647 20
      vertex 40 0 15
    endloop
  endfacet
  facet normal 0.994522 0.104528 0
    outer loop
      vertex 40 0 15
      vertex 39.1259 8.31647 15
      vertex 39.1259 8.31647 20
    endloop
  endfacet
  facet normal 0.994522 0.104528 0
    outer loop
      vertex 40 0 20
      vertex 40 0 15
      vertex 39.1259 8.31647 20
    endloop
  endfacet
  facet normal 0.951057 0.309017 0
    outer loop
      vertex 39.1259 8.31647 15
      vertex 36.5418 16.2695 15
      vertex 36.5418 16.2695 20
    endloop
  endfacet
  facet normal 0.951057 0.309017 0
    outer loop
      vertex 39.1259 8.31647 20
      vertex 39.1259 8.31647 15
      vertex 36.5418 16.2695 20
    endloop
  endfacet
  facet normal 0.866025 0.5 0
    outer loop
      vertex 36.5418 16.2695 15
      vertex 32.3607 23.5114 15
      vertex 32.3607 23.5114 20
    endloop
  endfacet
  facet normal 0.866025 0.5 0
    outer loop
      vertex 36.5418 16.2695 20
      vertex 36.5418 16.2695 15
      vertex 32.3607 23.5114 20
    endloop
  endfacet
  facet normal 0.743145 0.669131 0
    outer loop
      vertex 32.3607 23.5114 15
      vertex 26.7652 29.7258 15
      vertex 26.7652 29.7258 20
    endloop
  endfacet
  facet normal 0.743145 0.669131 0
    outer loop
      vertex 32.3607 23.5114 20
      vertex 32.3607 23.5114 15
      vertex 26.7652 29.7258 20
    endloop
  endfacet
  facet normal 0.587785 0.809017 0
    outer loop
      vertex 20 34.641 15
      vertex 20 34.641 20
      vertex 26.7652 29.7258 15
    endloop
  endfacet
  facet normal 0.587785 0.809017 0
    outer loop
      vertex 26.7652 29.7258 15
      vertex 20 34.641 20
      vertex 26.7652 29.7258 20
    endloop
  endfacet
  facet normal 0.406737 0.913545 0
    outer loop
      vertex 12.3607 38.0423 15
      vertex 12.3607 38.0423 20
      vertex 20 34.641 15
    endloop
  endfacet
  facet normal 0.406737 0.913545 0
    outer loop
      vertex 20 34.641 15
      vertex 12.3607 38.0423 20
      vertex 20 34.641 20
    endloop
  endfacet
  facet normal 0.207912 0.978148 0
    outer loop
      vertex 4.18114 39.7809 15
      vertex 4.18114 39.7809 20
      vertex 12.3607 38.0423 15
    endloop
  endfacet
  facet normal 0.207912 0.978148 0
    outer loop
      vertex 12.3607 38.0423 15
      vertex 4.18114 39.7809 20
      vertex 12.3607 38.0423 20
    endloop
  endfacet
  facet normal 0 1 0
    outer loop
      vertex -4.18114 39.7809 15
      vertex -4.18114 39.7809 20
      vertex 4.18114 39.7809 15
    endloop
  endfacet
  facet normal 0 1 0
    outer loop
      vertex 4.18114 39.7809 15
      vertex -4.18114 39.7809 20
      vertex 4.18114 39.7809 20
    endloop
  endfacet
  facet normal -0.207912 0.978148 0
    outer loop
      vertex -12.3607 38.0423 15
      vertex -12.3607 38.0423 20
      vertex -4.18114 39.7809 15
    endloop
  endfacet
  facet normal -0.207912 0.978148 0
    outer loop
      vertex -4.18114 39.7809 15
      vertex -12.3607 38.0423 20
      vertex -4.18114 39.7809 20
    endloop
  endfacet
  facet normal -0.406737 0.913545 0
    outer loop
      vertex -20 34.641 15
      vertex -20 34.641 20
      vertex -12.3607 38.0423 15
    endloop
  endfacet
  facet normal -0.406737 0.913545 0
    outer loop
      vertex -12.3607 38.0423 15
      vertex -20 34.641 20
      vertex -12.3607 38.0423 20
    endloop
  endfacet
  facet normal -0.587785 0.809017 0
    outer loop
      vertex -26.7652 29.7258 15
      vertex -26.7652 29.7258 20
      vertex -20 34.641 15
    endloop
  endfacet
  facet normal -0.587785 0.809017 0
    outer loop
      vertex -20 34.641 15
      vertex -26.7652 29.7258 20
      vertex -20 34.641 20
    endloop
  endfacet
  facet normal -0.743145 0.669131 0
    outer loop
      vertex -32.3607 23.5114 15
      vertex -32.3607 23.5114 20
      vertex -26.7652 29.7258 15
    endloop
  endfacet
  facet normal -0.743145 0.669131 0
    outer loop
      vertex -26.7652 29.7258 15
      vertex -32.3607 23.5114 20
      vertex -26.7652 29.7258 20
    endloop
  endfacet
  facet normal -0.866025 0.5 0
    outer loop
      vertex -36.5418 16.2695 15
      vertex -36.5418 16.2695 20
      vertex -32.3607 23.5114 15
    endloop
  endfacet
  facet normal -0.866025 0.5 0
    outer loop
      vertex -32.3607 23.5114 15
      vertex -36.5418 16.2695 20
      vertex -32.3607 23.5114 20
    endloop
  endfacet
  facet normal -0.951057 0.309017 0
    outer loop
      vertex -39.1259 8.31647 15
      vertex -39.1259 8.31647 20
      vertex -36.5418 16.2695 15
    endloop
  endfacet
  facet normal -0.951057 0.309017 0
    outer loop
      vertex -36.5418 16.2695 15
      vertex -39.1259 8.31647 20
      vertex -36.5418 16.2695 20
    endloop
  endfacet
  facet normal -0.994522 0.104528 0
    outer loop
      vertex -40 0 15
      vertex -40 0 20
      vertex -39.1259 8.31647 15
    endloop
  endfacet
  facet normal -0.994522 0.104528 0
    outer loop
      vertex -39.1259 8.31647 15
      vertex -40 0 20
      vertex -39.1259 8.31647 20
    endloop
  endfacet
  facet normal 0 0 1
    outer loop
      vertex -39.1259 8.31647 20
      vertex -40 0 20
      vertex -39.1259 -8.31647 20
    endloop
  endfacet
  facet normal 0 0 1
    outer loop
      vertex -32.3607 -23.5114 20
      vertex -39.1259 8.31647 20
      vertex -36.5418 -16.2695 20
    endloop
  endfacet
  facet normal 0 0 1
    outer loop
      vertex -36.5418 -16.2695 20
      vertex -39.1259 8.31647 20
      vertex -39.1259 -8.31647 20
    endloop
  endfacet
  facet normal 0 0 1
    outer loop
      vertex -26.7652 -29.7258 20
      vertex -39.1259 8.31647 20
      vertex -32.3607 -23.5114 20
    endloop
  endfacet
  facet normal 0 0 1
    outer loop
      vertex -20 -34.641 20
      vertex -39.1259 8.31647 20
      vertex -26.7652 -29.7258 20
    endloop
  endfacet
  facet normal 0 0 1
    outer loop
      vertex -12.3607 -38.0423 20
      vertex -39.1259 8.31647 20
      vertex -20 -34.641 20
    endloop
  endfacet
  facet normal 0 0 1
    outer loop
      vertex -4.18114 -39.7809 20
      vertex -39.1259 8.31647 20
      vertex -12.3607 -38.0423 20
    endloop
  endfacet
  facet normal 0 0 1
    outer loop
      vertex 4.18114 -39.7809 20
      vertex -39.1259 8.31647 20
      vertex -4.18114 -39.7809 20
    endloop
  endfacet
  facet normal 0 0 1
    outer loop
      vertex 12.3607 -38.0423 20
      vertex -39.1259 8.31647 20
      vertex 4.18114 -39.7809 20
    endloop
  endfacet
  facet normal 0 0 1
    outer loop
      vertex 20 -34.641 20
      vertex -39.1259 8.31647 20
      vertex 12.3607 -38.0423 20
    endloop
  endfacet
  facet normal 0 0 1
    outer loop
      vertex 26.7652 -29.7258 20
      vertex -39.1259 8.31647 20
      vertex 20 -34.641 20
    endloop
  endfacet
  facet normal 0 0 1
    outer loop
      vertex 32.3607 -23.5114 20
      vertex -39.1259 8.31647 20
      vertex 26.7652 -29.7258 20
    endloop
  endfacet
  facet normal 0 0 1
    outer loop
      vertex 36.5418 -16.2695 20
      vertex -39.1259 8.31647 20
      vertex 32.3607 -23.5114 20
    endloop
  endfacet
  facet normal 0 0 1
    outer loop
      vertex 39.1259 -8.31647 20
      vertex -39.1259 8.31647 20
      vertex 36.5418 -16.2695 20
    endloop
  endfacet
  facet normal 0 0 1
    outer loop
      vertex 40 0 20
      vertex -39.1259 8.31647 20
      vertex 39.1259 -8.31647 20
    endloop
  endfacet
  facet normal 0 0 1
    outer loop
      vertex 39.1259 8.31647 20
      vertex -39.1259 8.31647 20
      vertex 40 0 20
    endloop
  endfacet
  facet normal 0 0 1
    outer loop
      vertex 36.5418 16.2695 20
      vertex -39.1259 8.31647 20
      vertex 39.1259 8.31647 20
    endloop
  endfacet
  facet normal 0 0 1
    outer loop
      vertex 32.3607 23.5114 20
      vertex -39.1259 8.31647 20
      vertex 36.5418 16.2695 20
    endloop
  endfacet
  facet normal 0 0 1
    outer loop
      vertex 26.7652 29.7258 20
      vertex -39.1259 8.31647 20
      vertex 32.3607 23.5114 20
    endloop
  endfacet
  facet normal 0 0 1
    outer loop
      vertex 20 34.641 20
      vertex -39.1259 8.31647 20
      vertex 26.7652 29.7258 20
    endloop
  endfacet
  facet normal 0 0 1
    outer loop
      vertex 12.3607 38.0423 20
      vertex -39.1259 8.31647 20
      vertex 20 34.641 20
    endloop
  endfacet
  facet normal 0 0 1
    outer loop
      vertex 4.18114 39.7809 20
      vertex -39.1259 8.31647 20
      vertex 12.3607 38.0423 20
    endloop
  endfacet
  facet normal 0 0 1
    outer loop
      vertex -4.18114 39.7809 20
      vertex -39.1259 8.31647 20
      vertex 4.18114 39.7809 20
    endloop
  endfacet
  facet normal 0 0 1
    outer loop
      vertex -12.3607 38.0423 20
      vertex -39.1259 8.31647 20
      vertex -4.18114 39.7809 20
    endloop
  endfacet
  facet normal 0 0 1
    outer loop
      vertex -20 34.641 20
      vertex -39.1259 8.31647 20
      vertex -12.3607 38.0423 20
    endloop
  endfacet
  facet normal 0 0 1
    outer loop
      vertex -26.7652 29.7258 20
      vertex -39.1259 8.31647 20
      vertex -20 34.641 20
    endloop
  endfacet
  facet normal 0 0 1
    outer loop
      vertex -32.3607 23.5114 20
      vertex -39.1259 8.31647 20
      vertex -26.7652 29.7258 20
    endloop
  endfacet
  facet normal 0 0 1
    outer loop
      vertex -36.5418 16.2695 20
      vertex -39.1259 8.31647 20
      vertex -32.3607 23.5114 20
    endloop
  endfacet
endsolid OpenSCAD_Model
